<svg width="40" height="40" viewBox="0 0 40 40" fill="none" xmlns="http://www.w3.org/2000/svg">
<path d="M3.72093 0C1.66758 0 0 1.66758 0 3.72093V36.2791C0 38.3324 1.66758 40 3.72093 40H36.2791C38.3324 40 40 38.3324 40 36.2791V3.72093C40 1.66758 38.3324 0 36.2791 0H3.72093ZM3.72093 0.930233H36.2791C37.8332 0.930233 39.0698 2.16684 39.0698 3.72093V36.2791C39.0698 37.8332 37.8332 39.0698 36.2791 39.0698H3.72093C2.16684 39.0698 0.930233 37.8332 0.930233 36.2791V3.72093C0.930233 2.16684 2.16684 0.930233 3.72093 0.930233ZM22.2965 4.18605C22.1783 4.19346 22.0673 4.24572 21.9863 4.33215C21.9052 4.41859 21.8602 4.53269 21.8605 4.65116V17.6744C21.8605 17.7978 21.9095 17.9161 21.9967 18.0033C22.0839 18.0905 22.2022 18.1395 22.3256 18.1395H35.3488C35.4722 18.1395 35.5905 18.0905 35.6777 18.0033C35.7649 17.9161 35.8139 17.7978 35.814 17.6744V4.65116C35.8159 4.54153 35.779 4.43474 35.7099 4.34964C35.6407 4.26454 35.5438 4.2066 35.436 4.18605C35.407 4.18332 35.3778 4.18332 35.3488 4.18605H22.3256C22.3159 4.18574 22.3062 4.18574 22.2965 4.18605ZM22.7907 5.11628H34.8837V17.2093H22.7907V5.11628ZM4.62209 21.8605C4.50385 21.8679 4.39289 21.9201 4.31186 22.0066C4.23082 22.093 4.18583 22.2071 4.18605 22.3256V35.3488C4.18606 35.4722 4.23507 35.5905 4.32229 35.6777C4.40951 35.7649 4.52781 35.8139 4.65116 35.814H17.6744C17.7978 35.8139 17.9161 35.7649 18.0033 35.6777C18.0905 35.5905 18.1395 35.4722 18.1395 35.3488V22.3256C18.1395 22.2022 18.0905 22.0839 18.0033 21.9967C17.9161 21.9095 17.7978 21.8605 17.6744 21.8605H4.65116C4.64148 21.8602 4.63178 21.8602 4.62209 21.8605ZM22.3256 21.8605C22.2022 21.8605 22.0839 21.9095 21.9967 21.9967C21.9095 22.0839 21.8605 22.2022 21.8605 22.3256V35.3488C21.8605 35.4722 21.9095 35.5905 21.9967 35.6777C22.0839 35.7649 22.2022 35.8139 22.3256 35.814H35.3488C35.4722 35.8139 35.5905 35.7649 35.6777 35.6777C35.7649 35.5905 35.8139 35.4722 35.814 35.3488V22.3256C35.8139 22.2022 35.7649 22.0839 35.6777 21.9967C35.5905 21.9095 35.4722 21.8605 35.3488 21.8605H22.3256ZM5.11628 22.7907H17.2093V34.8837H5.11628V22.7907ZM22.7907 22.7907H34.8837V34.8837H22.7907V22.7907Z" fill="white"/>
<rect x="25.7139" y="7.85677" width="5.71429" height="5.71429" fill="white"/>
<rect x="25.7139" y="25.7135" width="5.71429" height="5.71429" fill="white"/>
<rect x="7.85718" y="25.7135" width="5.71429" height="5.71429" fill="white"/>
</svg>
