<svg width="40" height="40" viewBox="0 0 40 40" fill="none" xmlns="http://www.w3.org/2000/svg">
<path d="M39.375 30.625H28.125V28.125C28.125 27.9592 28.0592 27.8003 27.9419 27.6831C27.8247 27.5658 27.6658 27.5 27.5 27.5H25.625V26.25C25.625 25.7527 25.4275 25.2758 25.0758 24.9242C24.7242 24.5725 24.2473 24.375 23.75 24.375V23.5625C23.7467 22.5481 23.9767 21.5465 24.4221 20.6352C24.8675 19.7238 25.5164 18.927 26.3188 18.3063C27.4315 17.4463 28.2945 16.305 28.8188 15C30.2986 14.9819 31.7118 14.3813 32.7519 13.3284C33.7919 12.2754 34.3751 10.855 34.375 9.375V4.375C34.375 4.20924 34.3092 4.05027 34.1919 3.93306C34.0747 3.81585 33.9158 3.75 33.75 3.75H29.375V1.25H30C30.1658 1.25 30.3247 1.18415 30.4419 1.06694C30.5592 0.949732 30.625 0.79076 30.625 0.625C30.625 0.45924 30.5592 0.300268 30.4419 0.183058C30.3247 0.065848 30.1658 0 30 0H10C9.83424 0 9.67527 0.065848 9.55806 0.183058C9.44085 0.300268 9.375 0.45924 9.375 0.625C9.375 0.79076 9.44085 0.949732 9.55806 1.06694C9.67527 1.18415 9.83424 1.25 10 1.25H10.625V3.75H6.25C6.08424 3.75 5.92527 3.81585 5.80806 3.93306C5.69085 4.05027 5.625 4.20924 5.625 4.375V9.375C5.62493 10.8571 6.20983 12.2794 7.25259 13.3327C8.29534 14.386 9.71168 14.9852 11.1938 15C11.718 16.305 12.581 17.4463 13.6938 18.3063C14.4938 18.9282 15.1403 19.7256 15.5835 20.6369C16.0267 21.5482 16.2547 22.5491 16.25 23.5625V24.375C15.7527 24.375 15.2758 24.5725 14.9242 24.9242C14.5725 25.2758 14.375 25.7527 14.375 26.25V27.5H12.5C12.3342 27.5 12.1753 27.5658 12.0581 27.6831C11.9408 27.8003 11.875 27.9592 11.875 28.125V30.625H0.625C0.45924 30.625 0.300268 30.6908 0.183058 30.8081C0.065848 30.9253 0 31.0842 0 31.25V39.375C0 39.5408 0.065848 39.6997 0.183058 39.8169C0.300268 39.9342 0.45924 40 0.625 40H39.375C39.5408 40 39.6997 39.9342 39.8169 39.8169C39.9342 39.6997 40 39.5408 40 39.375V31.25C40 31.0842 39.9342 30.9253 39.8169 30.8081C39.6997 30.6908 39.5408 30.625 39.375 30.625ZM33.125 5V9.375C33.1306 10.4624 32.7311 11.5129 32.0043 12.3217C31.2775 13.1305 30.2755 13.6397 29.1937 13.75C29.3129 13.1954 29.3737 12.6298 29.375 12.0625V5H33.125ZM6.875 9.375V5H10.625V12.0625C10.6263 12.6298 10.6871 13.1954 10.8063 13.75C9.72446 13.6397 8.72251 13.1305 7.99572 12.3217C7.26893 11.5129 6.86939 10.4624 6.875 9.375ZM14.4438 17.3187C13.6414 16.698 12.9925 15.9012 12.5471 14.9898C12.1017 14.0785 11.8717 13.0769 11.875 12.0625V1.25H28.125V12.0625C28.1283 13.0769 27.8983 14.0785 27.4529 14.9898C27.0075 15.9012 26.3586 16.698 25.5562 17.3187C24.6023 18.0556 23.8305 19.0019 23.3006 20.0845C22.7707 21.1671 22.4967 22.3571 22.5 23.5625V24.375H17.5V23.5625C17.5033 22.3571 17.2293 21.1671 16.6994 20.0845C16.1695 19.0019 15.3977 18.0556 14.4438 17.3187ZM15.625 26.25C15.625 26.0842 15.6908 25.9253 15.8081 25.8081C15.9253 25.6908 16.0842 25.625 16.25 25.625H23.75C23.9158 25.625 24.0747 25.6908 24.1919 25.8081C24.3092 25.9253 24.375 26.0842 24.375 26.25V27.5H15.625V26.25ZM13.125 28.75H26.875V38.75H13.125V28.75ZM1.25 31.875H11.875V38.75H1.25V31.875ZM38.75 38.75H28.125V31.875H38.75V38.75Z" fill="white"/>
<path d="M26.25 10.625C26.25 9.38887 25.8834 8.1805 25.1967 7.15269C24.5099 6.12488 23.5338 5.3238 22.3918 4.85076C21.2497 4.37771 19.9931 4.25394 18.7807 4.49509C17.5683 4.73625 16.4547 5.33151 15.5806 6.20559C14.7065 7.07966 14.1113 8.19331 13.8701 9.40569C13.6289 10.6181 13.7527 11.8747 14.2258 13.0168C14.6988 14.1588 15.4999 15.1349 16.5277 15.8217C17.5555 16.5084 18.7639 16.875 20 16.875C21.6576 16.875 23.2473 16.2165 24.4194 15.0444C25.5915 13.8723 26.25 12.2826 26.25 10.625ZM15 10.625C15 9.6361 15.2932 8.6694 15.8427 7.84715C16.3921 7.02491 17.173 6.38404 18.0866 6.00561C19.0002 5.62717 20.0055 5.52815 20.9755 5.72108C21.9454 5.914 22.8363 6.39021 23.5355 7.08947C24.2348 7.78873 24.711 8.67965 24.9039 9.64955C25.0969 10.6195 24.9978 11.6248 24.6194 12.5384C24.241 13.4521 23.6001 14.2329 22.7779 14.7824C21.9556 15.3318 20.9889 15.625 20 15.625C18.6739 15.625 17.4022 15.0982 16.4645 14.1605C15.5268 13.2229 15 11.9511 15 10.625Z" fill="white"/>
<path d="M21.6565 13.6878C21.7422 13.7293 21.8363 13.7507 21.9315 13.7503C22.0667 13.7503 22.1983 13.7064 22.3065 13.6253C22.4012 13.5543 22.4738 13.4578 22.5158 13.3472C22.5579 13.2366 22.5676 13.1162 22.544 13.0003L22.2377 11.3065L23.5502 10.094C23.6362 10.0136 23.6978 9.91049 23.7277 9.79661C23.7577 9.68274 23.7549 9.56272 23.7196 9.45037C23.6843 9.33803 23.618 9.23794 23.5284 9.16162C23.4387 9.0853 23.3293 9.03587 23.2127 9.01902L21.3377 8.76277L20.5252 7.20027C20.4728 7.09789 20.3931 7.01198 20.295 6.95198C20.1968 6.89199 20.084 6.86024 19.969 6.86024C19.854 6.86024 19.7412 6.89199 19.643 6.95198C19.5449 7.01198 19.4652 7.09789 19.4127 7.20027L18.6315 8.75027L16.7877 9.00652C16.6712 9.02337 16.5618 9.0728 16.4721 9.14912C16.3825 9.22544 16.3162 9.32553 16.2809 9.43787C16.2456 9.55022 16.2428 9.67024 16.2728 9.78411C16.3027 9.89799 16.3642 10.0011 16.4502 10.0815L17.7627 11.294L17.4565 12.9878C17.4357 13.1014 17.4467 13.2185 17.4885 13.3262C17.5302 13.4339 17.601 13.528 17.6929 13.5979C17.7848 13.6678 17.8943 13.7109 18.0093 13.7223C18.1242 13.7338 18.2401 13.7132 18.344 13.6628L20.0002 12.8628L21.6565 13.6878ZM18.9065 12.0128L19.0502 11.2003C19.0691 11.0974 19.0618 10.9913 19.029 10.892C18.9963 10.7926 18.9391 10.703 18.8627 10.6315L18.2752 10.0878L19.119 10.0003C19.2179 9.98652 19.3121 9.94927 19.3936 9.89164C19.4752 9.834 19.5418 9.75767 19.5877 9.66902L20.0002 8.85027L20.4127 9.63777C20.4587 9.72642 20.5253 9.80275 20.6068 9.86039C20.6884 9.91802 20.7826 9.95527 20.8815 9.96902L21.7252 10.0878L21.1377 10.6315C21.0614 10.703 21.0042 10.7926 20.9714 10.892C20.9387 10.9913 20.9314 11.0974 20.9502 11.2003L21.094 12.0128L20.2815 11.6065C20.1943 11.5626 20.0979 11.5397 20.0002 11.5397C19.9026 11.5397 19.8062 11.5626 19.719 11.6065L18.9065 12.0128Z" fill="white"/>
</svg>
