<svg width="40" height="40" viewBox="0 0 40 40" fill="none" xmlns="http://www.w3.org/2000/svg">
<path d="M12.2321 26.2953H11.3611C11.2375 26.2953 11.1173 26.3383 11.0187 26.4177C10.9201 26.4972 10.8485 26.6088 10.8148 26.7355L9.80816 30.5196L9.16557 29.2961L9.78285 27.1947C9.80945 27.104 9.81568 27.0079 9.80104 26.9142C9.78639 26.8205 9.75127 26.7318 9.69853 26.6552C9.64579 26.5786 9.57689 26.5164 9.49741 26.4734C9.41793 26.4305 9.3301 26.4081 9.241 26.4081H7.0376C6.94852 26.4081 6.86072 26.4305 6.78125 26.4734C6.70179 26.5164 6.63289 26.5786 6.58011 26.6551C6.52736 26.7317 6.49224 26.8204 6.47759 26.9142C6.46293 27.0079 6.46916 27.104 6.49575 27.1947L7.11587 29.3059L6.58003 30.4094L5.68492 26.748C5.65329 26.6184 5.58221 26.5036 5.48283 26.4217C5.38345 26.3397 5.26139 26.2953 5.13578 26.2953H4.15331C3.57513 26.2952 3.00331 26.4239 2.47446 26.6731C1.94561 26.9224 1.47138 27.2866 1.08213 27.7425C0.692886 28.1984 0.397197 28.736 0.213996 29.3208C0.0307941 29.9056 -0.0358839 30.5247 0.0182305 31.1386V39.3947C0.0182305 39.7289 0.272688 40.0002 0.586035 40.0002L15.7987 39.9982C16.112 39.9982 16.3665 39.7272 16.3665 39.3927V31.1386C16.4206 30.5248 16.3539 29.9057 16.1707 29.3209C15.9876 28.7362 15.6919 28.1987 15.3027 27.7428C14.9136 27.2868 14.4395 26.9226 13.9107 26.6733C13.382 26.424 12.8102 26.2953 12.2321 26.2953ZM8.46822 27.6194L8.1393 28.7382L7.81079 27.6194H8.46822ZM15.2337 31.048C15.2318 31.0684 15.2305 31.0886 15.2305 31.1092V38.7875L1.15392 38.7893V31.1092C1.1539 31.0888 1.15292 31.0684 1.151 31.048C1.10858 30.6005 1.15463 30.1483 1.2862 29.7209C1.41777 29.2935 1.63192 28.9002 1.91483 28.5665C2.19774 28.2328 2.54313 27.966 2.9287 27.7835C3.31427 27.6009 3.73145 27.5066 4.15331 27.5066H4.69678L5.85421 32.2412C5.88196 32.3541 5.93972 32.4562 6.02055 32.535C6.10138 32.6138 6.20183 32.6661 6.30983 32.6855C6.42837 32.7066 6.55014 32.6872 6.65763 32.6298C6.76513 32.5725 6.8528 32.4803 6.90806 32.3665L8.07311 29.9689H8.21701L9.4854 32.3841C9.54027 32.4884 9.62289 32.5731 9.72285 32.6275C9.82282 32.6818 9.93563 32.7033 10.0471 32.6893C10.1585 32.6754 10.2635 32.6265 10.3489 32.5489C10.4343 32.4713 10.4963 32.3685 10.5269 32.2534L11.7899 27.5062H12.2319C12.6537 27.5063 13.0708 27.6008 13.4563 27.7835C13.8418 27.9662 14.1871 28.2331 14.4698 28.5669C14.7526 28.9006 14.9667 29.2938 15.0981 29.7212C15.2296 30.1486 15.2756 30.6006 15.2331 31.048H15.2337ZM8.07181 25.8948C10.2898 25.8922 12.0873 23.9753 12.0898 21.6096V18.172C12.088 16.3351 10.6922 14.8467 8.97008 14.8447H5.28259C4.60415 14.8457 4.05435 15.432 4.05346 16.1554V21.6097C4.05597 23.9753 5.85348 25.8922 8.07181 25.8948ZM8.07181 24.6838C6.5591 24.6818 5.30498 23.4347 5.19694 21.8258C5.42195 21.3644 6.46403 19.4346 8.312 19.0832C8.80967 19.2667 9.33228 19.3616 9.85886 19.364C10.228 19.3634 10.5957 19.315 10.9539 19.2197V21.61C10.952 23.3066 9.66272 24.6818 8.07181 24.6838ZM6.55212 18.0746C6.66019 18.1601 6.77041 18.2425 6.88267 18.3216C6.23921 18.6701 5.66429 19.1468 5.18899 19.7259V16.7332C5.59994 17.2281 6.05662 17.6775 6.55212 18.0746ZM10.9447 17.9651C9.74002 18.3841 8.50018 18.1013 7.25304 17.1214C6.85396 16.8039 6.48372 16.4471 6.1472 16.0557H8.97008C9.99035 16.0574 10.8437 16.8825 10.9447 17.9651ZM35.8474 29.3194H34.976C34.8678 29.3194 34.7618 29.3524 34.6705 29.4146C34.5793 29.4767 34.5066 29.5654 34.4611 29.6702L33.8169 31.1498C33.6395 31.5576 33.3546 31.9015 32.997 32.1395C32.6393 32.3776 32.2245 32.4994 31.803 32.4902C31.3815 32.4811 30.9716 32.3413 30.6234 32.0879C30.2751 31.8345 30.0036 31.4785 29.842 31.0633C29.8405 31.0592 29.8387 31.0551 29.8369 31.0512L29.2701 29.681C29.2257 29.5736 29.153 29.4824 29.0608 29.4182C28.9687 29.3541 28.8611 29.3199 28.751 29.3198H27.7685C27.1903 29.3198 26.6185 29.4485 26.0897 29.6978C25.5608 29.947 25.0867 30.3113 24.6975 30.7673C24.3082 31.2231 24.0125 31.7607 23.8294 32.3454C23.6462 32.9302 23.5796 33.5493 23.6338 34.1631V39.3947C23.6338 39.7289 23.8879 40.0002 24.2016 40.0002L39.4139 39.9982C39.7273 39.9982 39.9817 39.7272 39.9817 39.3927V34.1628C40.0359 33.549 39.9693 32.9299 39.7862 32.3451C39.6031 31.7604 39.3075 31.2228 38.9184 30.7669C38.5292 30.311 38.0551 29.9467 37.5263 29.6975C36.9976 29.4482 36.4258 29.3195 35.8477 29.3194H35.8474ZM38.8486 34.0722C38.8467 34.0925 38.8454 34.1128 38.8454 34.1334V38.7871L24.7688 38.7888V34.1334C24.7688 34.1128 24.7679 34.0924 24.7659 34.0722C24.7235 33.6246 24.7695 33.1725 24.9011 32.745C25.0326 32.3175 25.2467 31.9242 25.5295 31.5904C25.8125 31.2567 26.1579 30.99 26.5435 30.8074C26.9291 30.6248 27.3463 30.5305 27.7682 30.5304H28.3803L28.7957 31.5339C29.0429 32.1651 29.4569 32.706 29.9873 33.0908C30.5176 33.4755 31.1415 33.6874 31.7828 33.7007C32.4241 33.714 33.0552 33.5282 33.5992 33.1658C34.1432 32.8034 34.5767 32.2801 34.8467 31.6596L35.3381 30.5308H35.847C36.7 30.5311 37.5131 30.9163 38.085 31.5911C38.657 32.2659 38.9341 33.1673 38.8483 34.0722H38.8486ZM29.6383 18.1598C29.0949 18.5012 28.635 18.9748 28.2961 19.542C27.9572 20.1092 27.7489 20.7538 27.6883 21.4232C27.6791 21.5228 27.6719 22.6027 27.6684 24.6338C27.6684 27.0005 29.4675 28.919 31.6867 28.919C33.9056 28.919 35.7048 27.0004 35.7048 24.6337V21.8509C35.7045 21.116 35.5269 20.3936 35.1893 19.753C34.8516 19.1124 34.3652 18.5751 33.7767 18.1928C34.265 17.1609 34.0147 15.906 33.175 15.1755C32.3353 14.445 31.1322 14.4355 30.2824 15.1525C29.4326 15.8696 29.1646 17.1204 29.6383 18.1598ZM30.4506 22.154C29.9469 22.65 29.3961 23.0889 28.8072 23.4634C28.81 22.5608 28.8145 21.6691 28.8195 21.531C28.842 21.2972 28.8894 21.067 28.9608 20.8447C29.3971 21.3538 29.8987 21.7946 30.4506 22.154ZM31.6867 27.7076C30.1718 27.7057 28.9164 26.4548 28.8115 24.8433C29.8107 24.2975 30.7234 23.5881 31.5166 22.7409C32.4889 23.1714 33.5193 23.4342 34.5692 23.5194V24.6338C34.5672 26.3307 33.278 27.7057 31.6867 27.7076ZM34.5692 21.8507V22.302C31.5169 21.9911 30.0796 20.4487 29.5773 19.7489C29.9731 19.299 30.4865 18.9863 31.0509 18.8513C31.6153 18.7162 32.2047 18.7651 32.7428 18.9916C33.2809 19.2181 33.7427 19.6118 34.0684 20.1217C34.3941 20.6316 34.5685 21.234 34.5692 21.8509V21.8507ZM31.7155 15.8297C31.9221 15.8294 32.1251 15.8874 32.3039 15.9977C32.4828 16.108 32.6311 16.2667 32.7339 16.4578C32.8367 16.6489 32.8903 16.8656 32.8892 17.0859C32.8881 17.3062 32.8325 17.5224 32.7279 17.7124C32.3884 17.6149 32.0383 17.5655 31.6867 17.5654C31.352 17.5654 31.0186 17.6094 30.694 17.6965C30.5929 17.5062 30.5404 17.2909 30.5418 17.0722C30.5431 16.8535 30.5982 16.639 30.7016 16.4501C30.8049 16.261 30.9529 16.1042 31.1308 15.9953C31.3088 15.8864 31.5104 15.8292 31.7155 15.8293V15.8297ZM18.906 3.82733H21.4517C21.6006 3.82465 21.7426 3.75967 21.847 3.64641C21.9514 3.53315 22.0099 3.38066 22.0099 3.22182C22.0099 3.06298 21.9514 2.9105 21.847 2.79724C21.7426 2.68398 21.6006 2.619 21.4517 2.61632H18.906C18.7571 2.619 18.6151 2.68398 18.5107 2.79724C18.4063 2.9105 18.3477 3.06298 18.3477 3.22182C18.3477 3.38066 18.4063 3.53315 18.5107 3.64641C18.6151 3.75967 18.7571 3.82465 18.906 3.82733ZM26.7751 8.02332C26.9241 8.02063 27.0661 7.95566 27.1705 7.8424C27.2749 7.72913 27.3334 7.57665 27.3334 7.41781C27.3334 7.25897 27.2749 7.10649 27.1705 6.99323C27.0661 6.87996 26.9241 6.81499 26.7751 6.8123H18.906C18.7571 6.81499 18.6151 6.87996 18.5107 6.99323C18.4063 7.10649 18.3477 7.25897 18.3477 7.41781C18.3477 7.57665 18.4063 7.72913 18.5107 7.8424C18.6151 7.95566 18.7571 8.02063 18.906 8.02332H26.7751ZM18.906 5.80197H26.7751C27.0888 5.80197 27.343 5.53097 27.343 5.19647C27.343 4.86197 27.0888 4.59096 26.7751 4.59096H18.906C18.7571 4.59365 18.6151 4.65862 18.5107 4.77188C18.4063 4.88515 18.3477 5.03763 18.3477 5.19647C18.3477 5.35531 18.4063 5.50779 18.5107 5.62105C18.6151 5.73431 18.7571 5.79929 18.906 5.80197Z" fill="white"/>
<path d="M11.7497 15.4344C11.8426 15.4852 11.9468 15.5078 12.051 15.4997C12.1551 15.4915 12.2551 15.4529 12.34 15.3881L15.1312 13.2553H24.4148C24.7281 13.2553 24.9826 12.9843 24.9826 12.6498V10.787H25.9217L28.7128 12.9198C28.7976 12.9847 28.8976 13.0234 29.0017 13.0317C29.1058 13.0399 29.21 13.0173 29.3029 12.9664C29.3958 12.9155 29.4737 12.8384 29.5282 12.7433C29.5826 12.6483 29.6114 12.5391 29.6115 12.4278V0.605506C29.6115 0.271007 29.357 0 29.0437 0H16.6381C16.3244 0 16.0703 0.271007 16.0703 0.605506V2.46804H12.0092C11.6959 2.46804 11.4414 2.73905 11.4414 3.07355V14.8958C11.4414 15.0071 11.4702 15.1163 11.5246 15.2113C11.5789 15.3063 11.6568 15.3835 11.7496 15.4344H11.7497ZM17.2059 1.21101H28.4756V11.2488L26.435 9.68949C26.3385 9.6159 26.2228 9.57633 26.1042 9.57634H24.5528C24.4622 9.551 24.3669 9.551 24.2762 9.57634H17.2059V1.21101ZM12.577 3.67906H16.0703V10.1822C16.0703 10.5167 16.3244 10.7877 16.6381 10.7877H23.8469V12.0446H14.9483C14.8299 12.0446 14.7142 12.0845 14.6179 12.1581L12.577 13.7169V3.67906Z" fill="white"/>
</svg>
