<svg width="50" height="50" viewBox="0 0 50 50" fill="none" xmlns="http://www.w3.org/2000/svg">
<rect width="50" height="50" rx="5" fill="#289F91"/>
<rect width="50" height="50" rx="5" fill="url(#paint0_linear_2220_427)" fill-opacity="0.2"/>
<path d="M35.617 12.6211V10.4023C35.6173 10.0507 35.5496 9.70331 35.4186 9.38472C35.2877 9.06614 35.0967 8.78412 34.8593 8.55862C34.6218 8.33312 34.3436 8.16965 34.0444 8.07976C33.7452 7.98987 33.4322 7.97576 33.1277 8.03844L15.2553 11.7292C13.5957 12.0773 12 13.5855 12 15.5216" stroke="white" stroke-width="2" stroke-linecap="round" stroke-linejoin="round"/>
<path d="M40.0851 21.3224V15.5215C40.0851 14.7523 39.8161 14.0146 39.3373 13.4706C38.8585 12.9267 38.2091 12.6211 37.5319 12.6211H14.5532C13.876 12.6211 13.2266 12.9267 12.7478 13.4706C12.269 14.0146 12 14.7523 12 15.5215V35.0995C12 35.8688 12.269 36.6065 12.7478 37.1504C13.2266 37.6944 13.876 38 14.5532 38H37.5319C38.2091 38 38.8585 37.6944 39.3373 37.1504C39.8161 36.6065 40.0851 35.8688 40.0851 35.0995V29.2986" stroke="white" stroke-width="2" stroke-linecap="round" stroke-linejoin="round"/>
<path d="M33.0638 29.2985H40.7234C41.062 29.2985 41.3867 29.1457 41.6261 28.8737C41.8655 28.6018 42 28.2329 42 27.8483V22.7725C42 22.3879 41.8655 22.019 41.6261 21.747C41.3867 21.4751 41.062 21.3223 40.7234 21.3223H33.0638L31.1489 25.3104L33.0638 29.2985Z" stroke="white" stroke-width="2" stroke-linecap="round" stroke-linejoin="round"/>
<path d="M35.6169 26.7605C36.322 26.7605 36.8935 26.1112 36.8935 25.3102C36.8935 24.5093 36.322 23.86 35.6169 23.86C34.9119 23.86 34.3403 24.5093 34.3403 25.3102C34.3403 26.1112 34.9119 26.7605 35.6169 26.7605Z" fill="white"/>
<defs>
<linearGradient id="paint0_linear_2220_427" x1="0" y1="25" x2="19" y2="25" gradientUnits="userSpaceOnUse">
<stop stop-color="#91E0D7" stop-opacity="0"/>
<stop offset="1" stop-color="#A8EDE5"/>
</linearGradient>
</defs>
</svg>
