<svg width="42" height="42" viewBox="0 0 42 42" fill="none" xmlns="http://www.w3.org/2000/svg">
<mask id="path-1-outside-1_454_20292" maskUnits="userSpaceOnUse" x="0" y="0" width="42" height="42" fill="black">
<rect fill="white" width="42" height="42"/>
<path fill-rule="evenodd" clip-rule="evenodd" d="M22.465 31.8476L21.1296 32.0671C21.0252 32.0844 20.9286 32.1239 20.8502 32.1816C20.7718 32.2393 20.7145 32.313 20.6844 32.3947C20.536 32.7981 20.334 33.1878 20.0818 33.5569C20.0306 33.6314 20.0058 33.7157 20.0101 33.8007C20.0144 33.8857 20.0477 33.9681 20.1063 34.0391L20.858 34.9498L18.8682 36.5391L17.728 35.9391C17.6389 35.8922 17.5356 35.8656 17.429 35.8622C17.3224 35.8587 17.2167 35.8786 17.1231 35.9196C16.6612 36.121 16.1736 36.2824 15.6686 36.4009C15.5663 36.4248 15.4742 36.4706 15.402 36.5332C15.3299 36.5959 15.2804 36.6731 15.2591 36.7564L14.9842 37.8231H12.1702L11.8959 36.7564C11.8744 36.673 11.8249 36.5958 11.7526 36.5332C11.6804 36.4706 11.5881 36.4248 11.4858 36.4009C10.9806 36.282 10.4927 36.1207 10.0301 35.9196C9.93693 35.8785 9.83145 35.8587 9.72513 35.8621C9.6188 35.8656 9.51569 35.8922 9.42695 35.9391L8.28624 36.5391L6.29694 34.9498L7.04814 34.0391C7.10676 33.968 7.13997 33.8855 7.14419 33.8004C7.14841 33.7154 7.12347 33.631 7.07207 33.5564C6.82038 33.1873 6.61855 32.7979 6.47 32.3947C6.43988 32.313 6.38256 32.2394 6.30416 32.1817C6.22576 32.124 6.12922 32.0844 6.02484 32.0671L4.68937 31.8476V31.1929H8.68131C8.82489 32.1496 9.40249 33.031 10.3048 33.6705C11.2072 34.31 12.3717 34.6632 13.578 34.6632C14.7844 34.6632 15.9489 34.31 16.8512 33.6705C17.7536 33.031 18.3312 32.1496 18.4748 31.1929H22.4661V31.8476H22.465ZM23.0521 30.2556H17.9205C17.7649 30.2557 17.6157 30.3051 17.5056 30.393C17.3955 30.4809 17.3336 30.6001 17.3335 30.7244C17.3096 31.5074 16.9034 32.252 16.2016 32.799C15.4998 33.3461 14.5581 33.6523 13.5775 33.6523C12.5969 33.6523 11.6551 33.3461 10.9533 32.799C10.2515 32.252 9.84533 31.5074 9.82147 30.7244C9.82132 30.6002 9.7595 30.4811 9.64956 30.3932C9.53962 30.3053 9.39053 30.2558 9.23497 30.2556H4.10176C4.0247 30.2556 3.94839 30.2677 3.87719 30.2913C3.806 30.3148 3.74132 30.3494 3.68685 30.3929C3.63238 30.4365 3.58919 30.4882 3.55975 30.545C3.53031 30.6019 3.5152 30.6629 3.51527 30.7244V32.1C3.5156 32.2444 3.57818 32.3844 3.69248 32.4963C3.80679 32.6083 3.96585 32.6854 4.14294 32.7147L5.4517 32.9302C5.57094 33.2116 5.71333 33.4865 5.87794 33.7529L5.1412 34.6444C5.04203 34.7654 4.99797 34.9099 5.01641 35.0537C5.03485 35.1975 5.11467 35.3319 5.24248 35.4342L7.67804 37.3796C7.80612 37.4816 7.9743 37.5453 8.15428 37.56C8.33426 37.5746 8.51506 37.5393 8.66629 37.46L9.78252 36.8733C10.1161 37.0049 10.4602 37.1187 10.8125 37.2142L11.0818 38.2596C11.1189 38.401 11.2157 38.528 11.356 38.6192C11.4963 38.7105 11.6716 38.7605 11.8525 38.7609H15.2975C15.4783 38.7606 15.6535 38.7106 15.7937 38.6193C15.9338 38.528 16.0303 38.401 16.067 38.2596L16.3369 37.2142C16.6892 37.1187 17.0332 37.0048 17.3669 36.8733L18.4798 37.46C18.6312 37.5393 18.8122 37.5746 18.9923 37.5599C19.1725 37.5453 19.3408 37.4816 19.4691 37.3796L21.9047 35.4342C22.0325 35.3318 22.1123 35.1974 22.1306 35.0536C22.149 34.9098 22.1047 34.7653 22.0054 34.6444L21.2781 33.7529C21.4432 33.4866 21.5857 33.2117 21.7049 32.9302L23.0137 32.7147C23.1908 32.6854 23.35 32.6083 23.4644 32.4964C23.5788 32.3844 23.6415 32.2445 23.6419 32.1V30.7244C23.6419 30.6001 23.5801 30.4808 23.47 30.3929C23.3599 30.305 23.2106 30.2556 23.0549 30.2556H23.0521ZM32.1917 32.5516C30.6818 32.5516 29.2058 32.1941 27.9503 31.5242C26.6949 30.8542 25.7163 29.9019 25.1385 28.7878C24.5606 27.6736 24.4094 26.4476 24.7039 25.2648C24.9985 24.082 25.7255 22.9955 26.7932 22.1428C27.8608 21.29 29.2211 20.7093 30.702 20.474C32.1829 20.2388 33.7178 20.3596 35.1128 20.8211C36.5077 21.2827 37.6999 22.0642 38.5387 23.067C39.3775 24.0698 39.8251 25.2487 39.825 26.4547C39.8228 28.0711 39.0179 29.6209 37.5868 30.7639C36.1558 31.9069 34.2155 32.5498 32.1917 32.5516ZM32.3709 34.0702H32.0125V33.4889C32.0715 33.4889 32.131 33.4889 32.1917 33.4889C32.2524 33.4889 32.3113 33.4889 32.3709 33.4889V34.0716V34.0702ZM33.1399 40.0627H31.243C31.153 40.0616 31.0672 40.0326 31.0036 39.9819C30.94 39.9311 30.9037 39.8625 30.9024 39.7907V36.324H33.4799V39.7907C33.4786 39.8624 33.4424 39.9309 33.3789 39.9817C33.3154 40.0325 33.2297 40.0615 33.1399 40.0627ZM33.4799 35.008V35.3867H30.9046V35.008H33.4799ZM22.8234 28.1636H23.6469C23.2141 26.7817 23.3169 25.3274 23.9418 23.9933C24.5667 22.6591 25.6842 21.508 27.1464 20.6924V17.4836H22.8234V28.1627V28.1636ZM31.8934 12.4484H36.217V20.2C34.9731 19.6875 33.5936 19.4207 32.1939 19.4218C32.0932 19.4218 31.9931 19.4218 31.8934 19.4267V12.4484ZM37.3883 20.7778V11.9778C37.3878 11.8539 37.3259 11.7353 37.2162 11.6477C37.1066 11.5601 36.958 11.5107 36.803 11.5102H31.3047C31.1494 11.5103 31.0004 11.5596 30.8904 11.6472C30.7804 11.7348 30.7183 11.8537 30.7177 11.9778V19.5187C29.8854 19.6311 29.0779 19.8393 28.3205 20.1369V17.0147C28.3205 16.9531 28.3053 16.8921 28.2758 16.8352C28.2462 16.7783 28.2029 16.7266 28.1483 16.6831C28.0938 16.6396 28.029 16.6051 27.9577 16.5816C27.8864 16.5581 27.81 16.5461 27.7329 16.5462H22.2363C22.1593 16.5462 22.083 16.5582 22.0118 16.5818C21.9406 16.6053 21.8759 16.6398 21.8215 16.6833C21.767 16.7268 21.7238 16.7785 21.6943 16.8353C21.6649 16.8922 21.6498 16.9531 21.6498 17.0147V28.6311C21.6498 28.6927 21.6649 28.7536 21.6943 28.8105C21.7238 28.8674 21.767 28.9191 21.8214 28.9626C21.8759 29.0062 21.9406 29.0407 22.0118 29.0643C22.083 29.0879 22.1593 29.1 22.2363 29.1H24.0314C24.6058 30.2253 25.5342 31.213 26.7269 31.9674C27.9196 32.7219 29.336 33.2175 30.839 33.4062V34.0702H30.7934C30.5118 34.0705 30.2418 34.1599 30.0427 34.319C29.8437 34.4781 29.7318 34.6938 29.7317 34.9187V39.7907C29.7322 40.1109 29.8916 40.4179 30.1748 40.6445C30.458 40.8711 30.8421 40.9989 31.243 41H33.1399C33.5413 40.9995 33.926 40.872 34.2099 40.6453C34.4937 40.4186 34.6534 40.1113 34.654 39.7907V34.9187C34.6535 34.6937 34.5414 34.478 34.3422 34.319C34.1429 34.1599 33.8728 34.0705 33.5912 34.0702H33.5444V33.4062C35.2658 33.193 36.8694 32.5768 38.1521 31.6355C39.4349 30.6942 40.3393 29.4701 40.7508 28.1181C41.1623 26.7662 41.0625 25.3471 40.4639 24.0405C39.8654 22.7339 38.7951 21.5984 37.3883 20.7778ZM9.24499 5.04444V1.968C10.2213 2.07269 11.1273 2.43087 11.8236 2.98735C12.52 3.54383 12.9679 4.26774 13.0984 5.04756L9.24499 5.04444ZM8.65794 1C8.50234 1.00012 8.35317 1.04957 8.24319 1.13749C8.13322 1.22541 8.07145 1.34461 8.07145 1.46889V5.51644C8.07145 5.64072 8.13322 5.75992 8.24319 5.84784C8.35317 5.93576 8.50234 5.98522 8.65794 5.98533H13.7255C13.8811 5.98522 14.0303 5.93576 14.1402 5.84784C14.2502 5.75992 14.312 5.64072 14.312 5.51644C14.3105 4.31905 13.7144 3.17102 12.6544 2.32429C11.5944 1.47756 10.1571 1.00129 8.65794 1ZM2.17479 7.11556C2.17436 8.02436 2.60678 8.89926 3.38433 9.56276C4.16188 10.2263 5.22632 10.6287 6.3617 10.6883C7.49707 10.748 8.61834 10.4604 9.49801 9.884C10.3777 9.30758 10.9499 8.48546 11.0985 7.58444H6.65585C6.5002 7.58433 6.35097 7.53489 6.2409 7.44698C6.13084 7.35907 6.06895 7.23988 6.0688 7.11556V3.568C4.99188 3.68249 4.00353 4.10517 3.28721 4.75758C2.57088 5.40998 2.17523 6.24781 2.17368 7.11556H2.17479ZM10.6534 10.3093C11.1801 9.89092 11.5977 9.39319 11.882 8.84497C12.1662 8.29675 12.3115 7.70893 12.3093 7.11556C12.3093 6.9912 12.2475 6.87193 12.1374 6.784C12.0273 6.69607 11.878 6.64667 11.7223 6.64667H7.24234V3.068C7.24205 2.94387 7.18014 2.82491 7.0702 2.73718C6.96026 2.64945 6.81125 2.60012 6.65585 2.6C5.72587 2.59984 4.8102 2.78288 3.98995 3.13291C3.1697 3.48294 2.4702 3.98915 1.95342 4.6067C1.43665 5.22425 1.11854 5.93407 1.02729 6.67328C0.936037 7.41249 1.07446 8.15826 1.43029 8.84453C1.78612 9.5308 2.34837 10.1364 3.06724 10.6076C3.7861 11.0789 4.63939 11.4012 5.5515 11.5461C6.46361 11.691 7.40639 11.654 8.29631 11.4383C9.18623 11.2227 9.99582 10.8346 10.6534 10.3093ZM24.9067 12.6969L16.2295 8.34133C16.1224 8.28749 15.9964 8.26273 15.8703 8.27074C15.7441 8.27875 15.6246 8.3191 15.5295 8.38578L4.72387 16.0187C4.60721 16.1012 4.53636 16.2173 4.52692 16.3416C4.51747 16.4658 4.57021 16.5879 4.67351 16.6811C4.77682 16.7743 4.92223 16.8309 5.07777 16.8384C5.23331 16.846 5.38623 16.8038 5.50289 16.7213L15.9769 9.32178L24.6724 13.6867C24.784 13.743 24.9161 13.7677 25.0474 13.7566C25.1787 13.7456 25.3014 13.6995 25.3958 13.6258L33.2901 7.48889L32.9707 9.76711C32.9619 9.82829 32.9683 9.89027 32.9895 9.94948C33.0107 10.0087 33.0464 10.064 33.0944 10.1122C33.1424 10.1603 33.2019 10.2005 33.2694 10.2303C33.3368 10.2601 33.411 10.2789 33.4877 10.2858C33.5099 10.2869 33.5322 10.2869 33.5544 10.2858C33.6985 10.2857 33.8375 10.2432 33.9448 10.1663C34.0521 10.0895 34.1202 9.98374 34.1359 9.86933L34.6367 6.31644C34.6459 6.25051 34.6375 6.18377 34.6121 6.12062C34.5866 6.05747 34.5447 5.99935 34.4891 5.95008C34.4334 5.90082 34.3654 5.86154 34.2893 5.83483C34.2133 5.80811 34.1311 5.79458 34.048 5.79511L29.5708 5.83333C29.4183 5.83767 29.2739 5.88927 29.1682 5.9772C29.0625 6.06513 29.0039 6.18248 29.0047 6.30437C29.0055 6.42626 29.0657 6.54312 29.1725 6.63016C29.2793 6.71721 29.4244 6.7676 29.577 6.77067H29.5836L32.5612 6.74578L24.9067 12.6969ZM18.0791 28.1636H13.7555V14.9204H18.0791V28.1649V28.1636ZM13.169 13.9858H18.6662C18.8218 13.9859 18.9711 14.0353 19.0811 14.1232C19.1912 14.2112 19.2531 14.3303 19.2532 14.4547V28.6324C19.2532 28.7568 19.1914 28.8761 19.0813 28.964C18.9712 29.0519 18.8219 29.1013 18.6662 29.1013H13.169C13.092 29.1013 13.0157 29.0892 12.9445 29.0656C12.8733 29.0421 12.8086 29.0075 12.7541 28.964C12.6997 28.9204 12.6565 28.8687 12.627 28.8118C12.5976 28.755 12.5825 28.694 12.5826 28.6324V14.4547C12.5826 14.3304 12.6443 14.2112 12.7543 14.1233C12.8643 14.0353 13.0134 13.9859 13.169 13.9858ZM9.0124 28.1658H4.68881V20.1009H9.0124V28.1627V28.1658ZM4.10176 19.1636C4.02472 19.1635 3.94842 19.1756 3.87723 19.1991C3.80604 19.2226 3.74136 19.2571 3.68689 19.3006C3.63241 19.3441 3.58921 19.3958 3.55976 19.4527C3.53032 19.5095 3.5152 19.5705 3.51527 19.632V28.6311C3.51505 28.6927 3.53006 28.7537 3.55945 28.8107C3.58884 28.8676 3.63203 28.9193 3.68652 28.9629C3.74102 29.0065 3.80576 29.041 3.87702 29.0645C3.94828 29.0881 4.02465 29.1001 4.10176 29.1H9.59889C9.67596 29.1 9.75227 29.0879 9.82346 29.0643C9.89465 29.0407 9.95933 29.0062 10.0138 28.9626C10.0683 28.9191 10.1115 28.8674 10.1409 28.8105C10.1703 28.7536 10.1855 28.6927 10.1854 28.6311V19.632C10.1854 19.5705 10.1702 19.5096 10.1407 19.4527C10.1113 19.3959 10.0681 19.3443 10.0136 19.3008C9.95914 19.2573 9.89449 19.2228 9.82333 19.1992C9.75217 19.1757 9.67591 19.1636 9.59889 19.1636H4.10176Z"/>
</mask>
<path fill-rule="evenodd" clip-rule="evenodd" d="M22.465 31.8476L21.1296 32.0671C21.0252 32.0844 20.9286 32.1239 20.8502 32.1816C20.7718 32.2393 20.7145 32.313 20.6844 32.3947C20.536 32.7981 20.334 33.1878 20.0818 33.5569C20.0306 33.6314 20.0058 33.7157 20.0101 33.8007C20.0144 33.8857 20.0477 33.9681 20.1063 34.0391L20.858 34.9498L18.8682 36.5391L17.728 35.9391C17.6389 35.8922 17.5356 35.8656 17.429 35.8622C17.3224 35.8587 17.2167 35.8786 17.1231 35.9196C16.6612 36.121 16.1736 36.2824 15.6686 36.4009C15.5663 36.4248 15.4742 36.4706 15.402 36.5332C15.3299 36.5959 15.2804 36.6731 15.2591 36.7564L14.9842 37.8231H12.1702L11.8959 36.7564C11.8744 36.673 11.8249 36.5958 11.7526 36.5332C11.6804 36.4706 11.5881 36.4248 11.4858 36.4009C10.9806 36.282 10.4927 36.1207 10.0301 35.9196C9.93693 35.8785 9.83145 35.8587 9.72513 35.8621C9.6188 35.8656 9.51569 35.8922 9.42695 35.9391L8.28624 36.5391L6.29694 34.9498L7.04814 34.0391C7.10676 33.968 7.13997 33.8855 7.14419 33.8004C7.14841 33.7154 7.12347 33.631 7.07207 33.5564C6.82038 33.1873 6.61855 32.7979 6.47 32.3947C6.43988 32.313 6.38256 32.2394 6.30416 32.1817C6.22576 32.124 6.12922 32.0844 6.02484 32.0671L4.68937 31.8476V31.1929H8.68131C8.82489 32.1496 9.40249 33.031 10.3048 33.6705C11.2072 34.31 12.3717 34.6632 13.578 34.6632C14.7844 34.6632 15.9489 34.31 16.8512 33.6705C17.7536 33.031 18.3312 32.1496 18.4748 31.1929H22.4661V31.8476H22.465ZM23.0521 30.2556H17.9205C17.7649 30.2557 17.6157 30.3051 17.5056 30.393C17.3955 30.4809 17.3336 30.6001 17.3335 30.7244C17.3096 31.5074 16.9034 32.252 16.2016 32.799C15.4998 33.3461 14.5581 33.6523 13.5775 33.6523C12.5969 33.6523 11.6551 33.3461 10.9533 32.799C10.2515 32.252 9.84533 31.5074 9.82147 30.7244C9.82132 30.6002 9.7595 30.4811 9.64956 30.3932C9.53962 30.3053 9.39053 30.2558 9.23497 30.2556H4.10176C4.0247 30.2556 3.94839 30.2677 3.87719 30.2913C3.806 30.3148 3.74132 30.3494 3.68685 30.3929C3.63238 30.4365 3.58919 30.4882 3.55975 30.545C3.53031 30.6019 3.5152 30.6629 3.51527 30.7244V32.1C3.5156 32.2444 3.57818 32.3844 3.69248 32.4963C3.80679 32.6083 3.96585 32.6854 4.14294 32.7147L5.4517 32.9302C5.57094 33.2116 5.71333 33.4865 5.87794 33.7529L5.1412 34.6444C5.04203 34.7654 4.99797 34.9099 5.01641 35.0537C5.03485 35.1975 5.11467 35.3319 5.24248 35.4342L7.67804 37.3796C7.80612 37.4816 7.9743 37.5453 8.15428 37.56C8.33426 37.5746 8.51506 37.5393 8.66629 37.46L9.78252 36.8733C10.1161 37.0049 10.4602 37.1187 10.8125 37.2142L11.0818 38.2596C11.1189 38.401 11.2157 38.528 11.356 38.6192C11.4963 38.7105 11.6716 38.7605 11.8525 38.7609H15.2975C15.4783 38.7606 15.6535 38.7106 15.7937 38.6193C15.9338 38.528 16.0303 38.401 16.067 38.2596L16.3369 37.2142C16.6892 37.1187 17.0332 37.0048 17.3669 36.8733L18.4798 37.46C18.6312 37.5393 18.8122 37.5746 18.9923 37.5599C19.1725 37.5453 19.3408 37.4816 19.4691 37.3796L21.9047 35.4342C22.0325 35.3318 22.1123 35.1974 22.1306 35.0536C22.149 34.9098 22.1047 34.7653 22.0054 34.6444L21.2781 33.7529C21.4432 33.4866 21.5857 33.2117 21.7049 32.9302L23.0137 32.7147C23.1908 32.6854 23.35 32.6083 23.4644 32.4964C23.5788 32.3844 23.6415 32.2445 23.6419 32.1V30.7244C23.6419 30.6001 23.5801 30.4808 23.47 30.3929C23.3599 30.305 23.2106 30.2556 23.0549 30.2556H23.0521ZM32.1917 32.5516C30.6818 32.5516 29.2058 32.1941 27.9503 31.5242C26.6949 30.8542 25.7163 29.9019 25.1385 28.7878C24.5606 27.6736 24.4094 26.4476 24.7039 25.2648C24.9985 24.082 25.7255 22.9955 26.7932 22.1428C27.8608 21.29 29.2211 20.7093 30.702 20.474C32.1829 20.2388 33.7178 20.3596 35.1128 20.8211C36.5077 21.2827 37.6999 22.0642 38.5387 23.067C39.3775 24.0698 39.8251 25.2487 39.825 26.4547C39.8228 28.0711 39.0179 29.6209 37.5868 30.7639C36.1558 31.9069 34.2155 32.5498 32.1917 32.5516ZM32.3709 34.0702H32.0125V33.4889C32.0715 33.4889 32.131 33.4889 32.1917 33.4889C32.2524 33.4889 32.3113 33.4889 32.3709 33.4889V34.0716V34.0702ZM33.1399 40.0627H31.243C31.153 40.0616 31.0672 40.0326 31.0036 39.9819C30.94 39.9311 30.9037 39.8625 30.9024 39.7907V36.324H33.4799V39.7907C33.4786 39.8624 33.4424 39.9309 33.3789 39.9817C33.3154 40.0325 33.2297 40.0615 33.1399 40.0627ZM33.4799 35.008V35.3867H30.9046V35.008H33.4799ZM22.8234 28.1636H23.6469C23.2141 26.7817 23.3169 25.3274 23.9418 23.9933C24.5667 22.6591 25.6842 21.508 27.1464 20.6924V17.4836H22.8234V28.1627V28.1636ZM31.8934 12.4484H36.217V20.2C34.9731 19.6875 33.5936 19.4207 32.1939 19.4218C32.0932 19.4218 31.9931 19.4218 31.8934 19.4267V12.4484ZM37.3883 20.7778V11.9778C37.3878 11.8539 37.3259 11.7353 37.2162 11.6477C37.1066 11.5601 36.958 11.5107 36.803 11.5102H31.3047C31.1494 11.5103 31.0004 11.5596 30.8904 11.6472C30.7804 11.7348 30.7183 11.8537 30.7177 11.9778V19.5187C29.8854 19.6311 29.0779 19.8393 28.3205 20.1369V17.0147C28.3205 16.9531 28.3053 16.8921 28.2758 16.8352C28.2462 16.7783 28.2029 16.7266 28.1483 16.6831C28.0938 16.6396 28.029 16.6051 27.9577 16.5816C27.8864 16.5581 27.81 16.5461 27.7329 16.5462H22.2363C22.1593 16.5462 22.083 16.5582 22.0118 16.5818C21.9406 16.6053 21.8759 16.6398 21.8215 16.6833C21.767 16.7268 21.7238 16.7785 21.6943 16.8353C21.6649 16.8922 21.6498 16.9531 21.6498 17.0147V28.6311C21.6498 28.6927 21.6649 28.7536 21.6943 28.8105C21.7238 28.8674 21.767 28.9191 21.8214 28.9626C21.8759 29.0062 21.9406 29.0407 22.0118 29.0643C22.083 29.0879 22.1593 29.1 22.2363 29.1H24.0314C24.6058 30.2253 25.5342 31.213 26.7269 31.9674C27.9196 32.7219 29.336 33.2175 30.839 33.4062V34.0702H30.7934C30.5118 34.0705 30.2418 34.1599 30.0427 34.319C29.8437 34.4781 29.7318 34.6938 29.7317 34.9187V39.7907C29.7322 40.1109 29.8916 40.4179 30.1748 40.6445C30.458 40.8711 30.8421 40.9989 31.243 41H33.1399C33.5413 40.9995 33.926 40.872 34.2099 40.6453C34.4937 40.4186 34.6534 40.1113 34.654 39.7907V34.9187C34.6535 34.6937 34.5414 34.478 34.3422 34.319C34.1429 34.1599 33.8728 34.0705 33.5912 34.0702H33.5444V33.4062C35.2658 33.193 36.8694 32.5768 38.1521 31.6355C39.4349 30.6942 40.3393 29.4701 40.7508 28.1181C41.1623 26.7662 41.0625 25.3471 40.4639 24.0405C39.8654 22.7339 38.7951 21.5984 37.3883 20.7778ZM9.24499 5.04444V1.968C10.2213 2.07269 11.1273 2.43087 11.8236 2.98735C12.52 3.54383 12.9679 4.26774 13.0984 5.04756L9.24499 5.04444ZM8.65794 1C8.50234 1.00012 8.35317 1.04957 8.24319 1.13749C8.13322 1.22541 8.07145 1.34461 8.07145 1.46889V5.51644C8.07145 5.64072 8.13322 5.75992 8.24319 5.84784C8.35317 5.93576 8.50234 5.98522 8.65794 5.98533H13.7255C13.8811 5.98522 14.0303 5.93576 14.1402 5.84784C14.2502 5.75992 14.312 5.64072 14.312 5.51644C14.3105 4.31905 13.7144 3.17102 12.6544 2.32429C11.5944 1.47756 10.1571 1.00129 8.65794 1ZM2.17479 7.11556C2.17436 8.02436 2.60678 8.89926 3.38433 9.56276C4.16188 10.2263 5.22632 10.6287 6.3617 10.6883C7.49707 10.748 8.61834 10.4604 9.49801 9.884C10.3777 9.30758 10.9499 8.48546 11.0985 7.58444H6.65585C6.5002 7.58433 6.35097 7.53489 6.2409 7.44698C6.13084 7.35907 6.06895 7.23988 6.0688 7.11556V3.568C4.99188 3.68249 4.00353 4.10517 3.28721 4.75758C2.57088 5.40998 2.17523 6.24781 2.17368 7.11556H2.17479ZM10.6534 10.3093C11.1801 9.89092 11.5977 9.39319 11.882 8.84497C12.1662 8.29675 12.3115 7.70893 12.3093 7.11556C12.3093 6.9912 12.2475 6.87193 12.1374 6.784C12.0273 6.69607 11.878 6.64667 11.7223 6.64667H7.24234V3.068C7.24205 2.94387 7.18014 2.82491 7.0702 2.73718C6.96026 2.64945 6.81125 2.60012 6.65585 2.6C5.72587 2.59984 4.8102 2.78288 3.98995 3.13291C3.1697 3.48294 2.4702 3.98915 1.95342 4.6067C1.43665 5.22425 1.11854 5.93407 1.02729 6.67328C0.936037 7.41249 1.07446 8.15826 1.43029 8.84453C1.78612 9.5308 2.34837 10.1364 3.06724 10.6076C3.7861 11.0789 4.63939 11.4012 5.5515 11.5461C6.46361 11.691 7.40639 11.654 8.29631 11.4383C9.18623 11.2227 9.99582 10.8346 10.6534 10.3093ZM24.9067 12.6969L16.2295 8.34133C16.1224 8.28749 15.9964 8.26273 15.8703 8.27074C15.7441 8.27875 15.6246 8.3191 15.5295 8.38578L4.72387 16.0187C4.60721 16.1012 4.53636 16.2173 4.52692 16.3416C4.51747 16.4658 4.57021 16.5879 4.67351 16.6811C4.77682 16.7743 4.92223 16.8309 5.07777 16.8384C5.23331 16.846 5.38623 16.8038 5.50289 16.7213L15.9769 9.32178L24.6724 13.6867C24.784 13.743 24.9161 13.7677 25.0474 13.7566C25.1787 13.7456 25.3014 13.6995 25.3958 13.6258L33.2901 7.48889L32.9707 9.76711C32.9619 9.82829 32.9683 9.89027 32.9895 9.94948C33.0107 10.0087 33.0464 10.064 33.0944 10.1122C33.1424 10.1603 33.2019 10.2005 33.2694 10.2303C33.3368 10.2601 33.411 10.2789 33.4877 10.2858C33.5099 10.2869 33.5322 10.2869 33.5544 10.2858C33.6985 10.2857 33.8375 10.2432 33.9448 10.1663C34.0521 10.0895 34.1202 9.98374 34.1359 9.86933L34.6367 6.31644C34.6459 6.25051 34.6375 6.18377 34.6121 6.12062C34.5866 6.05747 34.5447 5.99935 34.4891 5.95008C34.4334 5.90082 34.3654 5.86154 34.2893 5.83483C34.2133 5.80811 34.1311 5.79458 34.048 5.79511L29.5708 5.83333C29.4183 5.83767 29.2739 5.88927 29.1682 5.9772C29.0625 6.06513 29.0039 6.18248 29.0047 6.30437C29.0055 6.42626 29.0657 6.54312 29.1725 6.63016C29.2793 6.71721 29.4244 6.7676 29.577 6.77067H29.5836L32.5612 6.74578L24.9067 12.6969ZM18.0791 28.1636H13.7555V14.9204H18.0791V28.1649V28.1636ZM13.169 13.9858H18.6662C18.8218 13.9859 18.9711 14.0353 19.0811 14.1232C19.1912 14.2112 19.2531 14.3303 19.2532 14.4547V28.6324C19.2532 28.7568 19.1914 28.8761 19.0813 28.964C18.9712 29.0519 18.8219 29.1013 18.6662 29.1013H13.169C13.092 29.1013 13.0157 29.0892 12.9445 29.0656C12.8733 29.0421 12.8086 29.0075 12.7541 28.964C12.6997 28.9204 12.6565 28.8687 12.627 28.8118C12.5976 28.755 12.5825 28.694 12.5826 28.6324V14.4547C12.5826 14.3304 12.6443 14.2112 12.7543 14.1233C12.8643 14.0353 13.0134 13.9859 13.169 13.9858ZM9.0124 28.1658H4.68881V20.1009H9.0124V28.1627V28.1658ZM4.10176 19.1636C4.02472 19.1635 3.94842 19.1756 3.87723 19.1991C3.80604 19.2226 3.74136 19.2571 3.68689 19.3006C3.63241 19.3441 3.58921 19.3958 3.55976 19.4527C3.53032 19.5095 3.5152 19.5705 3.51527 19.632V28.6311C3.51505 28.6927 3.53006 28.7537 3.55945 28.8107C3.58884 28.8676 3.63203 28.9193 3.68652 28.9629C3.74102 29.0065 3.80576 29.041 3.87702 29.0645C3.94828 29.0881 4.02465 29.1001 4.10176 29.1H9.59889C9.67596 29.1 9.75227 29.0879 9.82346 29.0643C9.89465 29.0407 9.95933 29.0062 10.0138 28.9626C10.0683 28.9191 10.1115 28.8674 10.1409 28.8105C10.1703 28.7536 10.1855 28.6927 10.1854 28.6311V19.632C10.1854 19.5705 10.1702 19.5096 10.1407 19.4527C10.1113 19.3959 10.0681 19.3443 10.0136 19.3008C9.95914 19.2573 9.89449 19.2228 9.82333 19.1992C9.75217 19.1757 9.67591 19.1636 9.59889 19.1636H4.10176Z" fill="white"/>
<path fill-rule="evenodd" clip-rule="evenodd" d="M22.465 31.8476L21.1296 32.0671C21.0252 32.0844 20.9286 32.1239 20.8502 32.1816C20.7718 32.2393 20.7145 32.313 20.6844 32.3947C20.536 32.7981 20.334 33.1878 20.0818 33.5569C20.0306 33.6314 20.0058 33.7157 20.0101 33.8007C20.0144 33.8857 20.0477 33.9681 20.1063 34.0391L20.858 34.9498L18.8682 36.5391L17.728 35.9391C17.6389 35.8922 17.5356 35.8656 17.429 35.8622C17.3224 35.8587 17.2167 35.8786 17.1231 35.9196C16.6612 36.121 16.1736 36.2824 15.6686 36.4009C15.5663 36.4248 15.4742 36.4706 15.402 36.5332C15.3299 36.5959 15.2804 36.6731 15.2591 36.7564L14.9842 37.8231H12.1702L11.8959 36.7564C11.8744 36.673 11.8249 36.5958 11.7526 36.5332C11.6804 36.4706 11.5881 36.4248 11.4858 36.4009C10.9806 36.282 10.4927 36.1207 10.0301 35.9196C9.93693 35.8785 9.83145 35.8587 9.72513 35.8621C9.6188 35.8656 9.51569 35.8922 9.42695 35.9391L8.28624 36.5391L6.29694 34.9498L7.04814 34.0391C7.10676 33.968 7.13997 33.8855 7.14419 33.8004C7.14841 33.7154 7.12347 33.631 7.07207 33.5564C6.82038 33.1873 6.61855 32.7979 6.47 32.3947C6.43988 32.313 6.38256 32.2394 6.30416 32.1817C6.22576 32.124 6.12922 32.0844 6.02484 32.0671L4.68937 31.8476V31.1929H8.68131C8.82489 32.1496 9.40249 33.031 10.3048 33.6705C11.2072 34.31 12.3717 34.6632 13.578 34.6632C14.7844 34.6632 15.9489 34.31 16.8512 33.6705C17.7536 33.031 18.3312 32.1496 18.4748 31.1929H22.4661V31.8476H22.465ZM23.0521 30.2556H17.9205C17.7649 30.2557 17.6157 30.3051 17.5056 30.393C17.3955 30.4809 17.3336 30.6001 17.3335 30.7244C17.3096 31.5074 16.9034 32.252 16.2016 32.799C15.4998 33.3461 14.5581 33.6523 13.5775 33.6523C12.5969 33.6523 11.6551 33.3461 10.9533 32.799C10.2515 32.252 9.84533 31.5074 9.82147 30.7244C9.82132 30.6002 9.7595 30.4811 9.64956 30.3932C9.53962 30.3053 9.39053 30.2558 9.23497 30.2556H4.10176C4.0247 30.2556 3.94839 30.2677 3.87719 30.2913C3.806 30.3148 3.74132 30.3494 3.68685 30.3929C3.63238 30.4365 3.58919 30.4882 3.55975 30.545C3.53031 30.6019 3.5152 30.6629 3.51527 30.7244V32.1C3.5156 32.2444 3.57818 32.3844 3.69248 32.4963C3.80679 32.6083 3.96585 32.6854 4.14294 32.7147L5.4517 32.9302C5.57094 33.2116 5.71333 33.4865 5.87794 33.7529L5.1412 34.6444C5.04203 34.7654 4.99797 34.9099 5.01641 35.0537C5.03485 35.1975 5.11467 35.3319 5.24248 35.4342L7.67804 37.3796C7.80612 37.4816 7.9743 37.5453 8.15428 37.56C8.33426 37.5746 8.51506 37.5393 8.66629 37.46L9.78252 36.8733C10.1161 37.0049 10.4602 37.1187 10.8125 37.2142L11.0818 38.2596C11.1189 38.401 11.2157 38.528 11.356 38.6192C11.4963 38.7105 11.6716 38.7605 11.8525 38.7609H15.2975C15.4783 38.7606 15.6535 38.7106 15.7937 38.6193C15.9338 38.528 16.0303 38.401 16.067 38.2596L16.3369 37.2142C16.6892 37.1187 17.0332 37.0048 17.3669 36.8733L18.4798 37.46C18.6312 37.5393 18.8122 37.5746 18.9923 37.5599C19.1725 37.5453 19.3408 37.4816 19.4691 37.3796L21.9047 35.4342C22.0325 35.3318 22.1123 35.1974 22.1306 35.0536C22.149 34.9098 22.1047 34.7653 22.0054 34.6444L21.2781 33.7529C21.4432 33.4866 21.5857 33.2117 21.7049 32.9302L23.0137 32.7147C23.1908 32.6854 23.35 32.6083 23.4644 32.4964C23.5788 32.3844 23.6415 32.2445 23.6419 32.1V30.7244C23.6419 30.6001 23.5801 30.4808 23.47 30.3929C23.3599 30.305 23.2106 30.2556 23.0549 30.2556H23.0521ZM32.1917 32.5516C30.6818 32.5516 29.2058 32.1941 27.9503 31.5242C26.6949 30.8542 25.7163 29.9019 25.1385 28.7878C24.5606 27.6736 24.4094 26.4476 24.7039 25.2648C24.9985 24.082 25.7255 22.9955 26.7932 22.1428C27.8608 21.29 29.2211 20.7093 30.702 20.474C32.1829 20.2388 33.7178 20.3596 35.1128 20.8211C36.5077 21.2827 37.6999 22.0642 38.5387 23.067C39.3775 24.0698 39.8251 25.2487 39.825 26.4547C39.8228 28.0711 39.0179 29.6209 37.5868 30.7639C36.1558 31.9069 34.2155 32.5498 32.1917 32.5516ZM32.3709 34.0702H32.0125V33.4889C32.0715 33.4889 32.131 33.4889 32.1917 33.4889C32.2524 33.4889 32.3113 33.4889 32.3709 33.4889V34.0716V34.0702ZM33.1399 40.0627H31.243C31.153 40.0616 31.0672 40.0326 31.0036 39.9819C30.94 39.9311 30.9037 39.8625 30.9024 39.7907V36.324H33.4799V39.7907C33.4786 39.8624 33.4424 39.9309 33.3789 39.9817C33.3154 40.0325 33.2297 40.0615 33.1399 40.0627ZM33.4799 35.008V35.3867H30.9046V35.008H33.4799ZM22.8234 28.1636H23.6469C23.2141 26.7817 23.3169 25.3274 23.9418 23.9933C24.5667 22.6591 25.6842 21.508 27.1464 20.6924V17.4836H22.8234V28.1627V28.1636ZM31.8934 12.4484H36.217V20.2C34.9731 19.6875 33.5936 19.4207 32.1939 19.4218C32.0932 19.4218 31.9931 19.4218 31.8934 19.4267V12.4484ZM37.3883 20.7778V11.9778C37.3878 11.8539 37.3259 11.7353 37.2162 11.6477C37.1066 11.5601 36.958 11.5107 36.803 11.5102H31.3047C31.1494 11.5103 31.0004 11.5596 30.8904 11.6472C30.7804 11.7348 30.7183 11.8537 30.7177 11.9778V19.5187C29.8854 19.6311 29.0779 19.8393 28.3205 20.1369V17.0147C28.3205 16.9531 28.3053 16.8921 28.2758 16.8352C28.2462 16.7783 28.2029 16.7266 28.1483 16.6831C28.0938 16.6396 28.029 16.6051 27.9577 16.5816C27.8864 16.5581 27.81 16.5461 27.7329 16.5462H22.2363C22.1593 16.5462 22.083 16.5582 22.0118 16.5818C21.9406 16.6053 21.8759 16.6398 21.8215 16.6833C21.767 16.7268 21.7238 16.7785 21.6943 16.8353C21.6649 16.8922 21.6498 16.9531 21.6498 17.0147V28.6311C21.6498 28.6927 21.6649 28.7536 21.6943 28.8105C21.7238 28.8674 21.767 28.9191 21.8214 28.9626C21.8759 29.0062 21.9406 29.0407 22.0118 29.0643C22.083 29.0879 22.1593 29.1 22.2363 29.1H24.0314C24.6058 30.2253 25.5342 31.213 26.7269 31.9674C27.9196 32.7219 29.336 33.2175 30.839 33.4062V34.0702H30.7934C30.5118 34.0705 30.2418 34.1599 30.0427 34.319C29.8437 34.4781 29.7318 34.6938 29.7317 34.9187V39.7907C29.7322 40.1109 29.8916 40.4179 30.1748 40.6445C30.458 40.8711 30.8421 40.9989 31.243 41H33.1399C33.5413 40.9995 33.926 40.872 34.2099 40.6453C34.4937 40.4186 34.6534 40.1113 34.654 39.7907V34.9187C34.6535 34.6937 34.5414 34.478 34.3422 34.319C34.1429 34.1599 33.8728 34.0705 33.5912 34.0702H33.5444V33.4062C35.2658 33.193 36.8694 32.5768 38.1521 31.6355C39.4349 30.6942 40.3393 29.4701 40.7508 28.1181C41.1623 26.7662 41.0625 25.3471 40.4639 24.0405C39.8654 22.7339 38.7951 21.5984 37.3883 20.7778ZM9.24499 5.04444V1.968C10.2213 2.07269 11.1273 2.43087 11.8236 2.98735C12.52 3.54383 12.9679 4.26774 13.0984 5.04756L9.24499 5.04444ZM8.65794 1C8.50234 1.00012 8.35317 1.04957 8.24319 1.13749C8.13322 1.22541 8.07145 1.34461 8.07145 1.46889V5.51644C8.07145 5.64072 8.13322 5.75992 8.24319 5.84784C8.35317 5.93576 8.50234 5.98522 8.65794 5.98533H13.7255C13.8811 5.98522 14.0303 5.93576 14.1402 5.84784C14.2502 5.75992 14.312 5.64072 14.312 5.51644C14.3105 4.31905 13.7144 3.17102 12.6544 2.32429C11.5944 1.47756 10.1571 1.00129 8.65794 1ZM2.17479 7.11556C2.17436 8.02436 2.60678 8.89926 3.38433 9.56276C4.16188 10.2263 5.22632 10.6287 6.3617 10.6883C7.49707 10.748 8.61834 10.4604 9.49801 9.884C10.3777 9.30758 10.9499 8.48546 11.0985 7.58444H6.65585C6.5002 7.58433 6.35097 7.53489 6.2409 7.44698C6.13084 7.35907 6.06895 7.23988 6.0688 7.11556V3.568C4.99188 3.68249 4.00353 4.10517 3.28721 4.75758C2.57088 5.40998 2.17523 6.24781 2.17368 7.11556H2.17479ZM10.6534 10.3093C11.1801 9.89092 11.5977 9.39319 11.882 8.84497C12.1662 8.29675 12.3115 7.70893 12.3093 7.11556C12.3093 6.9912 12.2475 6.87193 12.1374 6.784C12.0273 6.69607 11.878 6.64667 11.7223 6.64667H7.24234V3.068C7.24205 2.94387 7.18014 2.82491 7.0702 2.73718C6.96026 2.64945 6.81125 2.60012 6.65585 2.6C5.72587 2.59984 4.8102 2.78288 3.98995 3.13291C3.1697 3.48294 2.4702 3.98915 1.95342 4.6067C1.43665 5.22425 1.11854 5.93407 1.02729 6.67328C0.936037 7.41249 1.07446 8.15826 1.43029 8.84453C1.78612 9.5308 2.34837 10.1364 3.06724 10.6076C3.7861 11.0789 4.63939 11.4012 5.5515 11.5461C6.46361 11.691 7.40639 11.654 8.29631 11.4383C9.18623 11.2227 9.99582 10.8346 10.6534 10.3093ZM24.9067 12.6969L16.2295 8.34133C16.1224 8.28749 15.9964 8.26273 15.8703 8.27074C15.7441 8.27875 15.6246 8.3191 15.5295 8.38578L4.72387 16.0187C4.60721 16.1012 4.53636 16.2173 4.52692 16.3416C4.51747 16.4658 4.57021 16.5879 4.67351 16.6811C4.77682 16.7743 4.92223 16.8309 5.07777 16.8384C5.23331 16.846 5.38623 16.8038 5.50289 16.7213L15.9769 9.32178L24.6724 13.6867C24.784 13.743 24.9161 13.7677 25.0474 13.7566C25.1787 13.7456 25.3014 13.6995 25.3958 13.6258L33.2901 7.48889L32.9707 9.76711C32.9619 9.82829 32.9683 9.89027 32.9895 9.94948C33.0107 10.0087 33.0464 10.064 33.0944 10.1122C33.1424 10.1603 33.2019 10.2005 33.2694 10.2303C33.3368 10.2601 33.411 10.2789 33.4877 10.2858C33.5099 10.2869 33.5322 10.2869 33.5544 10.2858C33.6985 10.2857 33.8375 10.2432 33.9448 10.1663C34.0521 10.0895 34.1202 9.98374 34.1359 9.86933L34.6367 6.31644C34.6459 6.25051 34.6375 6.18377 34.6121 6.12062C34.5866 6.05747 34.5447 5.99935 34.4891 5.95008C34.4334 5.90082 34.3654 5.86154 34.2893 5.83483C34.2133 5.80811 34.1311 5.79458 34.048 5.79511L29.5708 5.83333C29.4183 5.83767 29.2739 5.88927 29.1682 5.9772C29.0625 6.06513 29.0039 6.18248 29.0047 6.30437C29.0055 6.42626 29.0657 6.54312 29.1725 6.63016C29.2793 6.71721 29.4244 6.7676 29.577 6.77067H29.5836L32.5612 6.74578L24.9067 12.6969ZM18.0791 28.1636H13.7555V14.9204H18.0791V28.1649V28.1636ZM13.169 13.9858H18.6662C18.8218 13.9859 18.9711 14.0353 19.0811 14.1232C19.1912 14.2112 19.2531 14.3303 19.2532 14.4547V28.6324C19.2532 28.7568 19.1914 28.8761 19.0813 28.964C18.9712 29.0519 18.8219 29.1013 18.6662 29.1013H13.169C13.092 29.1013 13.0157 29.0892 12.9445 29.0656C12.8733 29.0421 12.8086 29.0075 12.7541 28.964C12.6997 28.9204 12.6565 28.8687 12.627 28.8118C12.5976 28.755 12.5825 28.694 12.5826 28.6324V14.4547C12.5826 14.3304 12.6443 14.2112 12.7543 14.1233C12.8643 14.0353 13.0134 13.9859 13.169 13.9858ZM9.0124 28.1658H4.68881V20.1009H9.0124V28.1627V28.1658ZM4.10176 19.1636C4.02472 19.1635 3.94842 19.1756 3.87723 19.1991C3.80604 19.2226 3.74136 19.2571 3.68689 19.3006C3.63241 19.3441 3.58921 19.3958 3.55976 19.4527C3.53032 19.5095 3.5152 19.5705 3.51527 19.632V28.6311C3.51505 28.6927 3.53006 28.7537 3.55945 28.8107C3.58884 28.8676 3.63203 28.9193 3.68652 28.9629C3.74102 29.0065 3.80576 29.041 3.87702 29.0645C3.94828 29.0881 4.02465 29.1001 4.10176 29.1H9.59889C9.67596 29.1 9.75227 29.0879 9.82346 29.0643C9.89465 29.0407 9.95933 29.0062 10.0138 28.9626C10.0683 28.9191 10.1115 28.8674 10.1409 28.8105C10.1703 28.7536 10.1855 28.6927 10.1854 28.6311V19.632C10.1854 19.5705 10.1702 19.5096 10.1407 19.4527C10.1113 19.3959 10.0681 19.3443 10.0136 19.3008C9.95914 19.2573 9.89449 19.2228 9.82333 19.1992C9.75217 19.1757 9.67591 19.1636 9.59889 19.1636H4.10176Z" stroke="white" stroke-width="0.6" mask="url(#path-1-outside-1_454_20292)"/>
<rect x="4.77344" y="20.355" width="3.77359" height="7.74193" fill="white"/>
<rect x="13.8301" y="15.1936" width="3.77359" height="12.9032" fill="white"/>
</svg>
