<svg width="20" height="20" viewBox="0 0 20 20" fill="none" xmlns="http://www.w3.org/2000/svg">
<path d="M5.64175 5.39948C5.64175 5.18895 5.4711 5.01823 5.2605 5.01823C5.04996 5.01823 4.87925 5.18894 4.87925 5.39948V7.27496C4.87925 8.39142 5.68991 9.31834 6.75474 9.49961V15.0447C6.75474 15.2553 6.92539 15.426 7.13599 15.426C7.34651 15.426 7.51724 15.2553 7.51724 15.0447V9.49961C8.58206 9.31834 9.39267 8.39141 9.39267 7.27496V5.39948C9.39267 5.18895 9.22202 5.01823 9.01142 5.01823C8.80088 5.01823 8.63017 5.18894 8.63017 5.39948V7.27496C8.63017 8.10022 7.96118 8.7692 7.13599 8.7692C6.31073 8.7692 5.64175 8.10021 5.64175 7.27496V5.39948Z" fill="#289F91" stroke="#289F91" stroke-width="0.2"/>
<path d="M7.51724 5.39948C7.51724 5.18894 7.34652 5.01823 7.13599 5.01823C6.92538 5.01823 6.75474 5.18895 6.75474 5.39948V7.27496C6.75474 7.48548 6.92538 7.65621 7.13599 7.65621C7.34652 7.65621 7.51724 7.4855 7.51724 7.27496V5.39948Z" fill="#289F91" stroke="#289F91" stroke-width="0.2"/>
<path d="M15.0603 6.59734L15.1551 6.56557C15.223 6.76802 15.2553 7.03461 15.2716 7.30237L15.0603 6.59734ZM15.0603 6.59734L15.1551 6.56557C14.8442 5.63761 14.2009 4.74082 13.0301 4.74082C11.8763 4.74082 11.1478 5.59522 10.8969 6.59378M15.0603 6.59734L10.8969 6.59378M14.5106 7.3488C14.5256 7.59575 14.5272 7.88236 14.5207 8.17586V8.17587C14.5037 8.94928 13.841 9.56341 13.0204 9.56341C12.2052 9.56341 11.5506 8.95875 11.5379 8.19772C11.5285 7.64158 11.5526 7.11306 11.6364 6.7796C11.8328 5.99796 12.3376 5.50332 13.0301 5.50332C13.7058 5.50332 14.1599 5.99507 14.4321 6.80781L14.4321 6.80783C14.4666 6.91048 14.495 7.09347 14.5106 7.3488ZM14.5106 7.3488L14.6104 7.34271M14.5106 7.3488C14.5106 7.3488 14.5106 7.3488 14.5106 7.34881L14.6104 7.34271M14.6104 7.34271C14.6257 7.59347 14.6272 7.8831 14.6207 8.17808L14.6104 7.34271ZM10.8969 6.59378C10.7864 7.03339 10.766 7.65053 10.7754 8.21052M10.8969 6.59378L10.7754 8.21052M10.7754 8.21052C10.7938 9.30555 11.6293 10.133 12.6489 10.2964M10.7754 8.21052L12.6489 10.2964M12.6489 10.2964V15.0446C12.6489 15.2552 12.8196 15.4259 13.0301 15.4259C13.2407 15.4259 13.4114 15.2552 13.4114 15.0446V10.2933C14.4316 10.1212 15.2589 9.28541 15.2831 8.19272C15.2898 7.88794 15.2884 7.57837 15.2716 7.30237L12.6489 10.2964Z" fill="#289F91" stroke="#289F91" stroke-width="0.2"/>
<path d="M3.8125 1.6625H16.1875C17.3749 1.6625 18.3375 2.62509 18.3375 3.8125V16.1875C18.3375 17.3749 17.3749 18.3375 16.1875 18.3375H3.8125C2.62509 18.3375 1.6625 17.3749 1.6625 16.1875V3.8125C1.6625 2.62509 2.62509 1.6625 3.8125 1.6625ZM3.8125 0.9C2.20397 0.9 0.9 2.20397 0.9 3.8125V16.1875C0.9 17.796 2.20397 19.1 3.8125 19.1H16.1875C17.796 19.1 19.1 17.796 19.1 16.1875V3.8125C19.1 2.20397 17.796 0.9 16.1875 0.9H3.8125Z" fill="#289F91" stroke="#289F91" stroke-width="0.2"/>
</svg>
