<svg width="50" height="50" viewBox="0 0 50 50" fill="none" xmlns="http://www.w3.org/2000/svg">
<rect width="50" height="50" rx="5" fill="#289F91"/>
<rect width="50" height="50" rx="5" fill="url(#paint0_linear_2220_420)" fill-opacity="0.2"/>
<path d="M39.5328 24.6138L33.7931 21.8138L30.9566 14.2828C30.1891 12.2552 28.7208 11 27.1524 11H16.8076C15.2058 11 13.7709 12.2552 13.0033 14.2828L10.0334 22.1517V22.2C10 22.2483 10 22.2966 10 22.3448V34.1724C10 34.7034 10.3003 35.1379 10.6674 35.1379H13.4038C13.7041 37.3586 15.0723 39 16.6741 39C18.2759 39 19.644 37.3586 19.9444 35.1379H30.089C30.3893 37.3586 31.7575 39 33.3593 39C34.9611 39 36.3293 37.3586 36.6296 35.1379H39.3326C39.6997 35.1379 40 34.7034 40 34.1724V25.531C40 25.0966 39.8331 24.7586 39.5328 24.6138ZM20.9789 12.9793H27.1524C28.2536 12.9793 29.2547 13.8483 29.7887 15.2483L32.1913 21.669H20.9789V12.9793ZM14.1713 15.2483C14.7052 13.8483 15.7063 12.9793 16.8076 12.9793H19.644V21.669H11.7686L14.1713 15.2483ZM13.3704 33.2552H11.3014V31.3241H13.9711C13.6707 31.9034 13.4705 32.531 13.3704 33.2552ZM16.6407 37.1172C15.5395 37.1172 14.6385 35.8138 14.6385 34.2207C14.6385 32.6276 15.5395 31.3241 16.6407 31.3241C17.7419 31.3241 18.6429 32.6276 18.6429 34.2207C18.6429 35.8138 17.7419 37.1172 16.6407 37.1172ZM33.3259 37.1172C32.2247 37.1172 31.3237 35.8138 31.3237 34.2207C31.3237 32.6276 32.2247 31.3241 33.3259 31.3241C34.4271 31.3241 35.3281 32.6276 35.3281 34.2207C35.3281 35.8138 34.4271 37.1172 33.3259 37.1172ZM38.6652 33.2552H36.5962C36.2959 31.0345 34.9277 29.3931 33.3259 29.3931C31.7241 29.3931 30.356 31.0345 30.0556 33.2552H19.911C19.6107 31.0345 18.2425 29.3931 16.6407 29.3931H11.3014V23.6H33.2258L38.6652 26.2069V33.2552Z" fill="white"/>
<defs>
<linearGradient id="paint0_linear_2220_420" x1="0" y1="25" x2="19" y2="25" gradientUnits="userSpaceOnUse">
<stop stop-color="#91E0D7" stop-opacity="0"/>
<stop offset="1" stop-color="#A8EDE5"/>
</linearGradient>
</defs>
</svg>
