<svg width="31" height="31" viewBox="0 0 31 31" fill="none" xmlns="http://www.w3.org/2000/svg">
<path d="M15.504 2.67029e-05C17.5397 -0.00376701 19.5559 0.394821 21.437 1.17275C23.3182 1.95068 25.0269 3.0927 26.4653 4.53314C32.5103 10.5781 32.5103 20.4132 26.4653 26.4582C25.0291 27.9024 23.3207 29.0475 21.4389 29.8271C19.5573 30.6067 17.5396 31.0053 15.5028 30.9999C11.3616 30.9999 7.46847 29.3876 4.54151 26.4582C1.61328 23.5299 -0.000247955 19.6369 -0.000247955 15.4957C-0.000247955 11.3545 1.61209 7.46137 4.54151 4.53314C5.98012 3.0927 7.68919 1.95068 9.57044 1.17275C11.4518 0.394821 13.4682 -0.00369644 15.504 2.67029e-05ZM15.5028 28.5195C17.2138 28.5243 18.9087 28.1896 20.4895 27.5348C22.0702 26.8799 23.5053 25.9179 24.7116 24.7045C27.171 22.245 28.5254 18.9746 28.5254 15.4957C28.5254 12.0168 27.171 8.74747 24.7116 6.28682C19.6341 1.20928 11.3715 1.20802 6.29519 6.28682C3.8358 8.74621 2.48022 12.0168 2.48022 15.4957C2.48022 18.9746 3.8346 22.2438 6.29519 24.7045C7.50156 25.9175 8.93645 26.8793 10.5169 27.5341C12.0974 28.189 13.792 28.5239 15.5028 28.5195Z" fill="black"/>
<path d="M20.7654 8.99482C21.0109 8.99426 21.2511 9.06668 21.4553 9.20282C21.6596 9.33903 21.8189 9.53285 21.9128 9.75968C22.0068 9.98651 22.0312 10.2362 21.983 10.4769C21.9349 10.7177 21.8162 10.9387 21.6422 11.1119L11.1187 21.6354C11.0036 21.7505 10.8669 21.8418 10.7164 21.9042C10.566 21.9665 10.4047 21.9985 10.2419 21.9985C10.0791 21.9985 9.91778 21.9665 9.76738 21.9042C9.61691 21.8418 9.4802 21.7505 9.36507 21.6354C9.24993 21.5202 9.15854 21.3835 9.09623 21.233C9.03392 21.0826 9.00181 20.9213 9.00181 20.7585C9.00181 20.5957 9.03392 20.4344 9.09623 20.2839C9.15854 20.1335 9.24993 19.9968 9.36507 19.8817L19.8885 9.35814C20.0034 9.24258 20.14 9.15098 20.2906 9.0886C20.441 9.02622 20.6025 8.99433 20.7654 8.99482Z" fill="black"/>
<path d="M10.2412 8.99482C10.4041 8.99461 10.5654 9.02664 10.7158 9.08902C10.8664 9.15133 11.003 9.24287 11.118 9.35814L21.6415 19.8817C21.7567 19.9968 21.848 20.1335 21.9103 20.2839C21.9726 20.4344 22.0047 20.5957 22.0047 20.7585C22.0047 20.9213 21.9726 21.0826 21.9103 21.233C21.848 21.3835 21.7567 21.5202 21.6415 21.6354C21.5263 21.7505 21.3896 21.8418 21.2392 21.9042C21.0888 21.9665 20.9275 21.9985 20.7646 21.9985C20.6018 21.9985 20.4406 21.9665 20.2901 21.9042C20.1396 21.8418 20.0029 21.7505 19.8878 21.6354L9.36434 11.1119C9.19033 10.9387 9.07168 10.7177 9.02356 10.4769C8.97537 10.2362 8.99982 9.98651 9.09374 9.75968C9.18773 9.53285 9.34692 9.33904 9.5512 9.20282C9.75555 9.06668 9.99566 8.99426 10.2412 8.99482Z" fill="black"/>
</svg>
