<svg width="16" height="18" viewBox="0 0 16 18" fill="none" xmlns="http://www.w3.org/2000/svg">
<path d="M9.52374 15.8906C9.31346 15.8906 9.14279 16.0481 9.14279 16.2422C9.14279 16.4362 9.31346 16.5938 9.52374 16.5938C9.73403 16.5938 9.9047 16.4362 9.9047 16.2422C9.9047 16.0481 9.73403 15.8906 9.52374 15.8906Z" fill="#289F91"/>
<path d="M14.8571 1.61719H13.7143V1.05469C13.7143 0.473133 13.2016 0 12.5714 0H3.42857C2.7984 0 2.28571 0.473133 2.28571 1.05469V1.61719H1.14286C0.512686 1.61719 0 2.09032 0 2.67188C0 4.95903 1.1597 6.63986 3.04107 7.10782C3.68602 8.41792 4.70575 9.53163 6.00008 10.3364C6.29821 10.5218 6.47619 10.8391 6.47619 11.1853V13.1224C6.21505 13.1842 5.97547 13.3095 5.77977 13.4901C5.49189 13.7558 5.33333 14.1089 5.33333 14.4844H4.95238C4.32221 14.4844 3.80952 14.9575 3.80952 15.5391V17.6484C3.80952 17.8426 3.98011 18 4.19048 18H11.8095C12.0199 18 12.1905 17.8426 12.1905 17.6484V15.5391C12.1905 14.9575 11.6778 14.4844 11.0476 14.4844H10.6667C10.6667 13.8303 10.1803 13.2791 9.52381 13.1226V11.1871C9.52381 10.8398 9.70191 10.5218 10.0003 10.3364C11.2947 9.5316 12.3145 8.41785 12.9594 7.10772C14.8405 6.63957 16 4.95886 16 2.67188C16 2.09032 15.4873 1.61719 14.8571 1.61719ZM0.761905 2.67188C0.761905 2.47802 0.9328 2.32031 1.14286 2.32031H2.28571V3.8918C2.28571 4.69318 2.41726 5.47794 2.67695 6.2337C1.46465 5.67953 0.761905 4.39966 0.761905 2.67188ZM11.0476 15.1875C11.2577 15.1875 11.4286 15.3452 11.4286 15.5391V17.2969H4.57143V15.5391C4.57143 15.3452 4.74232 15.1875 4.95238 15.1875H11.0476ZM12.9524 3.8918C12.9524 4.85212 12.7452 5.78658 12.3365 6.66914C11.7552 7.92482 10.8002 8.99128 9.57471 9.75322C9.06575 10.0694 8.7619 10.6054 8.7619 11.1871V13.4297C8.7619 13.6239 8.9325 13.7812 9.14286 13.7812C9.56297 13.7812 9.90476 14.0967 9.90476 14.4844H6.09524C6.09524 14.2967 6.17455 14.1202 6.31851 13.9873C6.45543 13.8609 6.63512 13.7886 6.82728 13.7818C6.83714 13.7825 6.84709 13.7828 6.8571 13.7828C7.06747 13.7828 7.23806 13.6239 7.23806 13.4297V11.1853C7.23806 10.6049 6.9344 10.0696 6.42579 9.75329C5.20023 8.99132 4.24518 7.92485 3.66377 6.66907C3.25493 5.78682 3.04762 4.85241 3.04762 3.8918V1.05469C3.04762 0.860836 3.21851 0.703125 3.42857 0.703125H12.5714C12.7815 0.703125 12.9524 0.860836 12.9524 1.05469V3.8918ZM13.3232 6.23362C13.5828 5.47769 13.7143 4.69297 13.7143 3.8918V2.32031H14.8571C15.0672 2.32031 15.2381 2.47802 15.2381 2.67188C15.2381 4.39956 14.5354 5.67939 13.3232 6.23362Z" fill="#289F91"/>
<path d="M11.0148 4.15465C10.9701 4.02735 10.8508 3.93457 10.7073 3.91537L9.06324 3.69516L8.32789 2.32002C8.26369 2.2 8.13128 2.12402 7.98625 2.12402C7.84122 2.12402 7.7088 2.2 7.64461 2.32002L6.90926 3.69516L5.26526 3.91537C5.12171 3.93461 5.00251 4.02738 4.95768 4.15465C4.91288 4.28195 4.95025 4.42166 5.05409 4.51507L6.24396 5.58523L5.96312 7.09649C5.93863 7.22839 5.99737 7.36167 6.1147 7.44035C6.23204 7.519 6.38758 7.52937 6.51589 7.4671L7.98629 6.75368L9.45703 7.4671C9.58617 7.52975 9.74164 7.5185 9.85821 7.44032C9.9755 7.36164 10.0342 7.22832 10.0097 7.09642L9.72857 5.58519L10.9184 4.51507C11.0223 4.42166 11.0596 4.28195 11.0148 4.15465ZM9.05333 5.21067C8.96354 5.29146 8.92251 5.40786 8.94377 5.52195L9.12819 6.51325L8.1635 6.04528C8.05246 5.99146 7.91988 5.99146 7.80899 6.04532L6.84461 6.51325L7.02884 5.52188C7.05002 5.40779 7.00903 5.29143 6.91924 5.21067L6.13889 4.50881L7.21703 4.36439C7.34114 4.34776 7.44842 4.27583 7.50392 4.17205L7.98629 3.26998L8.46865 4.17205C8.52415 4.27583 8.63143 4.34776 8.75554 4.36439L9.83371 4.50881L9.05333 5.21067Z" fill="#289F91"/>
<path d="M8.00004 15.8906H6.47623C6.26587 15.8906 6.09528 16.048 6.09528 16.2422C6.09528 16.4364 6.26587 16.5938 6.47623 16.5938H8.00004C8.2104 16.5938 8.38099 16.4364 8.38099 16.2422C8.38099 16.048 8.2104 15.8906 8.00004 15.8906Z" fill="#289F91"/>
</svg>
