<svg width="42" height="42" viewBox="0 0 42 42" fill="none" xmlns="http://www.w3.org/2000/svg">
<mask id="path-1-outside-1_454_20275" maskUnits="userSpaceOnUse" x="0" y="0" width="42" height="42" fill="black">
<rect fill="white" width="42" height="42"/>
<path d="M40.4817 1H12.7422C12.4513 1 12.2194 1.23636 12.2194 1.52273V3.96818H7.1325C6.84156 3.96818 6.60972 4.20455 6.60972 4.49091V6.93182H1.52279C1.23639 6.93182 1 7.16818 1 7.45909V39.6636C1 39.9545 1.23639 40.1864 1.52279 40.1864H11.4103C11.5966 40.6636 12.0603 41 12.5968 41H22.1706C22.707 41 23.1707 40.6636 23.357 40.1864H29.2577C29.5487 40.1864 29.7805 39.95 29.7805 39.6636V37.2227H34.8674C35.1584 37.2227 35.3902 36.9864 35.3902 36.7V34.2545H40.4771C40.7681 34.2545 40.9999 34.0182 40.9999 33.7318V1.52273C41.0045 1.23636 40.7681 1 40.4817 1ZM6.00965 32.8727C5.896 32.8727 5.77326 32.8773 5.65961 32.8909L5.53687 32.9C4.97317 32.9545 4.52767 32.9727 4.39583 32.6818C4.30946 32.5 4.33674 32.2591 4.37311 32.0955C4.63223 30.9591 5.64143 30.6045 6.49152 30.6545C7.30071 30.7 8.0917 30.9045 8.92361 31.1182C9.62824 31.3 10.3647 31.4909 11.1102 31.5773C11.233 31.5864 11.3739 31.55 11.4648 31.4682C11.5648 31.3818 11.6194 31.25 11.6194 31.1273V19.4045C11.6194 19.1091 11.7421 18.8318 11.9558 18.6364C12.174 18.4409 12.4558 18.3409 12.7468 18.3682C13.2741 18.4182 13.6832 18.9045 13.6832 19.4773V26.0227C13.6832 26.2364 13.8333 26.4182 14.0424 26.4591L14.1242 26.4773C14.3424 26.5182 14.5606 26.3909 14.6243 26.1773C14.7788 25.7227 15.2834 25.3318 15.9153 25.5136C16.3426 25.6318 16.6381 26.0682 16.6381 26.6C16.6381 26.8182 16.7927 27 17.0063 27.0409L17.0927 27.0545C17.3109 27.0955 17.52 26.9682 17.5928 26.7591C17.7291 26.3455 18.1747 25.9818 18.752 26.0773C19.2384 26.1636 19.6021 26.6227 19.6021 27.1773C19.6021 27.3909 19.7566 27.5773 19.9703 27.6136L20.0203 27.6227C20.2431 27.6636 20.4658 27.5227 20.5204 27.3045C20.6295 26.9182 20.9931 26.6682 21.3932 26.6591C21.8751 26.6682 22.2615 27.1045 22.2615 27.6227V36.4455H12.3058C12.2694 36.4455 12.2331 36.45 12.2058 36.4591C10.6284 34.85 8.36446 32.8727 6.00965 32.8727ZM22.557 38.4091H18.3338C18.0883 38.4091 17.8883 38.6091 17.8883 38.8545C17.8883 39.1 18.0883 39.3 18.3338 39.3H22.557V39.7273C22.557 39.9409 22.3842 40.1136 22.1706 40.1136H12.5968C12.3831 40.1136 12.2103 39.9409 12.2103 39.7273V39.3H16.5563C16.8018 39.3 17.0018 39.1 17.0018 38.8545C17.0018 38.6091 16.8018 38.4091 16.5563 38.4091H12.2103V37.7227C12.2103 37.5091 12.3831 37.3364 12.5968 37.3364H22.1706C22.3842 37.3364 22.557 37.5091 22.557 37.7227V38.4091ZM28.8986 39.3H23.448V37.7273C23.448 37.4227 23.3343 37.1409 23.1479 36.9182C23.1525 36.9091 23.1525 36.9045 23.1525 36.8955V27.6273C23.1525 26.6273 22.3751 25.7909 21.4159 25.7727C20.975 25.7682 20.5613 25.9182 20.2431 26.1864C19.9612 25.6818 19.4793 25.3045 18.9066 25.2091C18.3201 25.1091 17.7473 25.2818 17.32 25.6455C17.0836 25.1727 16.6745 24.8091 16.1653 24.6682C15.6062 24.5091 15.0379 24.6045 14.5833 24.8955V19.4818C14.5833 18.45 13.8196 17.5773 12.8377 17.4864C12.3013 17.4409 11.7603 17.6182 11.3648 17.9864C10.9648 18.35 10.7375 18.8682 10.7375 19.4091V30.6227C10.2147 30.5318 9.69188 30.4 9.15091 30.2636C8.30991 30.0455 7.45072 29.8227 6.55062 29.7682C5.03682 29.6727 3.8185 30.5364 3.50937 31.9C3.40936 32.3364 3.43664 32.7273 3.5912 33.05C4.00034 33.9409 5.01863 33.8409 5.62779 33.7818L5.74144 33.7727C8.00078 33.5818 10.4602 35.9409 11.533 37.0409C11.4057 37.2409 11.3284 37.4727 11.3284 37.7273V39.3H1.89101V7.82273H28.8986V39.3ZM34.5037 36.3318H29.785V7.45909C29.785 7.16818 29.5487 6.93636 29.2623 6.93636H7.50073V4.85909H34.5037V36.3318ZM40.1135 33.3636H35.3948V4.49545C35.3948 4.20455 35.1584 3.97273 34.872 3.97273H13.1059V1.89091H40.1135V33.3636Z"/>
</mask>
<path d="M40.4817 1H12.7422C12.4513 1 12.2194 1.23636 12.2194 1.52273V3.96818H7.1325C6.84156 3.96818 6.60972 4.20455 6.60972 4.49091V6.93182H1.52279C1.23639 6.93182 1 7.16818 1 7.45909V39.6636C1 39.9545 1.23639 40.1864 1.52279 40.1864H11.4103C11.5966 40.6636 12.0603 41 12.5968 41H22.1706C22.707 41 23.1707 40.6636 23.357 40.1864H29.2577C29.5487 40.1864 29.7805 39.95 29.7805 39.6636V37.2227H34.8674C35.1584 37.2227 35.3902 36.9864 35.3902 36.7V34.2545H40.4771C40.7681 34.2545 40.9999 34.0182 40.9999 33.7318V1.52273C41.0045 1.23636 40.7681 1 40.4817 1ZM6.00965 32.8727C5.896 32.8727 5.77326 32.8773 5.65961 32.8909L5.53687 32.9C4.97317 32.9545 4.52767 32.9727 4.39583 32.6818C4.30946 32.5 4.33674 32.2591 4.37311 32.0955C4.63223 30.9591 5.64143 30.6045 6.49152 30.6545C7.30071 30.7 8.0917 30.9045 8.92361 31.1182C9.62824 31.3 10.3647 31.4909 11.1102 31.5773C11.233 31.5864 11.3739 31.55 11.4648 31.4682C11.5648 31.3818 11.6194 31.25 11.6194 31.1273V19.4045C11.6194 19.1091 11.7421 18.8318 11.9558 18.6364C12.174 18.4409 12.4558 18.3409 12.7468 18.3682C13.2741 18.4182 13.6832 18.9045 13.6832 19.4773V26.0227C13.6832 26.2364 13.8333 26.4182 14.0424 26.4591L14.1242 26.4773C14.3424 26.5182 14.5606 26.3909 14.6243 26.1773C14.7788 25.7227 15.2834 25.3318 15.9153 25.5136C16.3426 25.6318 16.6381 26.0682 16.6381 26.6C16.6381 26.8182 16.7927 27 17.0063 27.0409L17.0927 27.0545C17.3109 27.0955 17.52 26.9682 17.5928 26.7591C17.7291 26.3455 18.1747 25.9818 18.752 26.0773C19.2384 26.1636 19.6021 26.6227 19.6021 27.1773C19.6021 27.3909 19.7566 27.5773 19.9703 27.6136L20.0203 27.6227C20.2431 27.6636 20.4658 27.5227 20.5204 27.3045C20.6295 26.9182 20.9931 26.6682 21.3932 26.6591C21.8751 26.6682 22.2615 27.1045 22.2615 27.6227V36.4455H12.3058C12.2694 36.4455 12.2331 36.45 12.2058 36.4591C10.6284 34.85 8.36446 32.8727 6.00965 32.8727ZM22.557 38.4091H18.3338C18.0883 38.4091 17.8883 38.6091 17.8883 38.8545C17.8883 39.1 18.0883 39.3 18.3338 39.3H22.557V39.7273C22.557 39.9409 22.3842 40.1136 22.1706 40.1136H12.5968C12.3831 40.1136 12.2103 39.9409 12.2103 39.7273V39.3H16.5563C16.8018 39.3 17.0018 39.1 17.0018 38.8545C17.0018 38.6091 16.8018 38.4091 16.5563 38.4091H12.2103V37.7227C12.2103 37.5091 12.3831 37.3364 12.5968 37.3364H22.1706C22.3842 37.3364 22.557 37.5091 22.557 37.7227V38.4091ZM28.8986 39.3H23.448V37.7273C23.448 37.4227 23.3343 37.1409 23.1479 36.9182C23.1525 36.9091 23.1525 36.9045 23.1525 36.8955V27.6273C23.1525 26.6273 22.3751 25.7909 21.4159 25.7727C20.975 25.7682 20.5613 25.9182 20.2431 26.1864C19.9612 25.6818 19.4793 25.3045 18.9066 25.2091C18.3201 25.1091 17.7473 25.2818 17.32 25.6455C17.0836 25.1727 16.6745 24.8091 16.1653 24.6682C15.6062 24.5091 15.0379 24.6045 14.5833 24.8955V19.4818C14.5833 18.45 13.8196 17.5773 12.8377 17.4864C12.3013 17.4409 11.7603 17.6182 11.3648 17.9864C10.9648 18.35 10.7375 18.8682 10.7375 19.4091V30.6227C10.2147 30.5318 9.69188 30.4 9.15091 30.2636C8.30991 30.0455 7.45072 29.8227 6.55062 29.7682C5.03682 29.6727 3.8185 30.5364 3.50937 31.9C3.40936 32.3364 3.43664 32.7273 3.5912 33.05C4.00034 33.9409 5.01863 33.8409 5.62779 33.7818L5.74144 33.7727C8.00078 33.5818 10.4602 35.9409 11.533 37.0409C11.4057 37.2409 11.3284 37.4727 11.3284 37.7273V39.3H1.89101V7.82273H28.8986V39.3ZM34.5037 36.3318H29.785V7.45909C29.785 7.16818 29.5487 6.93636 29.2623 6.93636H7.50073V4.85909H34.5037V36.3318ZM40.1135 33.3636H35.3948V4.49545C35.3948 4.20455 35.1584 3.97273 34.872 3.97273H13.1059V1.89091H40.1135V33.3636Z" fill="white"/>
<path d="M40.4817 1H12.7422C12.4513 1 12.2194 1.23636 12.2194 1.52273V3.96818H7.1325C6.84156 3.96818 6.60972 4.20455 6.60972 4.49091V6.93182H1.52279C1.23639 6.93182 1 7.16818 1 7.45909V39.6636C1 39.9545 1.23639 40.1864 1.52279 40.1864H11.4103C11.5966 40.6636 12.0603 41 12.5968 41H22.1706C22.707 41 23.1707 40.6636 23.357 40.1864H29.2577C29.5487 40.1864 29.7805 39.95 29.7805 39.6636V37.2227H34.8674C35.1584 37.2227 35.3902 36.9864 35.3902 36.7V34.2545H40.4771C40.7681 34.2545 40.9999 34.0182 40.9999 33.7318V1.52273C41.0045 1.23636 40.7681 1 40.4817 1ZM6.00965 32.8727C5.896 32.8727 5.77326 32.8773 5.65961 32.8909L5.53687 32.9C4.97317 32.9545 4.52767 32.9727 4.39583 32.6818C4.30946 32.5 4.33674 32.2591 4.37311 32.0955C4.63223 30.9591 5.64143 30.6045 6.49152 30.6545C7.30071 30.7 8.0917 30.9045 8.92361 31.1182C9.62824 31.3 10.3647 31.4909 11.1102 31.5773C11.233 31.5864 11.3739 31.55 11.4648 31.4682C11.5648 31.3818 11.6194 31.25 11.6194 31.1273V19.4045C11.6194 19.1091 11.7421 18.8318 11.9558 18.6364C12.174 18.4409 12.4558 18.3409 12.7468 18.3682C13.2741 18.4182 13.6832 18.9045 13.6832 19.4773V26.0227C13.6832 26.2364 13.8333 26.4182 14.0424 26.4591L14.1242 26.4773C14.3424 26.5182 14.5606 26.3909 14.6243 26.1773C14.7788 25.7227 15.2834 25.3318 15.9153 25.5136C16.3426 25.6318 16.6381 26.0682 16.6381 26.6C16.6381 26.8182 16.7927 27 17.0063 27.0409L17.0927 27.0545C17.3109 27.0955 17.52 26.9682 17.5928 26.7591C17.7291 26.3455 18.1747 25.9818 18.752 26.0773C19.2384 26.1636 19.6021 26.6227 19.6021 27.1773C19.6021 27.3909 19.7566 27.5773 19.9703 27.6136L20.0203 27.6227C20.2431 27.6636 20.4658 27.5227 20.5204 27.3045C20.6295 26.9182 20.9931 26.6682 21.3932 26.6591C21.8751 26.6682 22.2615 27.1045 22.2615 27.6227V36.4455H12.3058C12.2694 36.4455 12.2331 36.45 12.2058 36.4591C10.6284 34.85 8.36446 32.8727 6.00965 32.8727ZM22.557 38.4091H18.3338C18.0883 38.4091 17.8883 38.6091 17.8883 38.8545C17.8883 39.1 18.0883 39.3 18.3338 39.3H22.557V39.7273C22.557 39.9409 22.3842 40.1136 22.1706 40.1136H12.5968C12.3831 40.1136 12.2103 39.9409 12.2103 39.7273V39.3H16.5563C16.8018 39.3 17.0018 39.1 17.0018 38.8545C17.0018 38.6091 16.8018 38.4091 16.5563 38.4091H12.2103V37.7227C12.2103 37.5091 12.3831 37.3364 12.5968 37.3364H22.1706C22.3842 37.3364 22.557 37.5091 22.557 37.7227V38.4091ZM28.8986 39.3H23.448V37.7273C23.448 37.4227 23.3343 37.1409 23.1479 36.9182C23.1525 36.9091 23.1525 36.9045 23.1525 36.8955V27.6273C23.1525 26.6273 22.3751 25.7909 21.4159 25.7727C20.975 25.7682 20.5613 25.9182 20.2431 26.1864C19.9612 25.6818 19.4793 25.3045 18.9066 25.2091C18.3201 25.1091 17.7473 25.2818 17.32 25.6455C17.0836 25.1727 16.6745 24.8091 16.1653 24.6682C15.6062 24.5091 15.0379 24.6045 14.5833 24.8955V19.4818C14.5833 18.45 13.8196 17.5773 12.8377 17.4864C12.3013 17.4409 11.7603 17.6182 11.3648 17.9864C10.9648 18.35 10.7375 18.8682 10.7375 19.4091V30.6227C10.2147 30.5318 9.69188 30.4 9.15091 30.2636C8.30991 30.0455 7.45072 29.8227 6.55062 29.7682C5.03682 29.6727 3.8185 30.5364 3.50937 31.9C3.40936 32.3364 3.43664 32.7273 3.5912 33.05C4.00034 33.9409 5.01863 33.8409 5.62779 33.7818L5.74144 33.7727C8.00078 33.5818 10.4602 35.9409 11.533 37.0409C11.4057 37.2409 11.3284 37.4727 11.3284 37.7273V39.3H1.89101V7.82273H28.8986V39.3ZM34.5037 36.3318H29.785V7.45909C29.785 7.16818 29.5487 6.93636 29.2623 6.93636H7.50073V4.85909H34.5037V36.3318ZM40.1135 33.3636H35.3948V4.49545C35.3948 4.20455 35.1584 3.97273 34.872 3.97273H13.1059V1.89091H40.1135V33.3636Z" stroke="white" stroke-width="0.6" mask="url(#path-1-outside-1_454_20275)"/>
<path d="M3.06851 16.3736H3.06849L3.06852 16.3755C3.07415 16.8202 3.44902 17.1827 3.90949 17.1827H11.4194C11.8788 17.1827 12.2604 16.8208 12.2604 16.3691V9.6782C12.2604 9.22583 11.8827 8.8691 11.4194 8.8691H3.90949C3.45146 8.8691 3.06851 9.2252 3.06851 9.6782V16.3736ZM6.39612 15.9918V14.5782C6.39612 14.3038 6.5166 14.0523 6.71045 13.8747C6.99293 14.0325 7.31849 14.1282 7.669 14.1282C8.01734 14.1282 8.34688 14.0372 8.62885 13.8757C8.82213 14.0527 8.94189 14.3006 8.94189 14.5782V15.9918H6.39612ZM6.92799 12.26C6.92799 11.8985 7.25036 11.5827 7.669 11.5827C8.08765 11.5827 8.41001 11.8985 8.41001 12.26C8.41001 12.6266 8.08709 12.9418 7.669 12.9418C7.25146 12.9418 6.92799 12.6226 6.92799 12.26ZM4.25951 10.0555H11.0694V15.9918H10.1238V14.5782C10.1238 13.9497 9.84863 13.3957 9.42243 13.0042C9.52481 12.7786 9.59193 12.5282 9.59193 12.26C9.59193 11.2267 8.72408 10.3964 7.66446 10.3964C6.60484 10.3964 5.73699 11.2267 5.73699 12.26C5.73699 12.532 5.80405 12.7794 5.90619 13.0038C5.4759 13.3958 5.20511 13.9503 5.20511 14.5782V15.9918H4.25951V10.0555Z" fill="white" stroke="white" stroke-width="0.3"/>
<path d="M16.5566 11.8369H26.7805C27.1078 11.8369 27.376 11.5753 27.376 11.2415C27.376 10.9131 27.1088 10.646 26.7805 10.646H16.5566C16.2283 10.646 15.9611 10.9131 15.9611 11.2415C15.9611 11.5753 16.2293 11.8369 16.5566 11.8369Z" fill="white" stroke="white" stroke-width="0.3"/>
<path d="M16.5566 14.0583H26.7805C27.1078 14.0583 27.376 13.7967 27.376 13.4628C27.376 13.1345 27.1088 12.8674 26.7805 12.8674H16.5566C16.2283 12.8674 15.9611 13.1345 15.9611 13.4628C15.9611 13.7967 16.2293 14.0583 16.5566 14.0583Z" fill="white" stroke="white" stroke-width="0.3"/>
<path d="M16.5566 16.2866H26.7805C27.1078 16.2866 27.376 16.025 27.376 15.6911C27.376 15.3628 27.1088 15.0957 26.7805 15.0957H16.5566C16.2283 15.0957 15.9611 15.3628 15.9611 15.6911C15.9611 16.025 16.2293 16.2866 16.5566 16.2866Z" fill="white" stroke="white" stroke-width="0.3"/>
<path d="M16.5566 18.514H26.7805C27.1078 18.514 27.376 18.2524 27.376 17.9185C27.376 17.5902 27.1088 17.3231 26.7805 17.3231H16.5566C16.2283 17.3231 15.9611 17.5902 15.9611 17.9185C15.9611 18.2524 16.2293 18.514 16.5566 18.514Z" fill="white" stroke="white" stroke-width="0.3"/>
<path d="M16.5566 20.7414H26.7805C27.1078 20.7414 27.376 20.4798 27.376 20.146C27.376 19.8177 27.1088 19.5505 26.7805 19.5505H16.5566C16.2283 19.5505 15.9611 19.8177 15.9611 20.146C15.9611 20.4798 16.2293 20.7414 16.5566 20.7414Z" fill="white" stroke="white" stroke-width="0.3"/>
<path d="M16.5566 22.968H26.7805C27.1078 22.968 27.376 22.7064 27.376 22.3725C27.376 22.0442 27.1088 21.7771 26.7805 21.7771H16.5566C16.2283 21.7771 15.9611 22.0442 15.9611 22.3725C15.9611 22.7064 16.2293 22.968 16.5566 22.968Z" fill="white" stroke="white" stroke-width="0.3"/>
<path d="M9.00102 19.5505H4.10957C3.78126 19.5505 3.51406 19.8177 3.51406 20.146C3.51406 20.4798 3.78226 20.7414 4.10957 20.7414H9.00102C9.32833 20.7414 9.59653 20.4798 9.59653 20.146C9.59653 19.8177 9.32933 19.5505 9.00102 19.5505Z" fill="white" stroke="white" stroke-width="0.3"/>
<path d="M9.00102 21.7771H4.10957C3.78126 21.7771 3.51406 22.0442 3.51406 22.3725C3.51406 22.7064 3.78226 22.968 4.10957 22.968H9.00102C9.32833 22.968 9.59653 22.7064 9.59653 22.3725C9.59653 22.0442 9.32933 21.7771 9.00102 21.7771Z" fill="white" stroke="white" stroke-width="0.3"/>
<path d="M9.00102 24.0097H4.10957C3.78226 24.0097 3.51406 24.2713 3.51406 24.6052C3.51406 24.9335 3.78126 25.2006 4.10957 25.2006H9.00102C9.32933 25.2006 9.59653 24.9335 9.59653 24.6052C9.59653 24.2713 9.32833 24.0097 9.00102 24.0097Z" fill="white" stroke="white" stroke-width="0.3"/>
<path d="M9.00102 26.2363H4.10957C3.78226 26.2363 3.51406 26.4979 3.51406 26.8317C3.51406 27.1601 3.78126 27.4272 4.10957 27.4272H9.00102C9.32933 27.4272 9.59653 27.1601 9.59653 26.8317C9.59653 26.4979 9.32833 26.2363 9.00102 26.2363Z" fill="white" stroke="white" stroke-width="0.3"/>
</svg>
