<svg width="23" height="20" viewBox="0 0 23 20" fill="none" xmlns="http://www.w3.org/2000/svg">
<path d="M21.735 0H1.265C0.929501 0 0.607744 0.115893 0.37051 0.322183C0.133277 0.528473 0 0.808262 0 1.1V18.9C0 19.0445 0.0327203 19.1875 0.0962925 19.321C0.159865 19.4544 0.253044 19.5757 0.37051 19.6778C0.487976 19.78 0.627429 19.861 0.780906 19.9163C0.934382 19.9715 1.09888 20 1.265 20H12.282V12.25H9.292V9.25H12.282V7C12.2201 6.47176 12.2918 5.93813 12.4921 5.43654C12.6925 4.93495 13.0166 4.47755 13.4417 4.09641C13.8669 3.71528 14.3828 3.41964 14.9532 3.23024C15.5237 3.04083 16.1349 2.96225 16.744 3C17.6391 2.99521 18.5337 3.03528 19.4235 3.12V5.82H17.595C16.146 5.82 15.87 6.42 15.87 7.29V9.22H19.32L18.8715 12.22H15.87V20H21.735C21.9011 20 22.0656 19.9715 22.2191 19.9163C22.3726 19.861 22.512 19.78 22.6295 19.6778C22.747 19.5757 22.8401 19.4544 22.9037 19.321C22.9673 19.1875 23 19.0445 23 18.9V1.1C23 0.955546 22.9673 0.812506 22.9037 0.679048C22.8401 0.54559 22.747 0.424327 22.6295 0.322183C22.512 0.220038 22.3726 0.139013 22.2191 0.0837326C22.0656 0.0284524 21.9011 0 21.735 0Z" fill="#289F91"/>
</svg>
