<svg width="50" height="50" viewBox="0 0 50 50" fill="none" xmlns="http://www.w3.org/2000/svg">
<path d="M13.9637 23.1174H18.3552C18.7788 23.1174 19.1219 22.7894 19.1219 22.3849C19.1219 21.9804 18.7788 21.6525 18.3552 21.6525H13.9637C13.5402 21.6525 13.197 21.9804 13.197 22.3849C13.197 22.7894 13.5402 23.1174 13.9637 23.1174Z" fill="white"/>
<path d="M13.9637 26.6669H31.7994C32.223 26.6669 32.5662 26.339 32.5662 25.9345C32.5662 25.53 32.223 25.2021 31.7994 25.2021H13.9637C13.5402 25.2021 13.197 25.53 13.197 25.9345C13.197 26.339 13.5402 26.6669 13.9637 26.6669Z" fill="white"/>
<path d="M31.7994 28.7517H27.0445C26.621 28.7517 26.2778 29.0796 26.2778 29.4841C26.2778 29.8886 26.621 30.2165 27.0445 30.2165H31.7994C32.2229 30.2165 32.5661 29.8886 32.5661 29.4841C32.5661 29.0796 32.2228 28.7517 31.7994 28.7517Z" fill="white"/>
<path d="M49.0108 4.91736L39.0868 0.17937C38.5859 -0.0597901 37.988 -0.0597901 37.4872 0.17937L27.5629 4.91736H27.5628C26.9527 5.20867 26.5736 5.79441 26.5736 6.44607V7.80906H15.7995C15.376 7.80906 15.0328 8.13699 15.0328 8.54148C15.0328 8.94598 15.376 9.2739 15.7995 9.2739H26.5737V11.5013C26.5737 12.5697 26.6576 13.5853 26.8253 14.5533H13.9637C13.5402 14.5533 13.197 14.8812 13.197 15.2857C13.197 15.6902 13.5402 16.0181 13.9637 16.0181H27.1535C27.3545 16.7408 27.6086 17.4348 27.9156 18.1029H13.9637C13.5402 18.1029 13.197 18.4308 13.197 18.8353C13.197 19.2398 13.5402 19.5678 13.9637 19.5678H28.6995C28.9687 20.005 29.2637 20.4303 29.5851 20.8443C29.7967 21.117 30.0204 21.386 30.257 21.6525H21.4221C20.9985 21.6525 20.6554 21.9805 20.6554 22.3849C20.6554 22.7894 20.9985 23.1174 21.4221 23.1174H31.7197C33.1652 24.4169 34.9922 25.6963 37.3513 27.0754C37.6398 27.244 37.9633 27.3283 38.2868 27.3283C38.6104 27.3283 38.9338 27.244 39.2224 27.0754C39.3008 27.0296 39.3777 26.984 39.4549 26.9385V44.725H19.3947V43.3594C19.3947 42.9549 19.0515 42.6269 18.628 42.6269C18.2044 42.6269 17.8613 42.9549 17.8613 43.3594V48.291C17.8613 48.4256 17.7467 48.5352 17.6057 48.5352H1.78899C1.64802 48.5352 1.53342 48.4256 1.53342 48.291V37.7415C1.53342 37.6069 1.64802 37.4974 1.78899 37.4974H17.6057C17.7467 37.4974 17.8613 37.6069 17.8613 37.7415V39.9414C17.8613 40.3459 18.2044 40.6738 18.628 40.6738C19.0515 40.6738 19.3947 40.3459 19.3947 39.9414V37.7415C19.3947 37.5943 19.373 37.4521 19.3362 37.3158H31.7994C32.223 37.3158 32.5661 36.9879 32.5661 36.5834C32.5661 36.1789 32.223 35.851 31.7994 35.851H16.931V33.7662H31.7993C32.2229 33.7662 32.566 33.4383 32.566 33.0338C32.566 32.6293 32.2229 32.3014 31.7993 32.3014H16.8989C16.8281 31.5675 16.6372 30.8665 16.3442 30.2166H24.2845C24.708 30.2166 25.0512 29.8887 25.0512 29.4842C25.0512 29.0797 24.708 28.7517 24.2845 28.7517H15.4451C14.1222 27.0991 12.0384 26.0304 9.69734 26.0304C8.47316 26.0304 7.31973 26.3233 6.30798 26.8383V9.2739H12.2216C12.6451 9.2739 12.9883 8.94598 12.9883 8.54148C12.9883 8.13699 12.6451 7.80906 12.2216 7.80906H6.05241C5.34775 7.80906 4.77456 8.35662 4.77456 9.02976V27.8837C3.3543 29.1462 2.46369 30.9455 2.46369 32.9405V36.0324H1.78899C0.802592 36.0324 0 36.7991 0 37.7414V48.291C0 49.2333 0.802592 50 1.78899 50H17.6057C18.5921 50 19.3947 49.2333 19.3947 48.291V46.1897H39.7106C40.4152 46.1897 40.9884 45.6422 40.9884 44.969V25.9975C43.7175 24.2529 45.607 22.6244 46.9887 20.8443C49.0149 18.234 50 15.1778 50 11.5014V6.44607C50.0001 5.79451 49.621 5.20877 49.0108 4.91736ZM12.3308 36.0325H7.06395V32.9406C7.06395 31.5534 8.2454 30.4249 9.69745 30.4249C11.1495 30.4249 12.3309 31.5534 12.3309 32.9406V36.0325H12.3308ZM3.99711 32.9406C3.99711 29.938 6.55435 27.4952 9.69745 27.4952C12.8405 27.4952 15.3977 29.938 15.3977 32.9406V36.0325H13.8644V32.9406C13.8644 30.7457 11.9951 28.96 9.69745 28.96C7.39977 28.96 5.53053 30.7457 5.53053 32.9406V36.0325H3.99711V32.9406ZM48.4667 11.5014C48.4667 18.5401 44.6233 22.2009 38.4222 25.8259C38.3398 25.874 38.2337 25.8739 38.1517 25.8259C31.9504 22.2008 28.1071 18.5401 28.1071 11.5014V6.44607C28.1071 6.35291 28.1612 6.26922 28.2484 6.22761L38.1726 1.48953C38.2441 1.45535 38.3295 1.45535 38.4011 1.48953L48.3252 6.22752C48.4124 6.26912 48.4666 6.35281 48.4666 6.44597V11.5014H48.4667Z" fill="white"/>
<path d="M38.2409 5.09081C33.9626 5.09081 30.4822 8.41572 30.4822 12.5025C30.4822 16.5894 33.9627 19.9143 38.2409 19.9143C41.5139 19.9143 44.4512 17.9357 45.55 14.9909C45.6922 14.61 45.484 14.1909 45.0852 14.0551C44.6864 13.9192 44.2478 14.1181 44.1056 14.499C43.2239 16.8618 40.867 18.4493 38.2409 18.4493C34.8083 18.4493 32.0156 15.7815 32.0156 12.5024C32.0156 9.22333 34.8083 6.55556 38.2409 6.55556C41.2631 6.55556 43.84 8.61621 44.3679 11.4552C44.442 11.8534 44.8402 12.1193 45.2569 12.0482C45.6738 11.9775 45.9517 11.5973 45.8777 11.199C45.2196 7.65966 42.0079 5.09081 38.2409 5.09081Z" fill="white"/>
<path d="M40.9004 10.4982L37.8794 13.3841L36.1229 11.7059C35.8234 11.4199 35.3381 11.4198 35.0385 11.7059C34.7391 11.992 34.7391 12.4557 35.0385 12.7417L37.3372 14.9377C37.4811 15.0751 37.676 15.1522 37.8794 15.1522C38.0829 15.1522 38.2777 15.0751 38.4217 14.9377L41.9847 11.534C42.2841 11.2479 42.2841 10.7842 41.9847 10.4982C41.6853 10.2123 41.1999 10.2123 40.9004 10.4982Z" fill="white"/>
</svg>
