<svg width="50" height="50" viewBox="0 0 50 50" fill="none" xmlns="http://www.w3.org/2000/svg">
<rect width="50" height="50" rx="5" fill="#289F91"/>
<rect width="50" height="50" rx="5" fill="url(#paint0_linear_2220_424)" fill-opacity="0.2"/>
<path d="M27.9334 19.3708C27.9334 19.2422 27.8862 19.1189 27.8023 19.0279C27.7184 18.937 27.6046 18.8859 27.486 18.8859H23.7608C23.6421 18.8859 23.5284 18.937 23.4445 19.0279C23.3606 19.1189 23.3134 19.2422 23.3134 19.3708C23.3134 19.4995 23.3606 19.6228 23.4445 19.7137C23.5284 19.8047 23.6421 19.8558 23.7608 19.8558H25.0636C25.2827 19.8561 25.497 19.9254 25.6806 20.055C25.8641 20.1847 26.0091 20.3693 26.0979 20.5864H23.7608C23.6421 20.5864 23.5284 20.6375 23.4445 20.7284C23.3606 20.8194 23.3134 20.9427 23.3134 21.0713C23.3134 21.1999 23.3606 21.3233 23.4445 21.4142C23.5284 21.5052 23.6421 21.5563 23.7608 21.5563H26.0979C26.0091 21.7734 25.8641 21.958 25.6806 22.0876C25.497 22.2173 25.2827 22.2865 25.0636 22.2869H23.7578H23.728H23.7131C23.7038 22.2877 23.6947 22.2892 23.6856 22.2914H23.6695L23.6433 22.2985L23.6272 22.3037C23.618 22.3066 23.6091 22.31 23.6003 22.314C23.5956 22.3156 23.591 22.3175 23.5866 22.3199C23.5771 22.3241 23.5677 22.3288 23.5586 22.3341L23.5472 22.3399L23.524 22.3554C23.5192 22.3583 23.5146 22.3615 23.5103 22.3651C23.504 22.3694 23.498 22.3742 23.4924 22.3793L23.4745 22.3936L23.4614 22.4071L23.4417 22.4272H23.4387L23.4297 22.4382L23.4124 22.4602L23.4005 22.4776C23.3956 22.4842 23.391 22.4912 23.3868 22.4983C23.3826 22.5048 23.379 22.5119 23.3755 22.5184L23.3647 22.539C23.3611 22.5462 23.3582 22.5533 23.3552 22.5604L23.3462 22.5824L23.3391 22.6043L23.3319 22.627L23.3265 22.6496C23.3265 22.6574 23.323 22.6651 23.3218 22.6729L23.3182 22.6975C23.3182 22.7052 23.3182 22.7123 23.3182 22.7201C23.3182 22.7278 23.3182 22.7382 23.3182 22.7479C23.3182 22.7576 23.3182 22.7582 23.3182 22.7634V22.7757C23.3182 22.7847 23.3182 22.7944 23.3182 22.8041C23.3182 22.8138 23.3182 22.8177 23.3182 22.8242L23.3218 22.8488C23.3218 22.8559 23.3218 22.8636 23.3253 22.8714C23.3289 22.8791 23.3253 22.8843 23.3301 22.8914C23.3349 22.8985 23.3337 22.9089 23.3361 22.9173C23.3385 22.9257 23.3403 22.9289 23.3421 22.9354L23.351 22.9613L23.3599 22.9813C23.3635 22.9884 23.3665 22.9962 23.3701 23.0033L23.3808 23.0227L23.3928 23.044L23.4041 23.0602L23.4196 23.0822L23.4309 23.0957L23.45 23.1177L26.2691 26.0609C26.3522 26.1484 26.4635 26.1971 26.5793 26.1967C26.6684 26.1966 26.7556 26.1677 26.8294 26.1136C26.9033 26.0595 26.9606 25.9827 26.9939 25.8931C27.0273 25.8034 27.0351 25.7051 27.0165 25.6105C26.9979 25.516 26.9537 25.4297 26.8895 25.3626L24.8697 23.2535H25.0636C25.5213 23.2543 25.9658 23.0869 26.3245 22.7786C26.6831 22.4704 26.9349 22.0395 27.0386 21.5563H27.4907C27.6094 21.5563 27.7232 21.5052 27.8071 21.4142C27.891 21.3233 27.9381 21.1999 27.9381 21.0713C27.9381 20.9427 27.891 20.8194 27.8071 20.7284C27.7232 20.6375 27.6094 20.5864 27.4907 20.5864H27.0386C26.9836 20.3255 26.8847 20.0778 26.7469 19.8558H27.4907C27.6086 19.8544 27.7211 19.8027 27.804 19.7119C27.8869 19.6211 27.9334 19.4986 27.9334 19.3708ZM40.0001 29.597V28.6272C39.9997 28.2414 39.8582 27.8716 39.6066 27.5989C39.355 27.3261 39.0138 27.1727 38.6579 27.1724H38.1336C38.1848 27.0167 38.2108 26.8527 38.2105 26.6875V25.7176C38.2102 25.3319 38.0687 24.962 37.8171 24.6893C37.5655 24.4165 37.2243 24.2631 36.8684 24.2628H35.6754C35.9852 22.9635 36.1421 21.627 36.1425 20.2851V14.0166C36.1424 13.8992 36.1031 13.7858 36.0318 13.6975C35.9605 13.6091 35.862 13.5518 35.7547 13.5362C33.8307 13.2565 31.9665 12.615 30.246 11.6404C28.6491 10.737 27.1985 9.5577 25.9512 8.14893C25.91 8.10278 25.8608 8.06589 25.8065 8.04037C25.7521 8.01486 25.6936 8.00121 25.6344 8.00022C25.5742 7.99825 25.5143 8.00963 25.4583 8.03364C25.4023 8.05765 25.3514 8.0938 25.3087 8.13988C24.231 9.29495 23.0231 10.298 21.7136 11.1251C19.7908 12.3366 17.6788 13.1546 15.4831 13.5381C15.3784 13.5567 15.2831 13.615 15.2144 13.7026C15.1457 13.7903 15.1079 13.9015 15.1079 14.0166V20.2851C15.1083 21.8662 15.3258 23.4384 15.7533 24.9501C15.6677 24.9859 15.5755 24.9995 15.4841 24.9897C15.3927 24.98 15.3047 24.9471 15.2272 24.8939C15.0538 24.7734 14.8591 24.6934 14.6556 24.6591C14.452 24.6248 14.2442 24.6369 14.0452 24.6947C13.8462 24.7524 13.6606 24.8545 13.5001 24.9945C13.3396 25.1345 13.2078 25.3092 13.1132 25.5075C13.062 25.6155 12.9832 25.7052 12.8862 25.766C12.7892 25.8268 12.6781 25.856 12.5662 25.8501C12.3603 25.8396 12.1547 25.8758 11.9625 25.9564C11.7703 26.037 11.5958 26.1603 11.4501 26.3182C11.3044 26.4762 11.1907 26.6654 11.1163 26.8737C11.042 27.082 11.0086 27.3049 11.0183 27.528C11.0233 27.6492 10.9963 27.7695 10.9402 27.8746C10.8842 27.9797 10.8016 28.0652 10.7021 28.1209C10.5191 28.2236 10.358 28.3665 10.2288 28.5405C10.0997 28.7145 10.0055 28.9158 9.95223 29.1315C9.89896 29.3472 9.88779 29.5726 9.91943 29.7933C9.95108 30.0139 10.0248 30.225 10.136 30.413C10.1962 30.5153 10.2281 30.6341 10.2281 30.7554C10.2281 30.8767 10.1962 30.9954 10.136 31.0977C10.0249 31.2857 9.9511 31.4967 9.91946 31.7173C9.88782 31.9379 9.89899 32.1633 9.95227 32.3789C10.0055 32.5946 10.0998 32.7958 10.2289 32.9698C10.358 33.1437 10.5192 33.2866 10.7021 33.3892C10.8016 33.4451 10.8842 33.5307 10.9402 33.6359C10.9962 33.741 11.0233 33.8614 11.0183 33.9827C11.0087 34.2061 11.0423 34.4292 11.1169 34.6376C11.1915 34.8461 11.3055 35.0354 11.4515 35.1933C11.5975 35.3513 11.7723 35.4744 11.9648 35.5549C12.1573 35.6354 12.3631 35.6714 12.5692 35.6606C12.6811 35.6547 12.7922 35.6839 12.8892 35.7447C12.9862 35.8055 13.065 35.8952 13.1162 36.0033C13.2108 36.2012 13.3425 36.3756 13.5028 36.5153C13.6631 36.655 13.8485 36.7569 14.0472 36.8147C14.2458 36.8724 14.4534 36.8846 14.6567 36.8506C14.86 36.8165 15.0545 36.7369 15.2278 36.6169C15.3222 36.5516 15.4319 36.5169 15.5439 36.5169C15.6559 36.5169 15.7656 36.5516 15.8601 36.6169C16.0334 36.7369 16.2279 36.8165 16.4312 36.8506C16.6344 36.8846 16.842 36.8724 17.0407 36.8147C17.2394 36.7569 17.4248 36.655 17.5851 36.5153C17.7454 36.3756 17.877 36.2012 17.9717 36.0033C18.0232 35.8954 18.1022 35.8058 18.1992 35.7451C18.2963 35.6843 18.4074 35.655 18.5193 35.6606C18.7251 35.6708 18.9306 35.6344 19.1226 35.5537C19.3147 35.473 19.4891 35.3497 19.6348 35.1919C19.7805 35.034 19.8942 34.8449 19.9686 34.6367C20.0431 34.4285 20.0767 34.2058 20.0672 33.9827C20.0622 33.8614 20.0893 33.741 20.1453 33.6359C20.2013 33.5307 20.2839 33.4451 20.3834 33.3892C20.5083 33.319 20.6232 33.2297 20.7246 33.1241C20.9202 33.3122 21.1189 33.4972 21.3211 33.675C22.583 34.7878 23.9615 35.7358 25.428 36.4992C25.4886 36.5311 25.5551 36.5477 25.6225 36.5477C25.6899 36.5477 25.7564 36.5311 25.8169 36.4992C27.1557 35.8014 28.4219 34.9507 29.594 33.9614H29.6382C29.5872 34.1171 29.5612 34.2811 29.5612 34.4463V35.4162C29.5617 35.8019 29.7032 36.1716 29.9548 36.4443C30.2064 36.717 30.5475 36.8705 30.9034 36.871H38.6579C39.0138 36.8706 39.355 36.7172 39.6066 36.4445C39.8582 36.1717 39.9997 35.8019 40.0001 35.4162V34.4463C39.9997 34.0606 39.8582 33.6908 39.6066 33.418C39.355 33.1453 39.0138 32.9919 38.6579 32.9915H38.1336C38.1848 32.8359 38.2108 32.6718 38.2105 32.5066V31.5367C38.2108 31.3715 38.1848 31.2075 38.1336 31.0518H38.6579C39.0138 31.0515 39.355 30.8981 39.6066 30.6253C39.8582 30.3526 39.9997 29.9828 40.0001 29.597ZM36.8684 25.2327C36.9871 25.2327 37.1008 25.2838 37.1847 25.3747C37.2686 25.4656 37.3158 25.589 37.3158 25.7176V26.6875C37.3158 26.8161 37.2686 26.9394 37.1847 27.0303C37.1008 27.1213 36.9871 27.1724 36.8684 27.1724H29.1138C28.9952 27.1722 28.8815 27.1211 28.7977 27.0302C28.7138 26.9393 28.6666 26.816 28.6665 26.6875V25.7176C28.6666 25.589 28.7138 25.4658 28.7977 25.3749C28.8815 25.284 28.9952 25.2328 29.1138 25.2327H36.8684ZM27.7717 25.7176V26.5866C26.9142 27.0842 25.9321 27.2704 24.9697 27.118C24.0073 26.9655 23.1154 26.4824 22.4252 25.7396C21.7943 25.0562 21.3648 24.1852 21.1914 23.2368C21.018 22.2885 21.1084 21.3057 21.4511 20.4132C21.7939 19.5206 22.3736 18.7586 23.1165 18.2237C23.8595 17.6889 24.7324 17.4054 25.6243 17.4091C26.2183 17.4071 26.8068 17.5324 27.3559 17.7779C27.905 18.0233 28.4039 18.3841 28.8239 18.8394C29.4682 19.5343 29.9029 20.4246 30.0709 21.3928C30.2388 22.361 30.132 23.3617 29.7646 24.2628H29.1138C28.758 24.2633 28.4169 24.4168 28.1653 24.6895C27.9137 24.9622 27.7722 25.3319 27.7717 25.7176ZM16.0032 14.4246C18.1735 13.9982 20.2587 13.1653 22.1651 11.9631C23.4103 11.1767 24.5684 10.2387 25.6171 9.16728C26.8603 10.5002 28.2806 11.6236 29.8308 12.5004C31.5265 13.4608 33.3557 14.1143 35.2459 14.4349V20.2844C35.2456 21.6288 35.0778 22.967 34.7472 24.2628H33.8525C34.2072 22.9718 34.3881 21.6321 34.3893 20.2851V15.6026C34.3894 15.4919 34.3545 15.3846 34.2905 15.2984C34.2264 15.2122 34.1371 15.1523 34.0374 15.1287C32.4348 14.7503 30.8861 14.1415 29.4324 13.3183C28.163 12.5999 26.9753 11.7235 25.8933 10.7068C25.813 10.6315 25.7106 10.5895 25.6044 10.5885C25.4982 10.5874 25.3951 10.6273 25.3135 10.7009C24.4651 11.4688 23.5586 12.1579 22.6036 12.7609C20.9212 13.8219 19.1038 14.6084 17.21 15.0951C17.1121 15.1205 17.0249 15.1808 16.9624 15.2664C16.9 15.352 16.866 15.4579 16.8658 15.5671V20.287C16.8659 21.906 17.1252 23.5126 17.6323 25.0355C17.4626 24.8758 17.2617 24.76 17.0447 24.6967C16.9015 24.655 16.7533 24.6371 16.6051 24.6436C16.207 23.231 16.0041 21.7622 16.0032 20.2851V14.4246ZM20.1985 31.6234C20.2422 31.6977 20.2713 31.781 20.2837 31.8682C20.2961 31.9553 20.2916 32.0443 20.2706 32.1294C20.2496 32.2146 20.2124 32.294 20.1615 32.3628C20.1105 32.4315 20.047 32.488 19.9748 32.5286C19.7234 32.6699 19.5146 32.8862 19.3729 33.152C19.2313 33.4178 19.1628 33.722 19.1755 34.0286C19.1794 34.1169 19.1662 34.205 19.1369 34.2874C19.1075 34.3699 19.0626 34.4447 19.0049 34.5072C18.9473 34.5696 18.8782 34.6183 18.8022 34.6502C18.7262 34.682 18.6449 34.6963 18.5634 34.692C18.2806 34.6786 18.0001 34.753 17.7549 34.9065C17.5098 35.06 17.3102 35.2862 17.1796 35.5584C17.1421 35.6367 17.09 35.7056 17.0266 35.7608C16.9632 35.816 16.8898 35.8563 16.8113 35.8791C16.7327 35.9019 16.6506 35.9067 16.5703 35.8933C16.4899 35.8798 16.413 35.8483 16.3444 35.8009C16.1058 35.6358 15.8286 35.5481 15.5454 35.5481C15.2623 35.5481 14.9851 35.6358 14.7464 35.8009C14.6779 35.8483 14.601 35.8798 14.5206 35.8933C14.4402 35.9067 14.3581 35.9019 14.2796 35.8791C14.201 35.8563 14.1277 35.816 14.0643 35.7608C14.0009 35.7056 13.9488 35.6367 13.9113 35.5584C13.781 35.2859 13.5814 35.0595 13.3362 34.906C13.091 34.7524 12.8103 34.6782 12.5274 34.692C12.4455 34.6968 12.3637 34.6828 12.2871 34.651C12.2106 34.6192 12.141 34.5704 12.083 34.5076C12.025 34.4447 11.9799 34.3694 11.9505 34.2865C11.9211 34.2035 11.9081 34.1148 11.9124 34.026C11.9245 33.7196 11.8556 33.4158 11.7137 33.1504C11.5719 32.885 11.3631 32.6691 11.1119 32.5279C11.0396 32.4874 10.9759 32.431 10.9249 32.3623C10.8738 32.2937 10.8366 32.2142 10.8155 32.129C10.7943 32.0438 10.7899 31.9548 10.8023 31.8676C10.8147 31.7804 10.8438 31.697 10.8876 31.6227C11.0401 31.3641 11.1212 31.0636 11.1212 30.7567C11.1212 30.4497 11.0401 30.1492 10.8876 29.8906C10.8434 29.8162 10.814 29.7326 10.8013 29.6451C10.7887 29.5577 10.7931 29.4683 10.8142 29.3828C10.8353 29.2973 10.8727 29.2175 10.924 29.1486C10.9753 29.0798 11.0393 29.0233 11.1119 28.9828C11.3632 28.8413 11.5719 28.625 11.7136 28.3592C11.8552 28.0935 11.9238 27.7893 11.9112 27.4827C11.9073 27.3945 11.9204 27.3063 11.9498 27.2239C11.9792 27.1415 12.0241 27.0667 12.0818 27.0042C12.1394 26.9417 12.2084 26.893 12.2845 26.8612C12.3605 26.8294 12.4418 26.8151 12.5232 26.8194C12.8061 26.833 13.0867 26.7587 13.3319 26.6052C13.5771 26.4517 13.7767 26.2254 13.9071 25.9529C13.9446 25.8747 13.9967 25.8058 14.0601 25.7506C14.1235 25.6954 14.1968 25.6551 14.2753 25.6322C14.3539 25.6094 14.4359 25.6044 14.5163 25.6178C14.5967 25.6312 14.6736 25.6625 14.7422 25.7098C14.9808 25.8752 15.2581 25.963 15.5413 25.963C15.8244 25.963 16.1017 25.8752 16.3403 25.7098C16.3741 25.6863 16.4101 25.6666 16.4476 25.651H16.4518C16.5662 25.6035 16.6917 25.5972 16.8097 25.6329C16.8887 25.6556 16.9624 25.6961 17.0259 25.7518C17.0895 25.8075 17.1414 25.8772 17.1784 25.9562C17.3087 26.2287 17.5082 26.4551 17.7535 26.6086C17.9987 26.7622 18.2793 26.8364 18.5623 26.8226C18.6437 26.8183 18.725 26.8326 18.801 26.8644C18.877 26.8963 18.9461 26.945 19.0037 27.0074C19.0614 27.0699 19.1063 27.1448 19.1357 27.2272C19.165 27.3096 19.1782 27.3977 19.1743 27.486C19.1616 27.7926 19.2301 28.0968 19.3717 28.3626C19.5134 28.6284 19.7222 28.8447 19.9736 28.986C20.0458 29.0266 20.1093 29.0831 20.1603 29.1519C20.2112 29.2206 20.2484 29.3 20.2694 29.3852C20.2905 29.4704 20.2949 29.5593 20.2825 29.6464C20.2701 29.7336 20.241 29.8169 20.1973 29.8912C20.0455 30.1498 19.9649 30.4499 19.965 30.7564C19.9651 31.0629 20.0459 31.363 20.1979 31.6214L20.1985 31.6234ZM20.3852 28.1228C20.2859 28.067 20.2034 27.9814 20.1475 27.8764C20.0916 27.7713 20.0645 27.6511 20.0696 27.5299C20.0858 27.1546 19.9799 26.785 19.7704 26.4857C19.5608 26.1864 19.261 25.9763 18.9231 25.8922C18.1591 24.1395 17.7613 22.2256 17.7582 20.287V15.9459C19.6142 15.4324 21.3954 14.6421 23.051 13.5976C23.9406 13.036 24.7902 12.4029 25.5927 11.7038C26.6494 12.6573 27.7968 13.4862 29.0154 14.1763C30.4318 14.978 31.9346 15.5861 33.4892 15.9867V20.2825C33.4888 21.6335 33.295 22.9762 32.9148 24.2628H30.7262C30.935 23.6299 31.0419 22.9629 31.0423 22.2908C31.0472 21.1269 30.7331 19.9876 30.14 19.0174C29.5469 18.0472 28.7014 17.2897 27.7106 16.8408C26.7199 16.392 25.6285 16.2721 24.5749 16.4964C23.5212 16.7206 22.5527 17.2788 21.792 18.1003C21.0314 18.9218 20.5128 19.9696 20.3021 21.1109C20.0915 22.2522 20.1981 23.4356 20.6085 24.5111C21.019 25.5866 21.7148 26.5058 22.6077 27.1523C23.5006 27.7987 24.5505 28.1433 25.6243 28.1422C26.4567 28.1433 27.2783 27.9367 28.0252 27.5383C28.1494 27.7255 28.3129 27.8779 28.5022 27.9829C28.6915 28.0879 28.9012 28.1426 29.1138 28.1422H29.6382C29.5872 28.298 29.5612 28.462 29.5612 28.6272V29.597C29.5612 29.7622 29.5872 29.9262 29.6382 30.082H29.1138C28.758 30.0825 28.4169 30.2359 28.1653 30.5086C27.9137 30.7813 27.7722 31.1511 27.7717 31.5367V31.8665C27.0901 32.4268 26.3724 32.9337 25.6243 33.3834C23.9028 32.3488 22.4109 31.0686 21.1845 29.5796C21.1907 29.2796 21.1189 28.9838 20.9775 28.7259C20.8361 28.468 20.6306 28.2584 20.3846 28.1209L20.3852 28.1228ZM25.6249 35.5248C24.2932 34.8135 23.0396 33.9421 21.8878 32.9269C21.6414 32.709 21.3986 32.4814 21.1618 32.2486C21.2289 31.8503 21.1547 31.4393 20.9542 31.0977C20.8747 30.9623 20.8455 30.7991 20.8725 30.6412C22.1955 32.1345 23.7287 33.3907 25.4149 34.3629C25.4801 34.4011 25.5531 34.4211 25.6273 34.4211C25.7014 34.4211 25.7744 34.4011 25.8396 34.3629C26.5371 33.9562 27.2104 33.5027 27.8558 33.0051C27.9575 33.3032 28.146 33.5574 28.3927 33.7293C27.5156 34.4064 26.5898 35.0062 25.6243 35.5229L25.6249 35.5248ZM29.1138 32.9915C28.9952 32.9914 28.8815 32.9402 28.7977 32.8493C28.7138 32.7584 28.6666 32.6352 28.6665 32.5066V31.5367C28.6666 31.4082 28.7138 31.2849 28.7977 31.194C28.8815 31.1031 28.9952 31.052 29.1138 31.0518H36.8684C36.9871 31.0518 37.1008 31.1029 37.1847 31.1938C37.2686 31.2848 37.3158 31.4081 37.3158 31.5367V32.5066C37.3158 32.6352 37.2686 32.7586 37.1847 32.8495C37.1008 32.9404 36.9871 32.9915 36.8684 32.9915H29.1138ZM38.6579 33.9614C38.7766 33.9614 38.8904 34.0125 38.9743 34.1034C39.0582 34.1944 39.1053 34.3177 39.1053 34.4463V35.4162C39.1053 35.5448 39.0582 35.6681 38.9743 35.7591C38.8904 35.85 38.7766 35.9011 38.6579 35.9011H30.9034C30.7847 35.9009 30.671 35.8498 30.5872 35.7589C30.5033 35.668 30.4561 35.5447 30.456 35.4162V34.4463C30.4561 34.3178 30.5033 34.1945 30.5872 34.1036C30.671 34.0127 30.7847 33.9616 30.9034 33.9614H38.6579ZM30.9034 30.082C30.7847 30.0818 30.671 30.0306 30.5872 29.9397C30.5033 29.8488 30.4561 29.7256 30.456 29.597V28.6272C30.4561 28.4986 30.5033 28.3754 30.5872 28.2845C30.671 28.1936 30.7847 28.1424 30.9034 28.1422H38.6579C38.7766 28.1422 38.8904 28.1933 38.9743 28.2843C39.0582 28.3752 39.1053 28.4986 39.1053 28.6272V29.597C39.1053 29.7256 39.0582 29.849 38.9743 29.9399C38.8904 30.0309 38.7766 30.082 38.6579 30.082H30.9034ZM17.2798 28.9291L14.8591 31.5529L13.8075 30.4124C13.7236 30.3214 13.6098 30.2703 13.4911 30.2703C13.3724 30.2703 13.2585 30.3214 13.1746 30.4124C13.0907 30.5033 13.0435 30.6267 13.0435 30.7554C13.0435 30.884 13.0907 31.0074 13.1746 31.0984L14.543 32.5816C14.6271 32.6723 14.7408 32.7232 14.8594 32.7232C14.9781 32.7232 15.0918 32.6723 15.1759 32.5816L17.9121 29.6151C17.9936 29.5237 18.0387 29.4012 18.0378 29.2741C18.0368 29.1469 17.9898 29.0253 17.9069 28.9353C17.824 28.8454 17.7118 28.7943 17.5945 28.7932C17.4772 28.792 17.3642 28.8408 17.2798 28.9291Z" fill="white"/>
<defs>
<linearGradient id="paint0_linear_2220_424" x1="0" y1="25" x2="19" y2="25" gradientUnits="userSpaceOnUse">
<stop stop-color="#91E0D7" stop-opacity="0"/>
<stop offset="1" stop-color="#A8EDE5"/>
</linearGradient>
</defs>
</svg>
