<svg width="40" height="40" viewBox="0 0 40 40" fill="none" xmlns="http://www.w3.org/2000/svg">
<path d="M39.0001 27.6062V15.1517C39.0001 13.6479 37.6543 12.4244 36.0001 12.4244H30.6667C29.0126 12.4244 27.6667 13.6478 27.6667 15.1517V27.6063C27.6667 28.3347 27.9788 29.0196 28.5454 29.5347L30 30.8571V37.861C30 38.2046 30.1409 38.5242 30.3963 38.7608C33.1229 41.2865 36.6666 39.5772 36.6666 36.9697V30.8571L38.1212 29.5347C38.6881 29.0196 39.0001 28.3347 39.0001 27.6062ZM37.6669 27.6062C37.6669 28.0109 37.4936 28.3913 37.1787 28.6775C35.4012 30.2935 35.3336 30.2746 35.3336 30.606V36.9695C35.3336 38.5125 33.2224 39.6476 31.3479 37.9115C31.3252 37.8904 31.3335 37.9106 31.3335 30.6061C31.3335 30.2715 31.2663 30.294 29.4884 28.6777C29.1736 28.3914 29.0003 28.011 29.0003 27.6063V15.1517C29.0003 14.3162 29.7479 13.6365 30.6669 13.6365H36.0003C36.9194 13.6365 37.667 14.3162 37.667 15.1517V27.6062L37.6669 27.6062Z" fill="white"/>
<path d="M33.3332 15.7577C32.0467 15.7577 31 16.7092 31 17.8789V24.5455C31 25.7152 32.0467 26.6667 33.3332 26.6667C34.6199 26.6667 35.6666 25.7152 35.6666 24.5455V17.8789C35.6666 16.7092 34.6199 15.7577 33.3332 15.7577ZM34.3333 24.5455C34.3333 25.0468 33.8847 25.4546 33.3333 25.4546C32.7819 25.4546 32.3332 25.0468 32.3332 24.5455V17.8789C32.3332 17.3776 32.7818 16.9698 33.3333 16.9698C33.8847 16.9698 34.3333 17.3776 34.3333 17.8789V24.5455Z" fill="white"/>
<path d="M13.3333 4.84862C13.3333 6.18539 14.5295 7.27288 15.9998 7.27288C17.4702 7.27288 18.6664 6.18539 18.6664 4.84862C18.6664 3.51197 17.4702 2.42445 15.9998 2.42445C14.5295 2.42445 13.3333 3.51197 13.3333 4.84862ZM17.3333 4.84862C17.3333 5.517 16.7351 6.06072 15.9999 6.06072C15.2647 6.06072 14.6665 5.51693 14.6665 4.84862C14.6665 4.18034 15.2647 3.63655 15.9999 3.63655C16.7351 3.63655 17.3333 4.18025 17.3333 4.84862Z" fill="white"/>
<path d="M21.3333 4.84862C21.3333 6.18539 22.5295 7.27288 23.9998 7.27288C25.4702 7.27288 26.6664 6.18539 26.6664 4.84862C26.6664 3.51197 25.4702 2.42445 23.9998 2.42445C22.5295 2.42445 21.3333 3.51197 21.3333 4.84862ZM25.3333 4.84862C25.3333 5.517 24.7351 6.06072 23.9999 6.06072C23.2646 6.06072 22.6665 5.51693 22.6665 4.84862C22.6665 4.18034 23.2646 3.63655 23.9999 3.63655C24.7351 3.63655 25.3333 4.18025 25.3333 4.84862Z" fill="white"/>
<path d="M29 38.7875H23.3334V21.5185C23.3334 21.1838 23.0349 20.9124 22.6668 20.9124C22.2986 20.9124 22.0001 21.1838 22.0001 21.5185V38.7874H20.3611V26.9693C20.3611 26.6346 20.0627 26.3633 19.6945 26.3633C19.3263 26.3633 19.0279 26.6346 19.0279 26.9693V38.7874H17.3281V21.5185C17.3281 21.1838 17.0297 20.9124 16.6615 20.9124C16.2933 20.9124 15.9949 21.1838 15.9949 21.5185V38.7874H9.00013V9.69685H30.3335V10.606C30.3335 10.9407 30.6319 11.2121 31.0001 11.2121C31.3683 11.2121 31.6667 10.9407 31.6667 10.606V9.69685C31.6667 9.02847 31.0686 8.48468 30.3334 8.48468H9.00005C8.26482 8.48468 7.66675 9.02847 7.66675 9.69685V38.7875H4.33336V3.63634C4.33336 2.29958 5.52961 1.21217 6.99995 1.21217H32.3332C33.8036 1.21217 34.9999 2.29966 34.9999 3.63634V10.606C34.9999 10.9407 35.2983 11.2121 35.6665 11.2121C36.0347 11.2121 36.3331 10.9407 36.3331 10.606V3.63634C36.3331 1.63129 34.5387 0 32.3331 0H6.99989C4.79432 0 2.99997 1.63129 2.99997 3.63634V38.7875H0.666608C0.298432 38.7875 0 39.0589 0 39.3936C0 39.7283 0.298416 39.9996 0.666608 39.9996H28.9999C29.3681 39.9996 29.6665 39.7283 29.6665 39.3936C29.6665 39.0589 29.3683 38.7875 29 38.7875Z" fill="white"/>
<path d="M39.3333 38.7878H37.6666C37.2984 38.7878 37 39.0592 37 39.3939C37 39.7286 37.2984 40 37.6666 40H39.3333C39.7015 40 39.9999 39.7286 39.9999 39.3939C39.9999 39.0592 39.7014 38.7878 39.3333 38.7878Z" fill="white"/>
<path d="M25.3332 29.0583C25.7013 29.0583 25.9998 28.7869 25.9998 28.4522V20.5836C25.9998 18.6883 24.3765 17.1301 22.3205 16.9819C23.1161 16.0311 22.9998 15.163 22.9998 14.242C22.9998 12.5711 21.5046 11.2117 19.6665 11.2117C17.8285 11.2117 16.3332 12.5711 16.3332 14.242C16.3332 15.238 16.229 16.0455 17.0126 16.9819C14.9565 17.1301 13.3333 18.6883 13.3333 20.5836V28.4522C13.3333 28.7869 13.6317 29.0583 13.9999 29.0583C14.3681 29.0583 14.6665 28.7869 14.6665 28.4522V20.5836C14.6665 19.259 15.8627 18.1814 17.3331 18.1814H21.9997C23.4701 18.1814 24.6664 19.259 24.6664 20.5836V28.4522C24.6666 28.7869 24.965 29.0583 25.3332 29.0583ZM17.6665 14.242C17.6665 13.2394 18.5637 12.4238 19.6665 12.4238C20.7693 12.4238 21.6665 13.2394 21.6665 14.242V15.1511C21.6665 16.1537 20.7693 16.9693 19.6665 16.9693C18.5637 16.9693 17.6665 16.1537 17.6665 15.1511V14.242Z" fill="white"/>
</svg>
