<svg width="50" height="50" viewBox="0 0 50 50" fill="none" xmlns="http://www.w3.org/2000/svg">
<rect width="50" height="50" rx="5" fill="#289F91"/>
<rect width="50" height="50" rx="5" fill="url(#paint0_linear_2198_7)" fill-opacity="0.2"/>
<path d="M32.9207 27.7664H22.0914L28.0747 24.3724C28.7001 24.0162 28.9261 23.2083 28.5779 22.5709L27.6862 20.9434C27.3355 20.3058 26.5411 20.0772 25.9161 20.433L23.4272 21.8446C23.7199 21.2468 23.902 20.6606 23.9694 20.0913C24.0817 19.1433 23.8703 18.2876 23.3582 17.6169C22.5259 16.5267 21.0726 16.1643 19.8239 16.7355C19.6025 16.8367 19.5038 17.1015 19.6032 17.3269C19.7027 17.5521 19.9628 17.6528 20.1843 17.5515C21.0618 17.15 22.0816 17.4026 22.6642 18.1658C23.5009 19.2616 23.1799 20.9757 21.8091 22.7624L21.2784 23.0634L20.8943 22.3631C20.7957 22.1826 20.6677 22.0252 20.5171 21.8953C20.6104 21.3264 20.8706 20.5902 21.1583 20.1093C21.2845 19.8983 21.2189 19.6231 21.0116 19.4947C20.8042 19.3661 20.5339 19.4331 20.4077 19.6441C20.0981 20.1616 19.8298 20.8787 19.6948 21.5132C19.3267 21.4533 18.953 21.5193 18.6242 21.7059L18.4723 21.7922C18.412 20.5015 18.6086 19.4212 19.0515 18.6422C19.1731 18.4284 19.1014 18.1548 18.8913 18.031C18.6814 17.9074 18.4124 17.9802 18.2909 18.1941C17.7031 19.2279 17.479 20.5996 17.6229 22.2741L17.0922 22.5753C14.8499 20.8786 12.6559 20.5318 11.1838 21.6558C10.1181 22.4695 9.71665 23.9094 10.2075 25.1574C10.7084 26.4306 11.9608 27.206 13.6861 27.3697L11.1381 28.8149C10.513 29.1697 10.2876 29.977 10.6359 30.6148L11.5275 32.2436C11.7651 32.677 12.2091 32.9216 12.6662 32.9216C12.8803 32.9216 13.0973 32.8679 13.2973 32.7549C13.2974 32.7548 13.2976 32.7547 13.2978 32.7546L16.1693 31.1257V38.4115C16.1693 39.2874 16.8696 40 17.7303 40H32.4265C33.2872 40 33.9875 39.2874 33.9875 38.4115V28.852C33.9874 28.2534 33.5089 27.7664 32.9207 27.7664ZM18.2756 28.9068L16.9733 26.5295L20.9389 24.2803L22.2411 26.6573L20.2582 27.7822C20.1874 27.8015 20.1237 27.8382 20.0719 27.8879L18.2756 28.9068ZM26.3446 21.2142C26.4095 21.1773 26.4798 21.1597 26.5494 21.1597C26.6975 21.1597 26.8416 21.2392 26.919 21.3798L27.8101 23.006C27.923 23.2129 27.8492 23.4756 27.6462 23.5912L23.0088 26.2218L21.7067 23.8447L26.3446 21.2142ZM19.0522 22.4875C19.1701 22.4205 19.3004 22.3865 19.4329 22.3865C19.5059 22.3865 19.5796 22.3969 19.6521 22.4179C19.8561 22.4768 20.0245 22.6118 20.1266 22.7987L20.5105 23.4987L16.5452 25.7479L16.1607 25.0457C16.085 24.9076 16.0523 24.7528 16.0641 24.5975C16.0645 24.5932 16.065 24.589 16.0653 24.5847C16.0699 24.5352 16.0785 24.4857 16.0922 24.4367C16.1501 24.2298 16.2829 24.0587 16.4664 23.9548L19.0522 22.4875ZM11.0235 24.825C10.6801 23.9519 10.9628 22.9431 11.7112 22.3716C12.7891 21.5487 14.4541 21.8105 16.2431 23.0572L16.039 23.173C15.7158 23.356 15.4672 23.6372 15.3223 23.978C14.742 23.792 14.2208 23.6899 13.4743 23.6067C13.2328 23.58 13.016 23.7571 12.9896 24.0026C12.9632 24.2483 13.1374 24.4691 13.3786 24.496C14.1998 24.5875 14.6829 24.7013 15.1963 24.8765C15.2232 25.0865 15.2889 25.2913 15.393 25.4814L15.7775 26.1836L15.2978 26.4557C13.1169 26.6984 11.5219 26.0922 11.0235 24.825ZM12.87 31.9732C12.6694 32.0862 12.4062 32.0106 12.2951 31.8081L11.4039 30.1799C11.2909 29.9731 11.3637 29.7113 11.566 29.5965L15.6308 27.291C15.6437 27.2845 15.6561 27.2775 15.6682 27.2698L16.2056 26.965L17.5079 29.3423L16.4021 29.9696C16.3997 29.9709 16.3975 29.9723 16.3951 29.9736L12.87 31.9732ZM17.0482 38.4116V30.6273L20.5143 28.6611H22.5407V32.6224C22.5407 32.8695 22.7374 33.0697 22.9801 33.0697C23.2228 33.0697 23.4196 32.8695 23.4196 32.6224V28.6611H26.7371V39.1054H23.4196V34.7417C23.4196 34.4947 23.2228 34.2944 22.9801 34.2944C22.7374 34.2944 22.5407 34.4947 22.5407 34.7417V39.1054H17.7303C17.3542 39.1054 17.0482 38.7942 17.0482 38.4116ZM33.1085 38.4116C33.1085 38.7942 32.8026 39.1054 32.4265 39.1054H27.6161V28.6611H32.9207C33.0225 28.6611 33.1085 28.7485 33.1085 28.852V38.4116Z" fill="white"/>
<path d="M31.3093 17.745C31.3152 17.8 31.8729 23.2694 29.9915 25.3454C29.8269 25.527 29.8381 25.81 30.0165 25.9774C30.101 26.0568 30.2078 26.0959 30.3144 26.0959C30.4328 26.0959 30.5509 26.0475 30.6375 25.9519C32.7868 23.5803 32.2088 17.8897 32.1832 17.6485C32.157 17.4029 31.9403 17.2257 31.6989 17.252C31.4576 17.2787 31.2832 17.4994 31.3093 17.745Z" fill="white"/>
<path d="M35.3295 17.0802C34.586 18.2389 34.3498 19.273 34.3401 19.3165C34.2864 19.5571 34.4344 19.796 34.6706 19.8512C34.7036 19.8588 34.7365 19.8625 34.7689 19.8625C34.969 19.8625 35.15 19.7222 35.197 19.5154C35.1991 19.5061 35.4166 18.5703 36.0824 17.5428C36.9586 16.1908 38.1629 15.3206 39.6619 14.9563C39.898 14.899 40.0437 14.6577 39.9874 14.4174C39.9311 14.1771 39.6941 14.0288 39.4579 14.0862C37.7472 14.5018 36.3195 15.5371 35.3295 17.0802Z" fill="white"/>
<path d="M26.3148 14.623C26.3163 14.6338 26.3183 14.6598 26.3144 14.7123L26.2109 16.0138C26.1962 16.1518 26.1672 16.4608 26.4149 16.6515C26.6668 16.8456 26.9628 16.724 27.0936 16.6702L28.2681 16.172C28.2914 16.1643 28.3487 16.1641 28.3699 16.1708L29.5537 16.672C29.6282 16.7027 29.7617 16.7575 29.9103 16.7575C30.0134 16.7575 30.1238 16.7311 30.2268 16.6517C30.4739 16.4614 30.445 16.1524 30.4303 16.014L30.3287 14.7144C30.3247 14.662 30.3262 14.6354 30.3275 14.6236L31.1807 13.5771C31.2792 13.4632 31.4738 13.2326 31.3822 12.9335C31.2892 12.6301 30.9864 12.5536 30.857 12.5209L29.5599 12.1934L28.8777 11.0343C28.8149 10.9265 28.6483 10.6404 28.3227 10.6395C28.3222 10.6395 28.3217 10.6395 28.3212 10.6395C27.9965 10.6395 27.8283 10.9247 27.7649 11.0322C27.7648 11.0323 27.7648 11.0324 27.7647 11.0326L27.0878 12.1829L27.0816 12.1935L25.7835 12.5211C25.6545 12.554 25.3523 12.6308 25.2596 12.9342C25.1682 13.2331 25.3693 13.4717 25.4608 13.5773L26.3148 14.623ZM27.3351 13.0512C27.6281 12.9775 27.7338 12.8297 27.8246 12.6719L28.3205 11.8287L28.8211 12.6791C28.9115 12.8336 29.0166 12.9784 29.3057 13.0511L30.2691 13.2943L29.6487 14.0553C29.4447 14.3007 29.4365 14.5727 29.4523 14.7839L29.5232 15.6902L28.7097 15.3457C28.4786 15.2463 28.1667 15.246 27.9334 15.3449L27.1184 15.6905L27.1906 14.7824C27.2049 14.5911 27.2004 14.3079 26.9966 14.0583L26.3724 13.2942L27.3351 13.0512Z" fill="white"/>
<path d="M39.7738 23.8608C39.8665 23.7548 40.068 23.5169 39.977 23.2178C39.8845 22.9134 39.5807 22.8366 39.4508 22.8038L38.1555 22.4768L37.4719 21.315C37.4085 21.2076 37.2403 20.9223 36.9156 20.9223C36.9151 20.9223 36.9146 20.9223 36.9141 20.9223C36.5897 20.9232 36.4231 21.2074 36.3598 21.316L35.6816 22.4656L35.6751 22.4768L34.3797 22.8038C34.25 22.8365 33.9461 22.9134 33.8536 23.2178C33.7627 23.5169 33.9641 23.7547 34.0568 23.8607L34.9093 24.9065C34.9107 24.9182 34.9121 24.9443 34.9083 24.9951L34.8047 26.2964C34.791 26.434 34.7628 26.7455 35.0112 26.9355C35.2626 27.1277 35.5572 27.0066 35.6875 26.953L36.8621 26.4548C36.886 26.4469 36.9447 26.4469 36.9654 26.4535L38.1476 26.9548C38.222 26.9854 38.3553 27.0402 38.504 27.0402C38.6067 27.0402 38.7167 27.014 38.8196 26.9354C39.068 26.7454 39.0398 26.434 39.026 26.2963L38.9226 24.9972C38.9187 24.9449 38.9201 24.9183 38.9214 24.9064L39.7738 23.8608ZM38.2426 24.3381C38.0386 24.5834 38.0304 24.8555 38.0462 25.0674L38.1183 25.9733L37.3033 25.6276C37.0712 25.5292 36.7593 25.5293 36.5273 25.6276L35.7122 25.9733L35.7845 25.0652C35.8002 24.8555 35.792 24.5834 35.5908 24.3414L34.9677 23.5771L35.9318 23.3337C36.2226 23.2597 36.3278 23.1124 36.4183 22.9551L36.916 22.1111L37.3946 22.9245L37.4124 22.9551C37.5029 23.1125 37.6082 23.2598 37.8997 23.3338L38.8631 23.5771L38.2426 24.3381Z" fill="white"/>
<path d="M35.3123 14.4726C36.5245 14.4726 37.5108 13.4698 37.5108 12.2371C37.5108 11.0036 36.5245 10 35.3123 10C34.1 10 33.1138 11.0036 33.1138 12.2371C33.1138 13.4698 34.1 14.4726 35.3123 14.4726ZM35.3123 10.8946C36.0399 10.8946 36.6319 11.4969 36.6319 12.2371C36.6319 12.9765 36.0399 13.5779 35.3123 13.5779C34.5847 13.5779 33.9927 12.9765 33.9927 12.2371C33.9927 11.4969 34.5847 10.8946 35.3123 10.8946Z" fill="white"/>
<defs>
<linearGradient id="paint0_linear_2198_7" x1="0" y1="25" x2="19" y2="25" gradientUnits="userSpaceOnUse">
<stop stop-color="#91E0D7" stop-opacity="0"/>
<stop offset="1" stop-color="#A8EDE5"/>
</linearGradient>
</defs>
</svg>
