<svg width="18" height="18" viewBox="0 0 18 18" fill="none" xmlns="http://www.w3.org/2000/svg">
<path d="M4.57812 2.8212H10.9869" stroke="#289F91" stroke-width="0.6" stroke-miterlimit="10" stroke-linecap="round" stroke-linejoin="round"/>
<mask id="mask0_454_39958" style="mask-type:luminance" maskUnits="userSpaceOnUse" x="0" y="0" width="18" height="18">
<path d="M0 0H18V18H0V0Z" fill="white"/>
</mask>
<g mask="url(#mask0_454_39958)">
<path d="M14.5836 2.82099H17.4724C17.6211 2.82099 17.7417 2.94158 17.7417 3.09029V6.33588H0.258179V3.09029C0.258179 2.94158 0.378765 2.82099 0.527511 2.82099H3.41633" stroke="#289F91" stroke-width="0.7" stroke-miterlimit="10" stroke-linecap="round" stroke-linejoin="round"/>
<path d="M12.1995 2.82095H13.4219" stroke="#289F91" stroke-width="0.7" stroke-miterlimit="10" stroke-linecap="round" stroke-linejoin="round"/>
<path d="M2.85857 16.4939H0.527742C0.378996 16.4939 0.258446 16.3733 0.258446 16.2246V6.33616H17.742V16.2246C17.742 16.3733 17.6214 16.4939 17.4727 16.4939H4.09375" stroke="#289F91" stroke-width="0.7" stroke-miterlimit="10" stroke-linecap="round" stroke-linejoin="round"/>
<path d="M3.99723 4.01544C3.67643 4.01544 3.41638 3.75539 3.41638 3.43459V2.08631C3.41638 1.76551 3.67643 1.50543 3.99723 1.50543C4.31803 1.50543 4.57808 1.76551 4.57808 2.08631V3.43459C4.57808 3.75539 4.31803 4.01544 3.99723 4.01544Z" stroke="#289F91" stroke-width="0.7" stroke-miterlimit="10" stroke-linecap="round" stroke-linejoin="round"/>
<path d="M14.0027 4.01544C13.6819 4.01544 13.4219 3.75539 13.4219 3.43459V2.08631C13.4219 1.76551 13.6819 1.50543 14.0027 1.50543C14.3235 1.50543 14.5836 1.76551 14.5836 2.08631V3.43459C14.5836 3.75539 14.3235 4.01544 14.0027 4.01544Z" stroke="#289F91" stroke-width="0.7" stroke-miterlimit="10" stroke-linecap="round" stroke-linejoin="round"/>
<path d="M12.7944 12.4345L13.5602 10.4238C13.5759 10.3856 13.6301 10.3855 13.6458 10.4237L14.4046 12.4345" stroke="#289F91" stroke-width="0.7" stroke-miterlimit="10" stroke-linecap="round" stroke-linejoin="round"/>
<path d="M13.0333 11.9341H14.1697" stroke="#289F91" stroke-width="0.7" stroke-miterlimit="10" stroke-linecap="round" stroke-linejoin="round"/>
<path d="M7.33118 10.3951V12.4328C7.35371 12.4367 8.04534 12.4328 8.04534 12.4328" stroke="#289F91" stroke-width="0.7" stroke-miterlimit="10" stroke-linecap="round" stroke-linejoin="round"/>
<path d="M9.1897 10.3951V12.4345" stroke="#289F91" stroke-width="0.7" stroke-miterlimit="10" stroke-linecap="round" stroke-linejoin="round"/>
<path d="M1.59143 10.3951V12.4345" stroke="#289F91" stroke-width="0.7" stroke-miterlimit="10" stroke-linecap="round" stroke-linejoin="round"/>
<path d="M3.00281 10.3951V12.4345" stroke="#289F91" stroke-width="0.7" stroke-miterlimit="10" stroke-linecap="round" stroke-linejoin="round"/>
<path d="M1.59143 11.3799H3.00278" stroke="#289F91" stroke-width="0.7" stroke-miterlimit="10" stroke-linecap="round" stroke-linejoin="round"/>
<path d="M10.4915 10.4577V12.4026" stroke="#289F91" stroke-width="0.7" stroke-miterlimit="10" stroke-linecap="round" stroke-linejoin="round"/>
<path d="M11.8512 11.445C11.8512 11.9903 11.5486 12.4218 11.0684 12.4302C10.9085 12.433 10.4955 12.4345 10.4955 12.4345C10.4955 12.4345 10.4929 11.7177 10.4929 11.4428C10.4929 11.217 10.4915 10.4554 10.4915 10.4554H11.052C11.5787 10.4554 11.8512 10.8997 11.8512 11.445Z" stroke="#289F91" stroke-width="0.7" stroke-miterlimit="10" stroke-linecap="round" stroke-linejoin="round"/>
<path d="M15.111 10.3955L15.7624 11.3932L16.4085 10.4007" stroke="#289F91" stroke-width="0.7" stroke-miterlimit="10" stroke-linecap="round" stroke-linejoin="round"/>
<path d="M15.7599 12.4345L15.7625 11.3928" stroke="#289F91" stroke-width="0.7" stroke-miterlimit="10" stroke-linecap="round" stroke-linejoin="round"/>
<path d="M6.18667 11.4148C6.18667 11.978 5.73013 12.4345 5.16692 12.4345C4.60376 12.4345 4.14722 11.978 4.14722 11.4148C4.14722 10.8516 4.60376 10.3951 5.16692 10.3951C5.73013 10.3951 6.18667 10.8516 6.18667 11.4148Z" stroke="#289F91" stroke-width="0.7" stroke-miterlimit="10" stroke-linecap="round" stroke-linejoin="round"/>
</g>
</svg>
