<svg width="40" height="40" viewBox="0 0 40 40" fill="none" xmlns="http://www.w3.org/2000/svg">
<path d="M34.8291 38.5495H31.1765L30.6849 27.3503C30.6277 26.0077 30.2346 24.7155 29.5554 23.6379C28.8763 22.5602 27.9417 21.7457 26.8706 21.2979L22.994 19.6633C21.681 18.9859 21.1272 18.2717 20.9654 16.8874C21.8241 16.0865 22.3917 14.9275 22.5522 13.6477C22.5644 13.5879 22.5874 13.5319 22.6197 13.4837C22.6519 13.4354 22.6925 13.3959 22.7388 13.3679C23.3625 12.9576 23.8299 12.2805 24.0451 11.4755C24.2603 10.6705 24.207 9.79849 23.8962 9.03844C24.1248 8.07503 24.1787 7.06531 24.0543 6.07553C23.9299 5.08574 23.6301 4.13827 23.1744 3.29527C23.2864 2.93878 23.2995 2.54934 23.2118 2.18346C23.148 1.91289 23.0306 1.66421 22.8693 1.45805C22.7081 1.25189 22.5076 1.09418 22.2846 0.998007C17.2631 -1.15936 14.8674 0.718211 14.0647 1.62386C14.0123 1.67174 13.95 1.70224 13.8843 1.71222C11.0468 2.22027 11.3953 7.79409 11.4948 8.99426C11.2423 9.79294 11.2396 10.6722 11.4872 11.473C11.7349 12.2739 12.2165 12.9434 12.8451 13.3605C12.8907 13.3896 12.9308 13.4295 12.9629 13.4776C12.995 13.5257 13.0185 13.5811 13.0318 13.6403C13.1648 14.8112 13.6404 15.8898 14.3758 16.6886C14.1829 18.3821 13.5234 19.0448 12.3598 19.6338L8.4396 21.2905C7.36839 21.7406 6.43413 22.5566 5.75512 23.6353C5.0761 24.7141 4.68287 26.007 4.62523 27.3503L4.13365 38.5495H0.773519C0.681764 38.5223 0.585975 38.5202 0.493432 38.5433C0.400888 38.5665 0.314028 38.6143 0.239453 38.6832C0.164877 38.7521 0.104551 38.8401 0.0630583 38.9407C0.0215659 39.0413 0 39.1518 0 39.2637C0 39.3756 0.0215659 39.4861 0.0630583 39.5867C0.104551 39.6873 0.164877 39.7753 0.239453 39.8442C0.314028 39.913 0.400888 39.9609 0.493432 39.9841C0.585975 40.0072 0.681764 40.0051 0.773519 39.9779H34.8291C34.9637 39.938 35.0831 39.8461 35.1684 39.7167C35.2537 39.5873 35.3001 39.4278 35.3001 39.2637C35.3001 39.0996 35.2537 38.9401 35.1684 38.8107C35.0831 38.6813 34.9637 38.5894 34.8291 38.5495ZM14.0647 3.11856C14.3795 3.06928 14.6733 2.90447 14.9048 2.64733C15.7859 1.7737 16.919 1.33823 18.0658 1.43243C19.3668 1.46336 20.6534 1.76236 21.8677 2.31599C21.9124 2.3336 21.9524 2.36453 21.984 2.4058C22.0156 2.44707 22.0377 2.49729 22.0482 2.55161C22.0622 2.60641 22.065 2.66437 22.0563 2.72071C22.0477 2.77704 22.0278 2.83013 21.9984 2.87558C21.9191 3.00236 21.8762 3.15594 21.8762 3.31368C21.8762 3.47142 21.9191 3.625 21.9984 3.75178C22.6173 4.79073 22.9379 6.03736 22.9131 7.30813C22.2224 6.34357 21.177 5.25384 20.001 5.30538C19.9181 5.29848 19.8349 5.29848 19.7521 5.30538L19.2356 5.40846C18.5597 5.62958 17.8457 5.62958 17.1697 5.40846C16.5439 5.1908 15.8756 5.21638 15.2629 5.48144C14.6503 5.7465 14.1256 6.23707 13.766 6.88107C13.49 7.3758 13.1077 7.77477 12.6584 8.03707C12.5962 6.29939 12.7456 3.36154 14.0647 3.11856ZM14.2203 13.4268C14.1835 13.1479 14.0925 12.883 13.9542 12.6529C13.816 12.4229 13.6344 12.2341 13.4238 12.1015C13.066 11.8671 12.7879 11.4932 12.6369 11.0434C12.486 10.5936 12.4716 10.0958 12.5962 9.63485C13.4788 9.31338 14.2411 8.64268 14.7554 7.73518C14.9732 7.34312 15.2908 7.04328 15.6622 6.87913C16.0337 6.71497 16.4396 6.69502 16.8213 6.82217C17.6735 7.11208 18.5758 7.12733 19.4347 6.86635L19.9387 6.73381H20.0632C21.121 6.68227 22.3406 8.66293 22.7077 9.39923C22.7824 9.58331 23.4171 11.2694 22.1415 12.0941C21.9216 12.2235 21.7312 12.4134 21.5861 12.6479C21.4411 12.8823 21.3456 13.1545 21.3077 13.4415C21.1646 14.5828 20.5112 16.5266 17.7546 16.7107C16.8982 16.7012 16.0638 16.3883 15.359 15.8124C15.3307 15.779 15.2994 15.7494 15.2657 15.7241C14.6885 15.1444 14.3156 14.3302 14.2203 13.4415V13.4268ZM17.7422 18.1244H17.8044C18.5095 18.0924 19.2054 17.9233 19.8641 17.6237C20.0026 18.3269 20.2846 18.9791 20.6854 19.5234C20.328 20.0702 19.8684 20.5117 19.3427 20.8132C18.8169 21.1147 18.2393 21.268 17.6551 21.2611C17.072 21.2639 16.4954 21.1173 15.9647 20.8313C15.4341 20.5453 14.9621 20.1267 14.5812 19.6044C15.0329 19.0226 15.3444 18.3081 15.4834 17.5354C16.1968 17.9057 16.9636 18.1106 17.7422 18.1392V18.1244ZM5.83239 27.446C5.87685 26.3817 6.18909 25.3575 6.72905 24.5047C7.26901 23.6519 8.01203 23.0095 8.86273 22.6601L12.8202 20.9813C13.1006 20.8376 13.3728 20.6729 13.6354 20.488C14.1299 21.1791 14.7456 21.7346 15.4397 22.116C16.1339 22.4974 16.8898 22.6956 17.6551 22.6969H17.6924C18.4517 22.7109 19.2032 22.5137 19.8863 22.1211C20.5694 21.7284 21.165 21.1514 21.625 20.4364C21.9269 20.6527 22.2408 20.8446 22.5646 21.0107L26.4848 22.6674C27.3309 23.0214 28.0692 23.6643 28.6064 24.5149C29.1436 25.3656 29.4555 26.3856 29.5027 27.446L29.988 38.5568H27.8039L28.3889 25.7231C28.3986 25.5064 28.371 25.2896 28.3079 25.0858C28.2448 24.8821 28.1475 24.6956 28.0217 24.5376C27.8926 24.3795 27.7379 24.2538 27.5669 24.1678C27.3958 24.0817 27.212 24.0373 27.0261 24.0369H8.28404C8.09973 24.0367 7.91729 24.0807 7.74777 24.1663C7.57824 24.2519 7.42516 24.3773 7.29777 24.535C7.17038 24.6926 7.07134 24.8791 7.00663 25.0834C6.94193 25.2876 6.91291 25.5052 6.92132 25.7231L7.50623 38.5568H5.34081L5.83239 27.446ZM8.71339 38.5495L8.12848 25.6347C8.12775 25.6131 8.13068 25.5916 8.13709 25.5714C8.1435 25.5511 8.15327 25.5326 8.16582 25.5169C8.18109 25.4981 8.19945 25.4831 8.21978 25.473C8.24012 25.4629 8.26198 25.4578 8.28404 25.458H27.0261C27.0482 25.4578 27.0701 25.4629 27.0904 25.473C27.1107 25.4831 27.1291 25.4981 27.1444 25.5169C27.1583 25.5313 27.1691 25.5497 27.1756 25.5702C27.1821 25.5908 27.1842 25.613 27.1817 25.6347L26.5968 38.5495H8.71339ZM27.3621 6.42456C27.2037 6.43583 27.0548 6.51836 26.9461 6.65524C26.8374 6.79212 26.7769 6.97301 26.7772 7.16087C26.7852 7.3497 26.8543 7.52765 26.9701 7.65787C27.086 7.78809 27.2397 7.86059 27.3995 7.86035C33.622 7.64683 38.183 13.0145 38.7742 21.1138C38.7925 21.2934 38.8661 21.4587 38.9808 21.5782C39.0956 21.6977 39.2435 21.7631 39.3964 21.7618H39.4462C39.5991 21.7417 39.7403 21.6554 39.8426 21.5194C39.9448 21.3835 40.0009 21.2075 40 21.0255C39.3528 12.2045 34.1197 6.2184 27.3621 6.42456Z" fill="white"/>
<path d="M27.157 11.0707C26.9985 11.0819 26.8496 11.1645 26.7409 11.3013C26.6322 11.4382 26.5718 11.6191 26.5721 11.807C26.5816 11.9945 26.6513 12.1706 26.767 12.2993C26.8827 12.4279 27.0355 12.4994 27.1943 12.4991C31.2638 12.3518 34.375 16.0186 34.5679 21.2758C34.579 21.462 34.6494 21.6363 34.7649 21.7635C34.8804 21.8906 35.0324 21.961 35.1902 21.9606C35.3475 21.9475 35.4948 21.8642 35.6023 21.7275C35.7097 21.5908 35.7693 21.411 35.7689 21.2243C35.5573 15.1351 31.9234 10.8498 27.157 11.0707ZM30.2309 21.0844C30.2419 21.2706 30.3123 21.4449 30.4278 21.572C30.5434 21.6991 30.6954 21.7696 30.8531 21.7691C31.0105 21.7561 31.1578 21.6728 31.2652 21.5361C31.3726 21.3994 31.4322 21.2195 31.4318 21.0328C31.326 18.014 29.6211 16.0407 27.2254 16.0996C27.0604 16.0996 26.9021 16.1772 26.7854 16.3153C26.6687 16.4534 26.6032 16.6406 26.6032 16.8359C26.6112 17.0247 26.6802 17.2027 26.7961 17.3329C26.9119 17.4631 27.0656 17.5356 27.2254 17.5354C28.9864 17.4618 30.1562 18.8755 30.2309 21.0844ZM17.6552 29.0659C17.163 29.0659 16.6818 29.2386 16.2724 29.5623C15.8631 29.8859 15.5441 30.3459 15.3557 30.884C15.1673 31.4222 15.118 32.0144 15.2141 32.5857C15.3101 33.157 15.5472 33.6818 15.8953 34.0937C16.2434 34.5056 16.6869 34.7861 17.1697 34.8998C17.6525 35.0134 18.1529 34.9551 18.6077 34.7322C19.0625 34.5092 19.4513 34.1317 19.7248 33.6474C19.9983 33.1631 20.1442 32.5936 20.1442 32.0111C20.1442 31.23 19.882 30.4809 19.4152 29.9286C18.9485 29.3762 18.3154 29.0659 17.6552 29.0659ZM17.6552 33.4837C17.4105 33.4765 17.173 33.384 16.9725 33.2179C16.772 33.0517 16.6173 32.8193 16.5279 32.5496C16.4385 32.28 16.4182 31.9851 16.4697 31.7019C16.5212 31.4187 16.6421 31.1598 16.8173 30.9575C16.9925 30.7552 17.2143 30.6186 17.4548 30.5647C17.6953 30.5108 17.9439 30.542 18.1695 30.6545C18.3951 30.767 18.5877 30.9556 18.7231 31.197C18.8585 31.4383 18.9308 31.7215 18.9309 32.0111C18.9292 32.4102 18.7941 32.7922 18.555 33.0737C18.316 33.3552 17.9925 33.5132 17.6552 33.5132V33.4837Z" fill="white"/>
</svg>
