<svg width="21" height="20" viewBox="0 0 21 20" fill="none" xmlns="http://www.w3.org/2000/svg">
<path d="M19.4472 0.000139829H1.55282C1.35167 -0.00250476 1.15194 0.0323869 0.965034 0.102822C0.778131 0.173257 0.607715 0.277857 0.463518 0.410646C0.319322 0.543436 0.204171 0.701814 0.124639 0.876737C0.0451082 1.05166 0.00275535 1.2397 0 1.43012V18.5699C0.00275535 18.7603 0.0451082 18.9483 0.124639 19.1233C0.204171 19.2982 0.319322 19.4566 0.463518 19.5894C0.607715 19.7221 0.778131 19.8267 0.965034 19.8972C1.15194 19.9676 1.35167 20.0025 1.55282 19.9999H19.4472C19.6483 20.0025 19.8481 19.9676 20.035 19.8972C20.2219 19.8267 20.3923 19.7221 20.5365 19.5894C20.6807 19.4566 20.7958 19.2982 20.8754 19.1233C20.9549 18.9483 20.9972 18.7603 21 18.5699V1.43012C20.9972 1.2397 20.9549 1.05166 20.8754 0.876737C20.7958 0.701814 20.6807 0.543436 20.5365 0.410646C20.3923 0.277857 20.2219 0.173257 20.035 0.102822C19.8481 0.0323869 19.6483 -0.00250476 19.4472 0.000139829ZM6.36972 16.7399H3.2007V7.74003H6.36972V16.7399ZM4.78521 6.48005C4.34816 6.48005 3.92902 6.31569 3.61998 6.02314C3.31094 5.73059 3.13732 5.3338 3.13732 4.92007C3.13732 4.50634 3.31094 4.10955 3.61998 3.817C3.92902 3.52445 4.34816 3.36009 4.78521 3.36009C5.01728 3.33518 5.2523 3.35695 5.47487 3.42398C5.69744 3.491 5.90254 3.60178 6.07675 3.74905C6.25096 3.89632 6.39034 4.07676 6.48578 4.27856C6.58121 4.48036 6.63055 4.69897 6.63055 4.92007C6.63055 5.14117 6.58121 5.35978 6.48578 5.56158C6.39034 5.76338 6.25096 5.94382 6.07675 6.09109C5.90254 6.23836 5.69744 6.34914 5.47487 6.41617C5.2523 6.4832 5.01728 6.50496 4.78521 6.48005ZM17.7993 16.7399H14.6303V11.91C14.6303 10.7 14.1761 9.91 13.0246 9.91C12.6683 9.91247 12.3213 10.0183 12.0305 10.2132C11.7396 10.4081 11.5188 10.6827 11.3979 11C11.3152 11.235 11.2794 11.4826 11.2923 11.73V16.7299H8.12324C8.12324 16.7299 8.12324 8.55002 8.12324 7.73003H11.2923V9.00002C11.5801 8.52713 11.9988 8.13755 12.5033 7.87323C13.0077 7.60892 13.5788 7.47989 14.1549 7.50004C16.2676 7.50004 17.7993 8.79002 17.7993 11.56V16.7399Z" fill="#289F91"/>
</svg>
