<svg width="22" height="20" viewBox="0 0 22 20" fill="none" xmlns="http://www.w3.org/2000/svg">
<path d="M11 7.52C10.4605 7.52 9.93302 7.66545 9.4844 7.93795C9.03579 8.21046 8.68613 8.59778 8.47966 9.05095C8.27318 9.50411 8.21916 10.0028 8.32442 10.4838C8.42968 10.9649 8.6895 11.4068 9.07101 11.7536C9.45253 12.1005 9.93861 12.3367 10.4678 12.4323C10.997 12.528 11.5455 12.4789 12.044 12.2912C12.5424 12.1035 12.9685 11.7856 13.2682 11.3778C13.568 10.97 13.728 10.4905 13.728 10C13.728 9.67432 13.6574 9.35183 13.5203 9.05095C13.3832 8.75006 13.1823 8.47666 12.929 8.24638C12.6757 8.01609 12.3749 7.83341 12.044 7.70878C11.713 7.58415 11.3582 7.52 11 7.52ZM21.923 5.07C21.9172 4.29776 21.7608 3.53257 21.461 2.81C21.2402 2.28126 20.8986 1.80109 20.4587 1.40119C20.0188 1.00128 19.4906 0.690718 18.909 0.49C18.1142 0.217464 17.2725 0.0752609 16.423 0.0699999C15.004 -6.70552e-08 14.586 0 11 0C7.414 0 6.996 -6.70552e-08 5.577 0.0699999C4.72753 0.0752609 3.88583 0.217464 3.091 0.49C2.50939 0.690718 1.9812 1.00128 1.5413 1.40119C1.1014 1.80109 0.759789 2.28126 0.539 2.81C0.23921 3.53257 0.082787 4.29776 0.0769999 5.07C-7.37608e-08 6.36 0 6.74 0 10C0 13.26 -7.37608e-08 13.64 0.0769999 14.93C0.0888403 15.705 0.245052 16.4725 0.539 17.2C0.758811 17.7263 1.10014 18.2037 1.54 18.6C1.97801 19.0023 2.50733 19.3129 3.091 19.51C3.88583 19.7825 4.72753 19.9247 5.577 19.93C6.996 20 7.414 20 11 20C14.586 20 15.004 20 16.423 19.93C17.2725 19.9247 18.1142 19.7825 18.909 19.51C19.4927 19.3129 20.022 19.0023 20.46 18.6C20.8999 18.2037 21.2412 17.7263 21.461 17.2C21.7605 16.4739 21.9169 15.7055 21.923 14.93C22 13.64 22 13.26 22 10C22 6.74 22 6.36 21.923 5.07ZM19.129 13.07C19.0937 13.6871 18.9488 14.295 18.7 14.87C18.4865 15.3497 18.169 15.7854 17.7665 16.1514C17.364 16.5173 16.8847 16.8059 16.357 17C15.7185 17.2136 15.0461 17.3318 14.366 17.35C13.497 17.35 13.266 17.35 11 17.35C8.734 17.35 8.503 17.35 7.634 17.35C6.9539 17.3318 6.28154 17.2136 5.643 17C5.09751 16.8157 4.6049 16.5217 4.202 16.14C3.80343 15.7813 3.49563 15.3479 3.3 14.87C3.06411 14.2901 2.93767 13.6782 2.926 13.06C2.926 12.27 2.926 12.06 2.926 10C2.926 7.94 2.926 7.73 2.926 6.94C2.93767 6.32183 3.06411 5.70988 3.3 5.13C3.50271 4.6341 3.8261 4.18628 4.246 3.82C4.64237 3.45962 5.11859 3.18009 5.643 3C6.28154 2.78641 6.9539 2.66821 7.634 2.65C8.503 2.65 8.734 2.65 11 2.65C13.266 2.65 13.497 2.65 14.366 2.65C15.0461 2.66821 15.7185 2.78641 16.357 3C16.9025 3.18428 17.3951 3.47827 17.798 3.86C18.1966 4.21875 18.5044 4.65213 18.7 5.13C18.935 5.71049 19.065 6.32173 19.085 6.94C19.085 7.73 19.085 7.94 19.085 10C19.085 12.06 19.162 12.27 19.129 13.06V13.07ZM17.369 5.63C17.238 5.30698 17.0315 5.01364 16.7638 4.77021C16.496 4.52678 16.1733 4.33906 15.818 4.22C15.3301 4.06626 14.8163 3.99179 14.3 4C13.442 4 13.2 4 11 4C8.8 4 8.558 4 7.7 4C7.18109 4.00461 6.66718 4.09263 6.182 4.26C5.83212 4.37366 5.51286 4.55371 5.24544 4.7882C4.97802 5.02269 4.76857 5.30624 4.631 5.62C4.47125 6.06537 4.39321 6.5316 4.4 7C4.4 7.78 4.4 8 4.4 10C4.4 12 4.4 12.22 4.4 13C4.41091 13.4712 4.50755 13.9375 4.686 14.38C4.81697 14.703 5.02346 14.9964 5.29123 15.2398C5.55901 15.4832 5.88168 15.6709 6.237 15.79C6.70633 15.9469 7.20022 16.0347 7.7 16.05C8.558 16.05 8.8 16.05 11 16.05C13.2 16.05 13.442 16.05 14.3 16.05C14.8189 16.0454 15.3328 15.9574 15.818 15.79C16.1733 15.6709 16.496 15.4832 16.7638 15.2398C17.0315 14.9964 17.238 14.703 17.369 14.38C17.5531 13.9389 17.6499 13.4717 17.655 13C17.655 12.22 17.655 12 17.655 10C17.655 8 17.655 7.78 17.655 7C17.6553 6.5278 17.5583 6.05972 17.369 5.62V5.63ZM11 13.82C10.4487 13.82 9.90282 13.7211 9.39363 13.529C8.88443 13.3369 8.42193 13.0554 8.03262 12.7005C7.64331 12.3457 7.33483 11.9245 7.12486 11.4611C6.91489 10.9977 6.80755 10.5012 6.809 10C6.809 9.24405 7.05573 8.5051 7.51794 7.87669C7.98015 7.24828 8.63706 6.75866 9.40552 6.46983C10.174 6.181 11.0194 6.10594 11.8348 6.25415C12.6502 6.40236 13.3989 6.76717 13.9862 7.30241C14.5734 7.83764 14.9727 8.51924 15.1336 9.2609C15.2945 10.0026 15.2097 10.771 14.89 11.4688C14.5702 12.1666 14.03 12.7625 13.3375 13.1811C12.645 13.5996 11.8315 13.822 11 13.82ZM15.4 6.93C15.1568 6.9066 14.9318 6.80222 14.7683 6.63697C14.6047 6.47172 14.5142 6.25729 14.5142 6.035C14.5142 5.81271 14.6047 5.59828 14.7683 5.43303C14.9318 5.26778 15.1568 5.1634 15.4 5.14C15.6432 5.1634 15.8682 5.26778 16.0317 5.43303C16.1953 5.59828 16.2858 5.81271 16.2858 6.035C16.2858 6.25729 16.1953 6.47172 16.0317 6.63697C15.8682 6.80222 15.6432 6.9066 15.4 6.93Z" fill="#289F91"/>
</svg>
