<svg width="53" height="40" viewBox="0 0 53 40" fill="none" xmlns="http://www.w3.org/2000/svg">
<path d="M42.742 9.41211H41.0323V14.118H42.742V9.41211Z" fill="white"/>
<path d="M42.742 17.6475H41.0323V22.3533H42.742V17.6475Z" fill="white"/>
<path d="M50.4355 0H2.56452C1.88436 0 1.23207 0.371847 0.751129 1.03374C0.270189 1.69563 0 2.59335 0 3.52941V15.2941C0 15.9182 0.180126 16.5166 0.500753 16.9579C0.82138 17.3992 1.25624 17.6471 1.70968 17.6471C2.16311 17.6471 2.59798 17.895 2.9186 18.3362C3.23923 18.7775 3.41935 19.376 3.41935 20C3.41935 20.624 3.23923 21.2225 2.9186 21.6638C2.59798 22.105 2.16311 22.3529 1.70968 22.3529C1.25624 22.3529 0.82138 22.6008 0.500753 23.0421C0.180126 23.4834 0 24.0818 0 24.7059V36.4706C0 37.4066 0.270189 38.3044 0.751129 38.9663C1.23207 39.6282 1.88436 40 2.56452 40H50.4355C51.1156 40 51.7679 39.6282 52.2489 38.9663C52.7298 38.3044 53 37.4066 53 36.4706V3.52941C53 2.59335 52.7298 1.69563 52.2489 1.03374C51.7679 0.371847 51.1156 0 50.4355 0ZM51.2903 36.4706C51.2903 36.7826 51.2003 37.0818 51.0399 37.3025C50.8796 37.5231 50.6622 37.6471 50.4355 37.6471H42.7419V34.1176H41.0323V37.6471H2.56452C2.3378 37.6471 2.12037 37.5231 1.96005 37.3025C1.79974 37.0818 1.70968 36.7826 1.70968 36.4706V24.7059C2.61655 24.7059 3.48627 24.2101 4.12753 23.3276C4.76878 22.445 5.12903 21.2481 5.12903 20C5.12903 18.7519 4.76878 17.555 4.12753 16.6724C3.48627 15.7899 2.61655 15.2941 1.70968 15.2941V3.52941C1.70968 3.21739 1.79974 2.91815 1.96005 2.69752C2.12037 2.47689 2.3378 2.35294 2.56452 2.35294H41.0323V5.88235H42.7419V2.35294H50.4355C50.6622 2.35294 50.8796 2.47689 51.0399 2.69752C51.2003 2.91815 51.2903 3.21739 51.2903 3.52941V36.4706Z" fill="white"/>
<path d="M9.40357 7.059V4.70605H4.27454V7.059H5.98421V16.4708H7.69389V7.059H9.40357Z" fill="white"/>
<path d="M12.8224 4.70605H11.1127V16.4708H12.8224V4.70605Z" fill="white"/>
<path d="M17.0968 16.4708C17.777 16.4708 18.4293 16.0989 18.9102 15.437C19.3911 14.7751 19.6613 13.8774 19.6613 12.9413H17.9516C17.9516 13.2534 17.8616 13.5526 17.7013 13.7732C17.541 13.9939 17.3235 14.1178 17.0968 14.1178C16.8701 14.1178 16.6527 13.9939 16.4923 13.7732C16.332 13.5526 16.242 13.2534 16.242 12.9413V8.23547C16.242 7.92345 16.332 7.62421 16.4923 7.40358C16.6527 7.18294 16.8701 7.059 17.0968 7.059C17.3235 7.059 17.541 7.18294 17.7013 7.40358C17.8616 7.62421 17.9516 7.92345 17.9516 8.23547H19.6613C19.6613 7.29941 19.3911 6.40169 18.9102 5.73979C18.4293 5.0779 17.777 4.70605 17.0968 4.70605C16.4167 4.70605 15.7644 5.0779 15.2834 5.73979C14.8025 6.40169 14.5323 7.29941 14.5323 8.23547V12.9413C14.5323 13.8774 14.8025 14.7751 15.2834 15.437C15.7644 16.0989 16.4167 16.4708 17.0968 16.4708ZM23.0807 11.7649H23.5816L24.7904 13.4284V16.4708H26.5V12.9413C26.5 12.6294 26.4099 12.3302 26.2496 12.1096L25.1443 10.5884L26.2496 9.06723C26.4099 8.84665 26.5 8.54746 26.5 8.23547V4.70605H24.7904V7.74841L23.5816 9.41194H23.0807V4.70605H21.371V16.4708H23.0807V11.7649ZM29.0645 16.4708H32.4839V14.1178H29.9194V11.7649H32.4839V9.41194H29.9194V7.059H32.4839V4.70605H29.0645C28.8378 4.70605 28.6204 4.83 28.4601 5.05063C28.2998 5.27127 28.2097 5.57051 28.2097 5.88253V15.2943C28.2097 15.6063 28.2998 15.9055 28.4601 16.1262C28.6204 16.3468 28.8378 16.4708 29.0645 16.4708Z" fill="white"/>
<path d="M34.1938 7.059H35.9035V16.4708H37.6131V7.059H39.3228V4.70605H34.1938V7.059Z" fill="white"/>
<path d="M42.742 25.8818H41.0323V30.5877H42.742V25.8818Z" fill="white"/>
<path d="M49.5806 4.70605H44.4515V7.059H49.5806V4.70605Z" fill="white"/>
<path d="M49.5806 9.41211H44.4515V11.7651H49.5806V9.41211Z" fill="white"/>
<path d="M49.5806 14.1182H44.4515V16.4711H49.5806V14.1182Z" fill="white"/>
<path d="M49.5806 18.8232H44.4515V21.1762H49.5806V18.8232Z" fill="white"/>
<path d="M49.5806 23.5283H44.4515V25.8813H49.5806V23.5283Z" fill="white"/>
<path d="M49.5806 28.2344H44.4515V30.5873H49.5806V28.2344Z" fill="white"/>
<path d="M49.5806 32.9414H44.4515V35.2943H49.5806V32.9414Z" fill="white"/>
<path d="M11.9676 23.5283C11.2874 23.5283 10.6351 23.9002 10.1542 24.5621C9.67327 25.224 9.40308 26.1217 9.40308 27.0577V31.7636C9.40308 32.6997 9.67327 33.5974 10.1542 34.2593C10.6351 34.9212 11.2874 35.293 11.9676 35.293C12.6477 35.293 13.3 34.9212 13.781 34.2593C14.2619 33.5974 14.5321 32.6997 14.5321 31.7636V27.0577C14.5321 26.1217 14.2619 25.224 13.781 24.5621C13.3 23.9002 12.6477 23.5283 11.9676 23.5283ZM12.8224 31.7636C12.8224 32.0756 12.7324 32.3749 12.5721 32.5955C12.4117 32.8161 12.1943 32.9401 11.9676 32.9401C11.7409 32.9401 11.5234 32.8161 11.3631 32.5955C11.2028 32.3749 11.1128 32.0756 11.1128 31.7636V27.0577C11.1128 26.7457 11.2028 26.4465 11.3631 26.2258C11.5234 26.0052 11.7409 25.8813 11.9676 25.8813C12.1943 25.8813 12.4117 26.0052 12.5721 26.2258C12.7324 26.4465 12.8224 26.7457 12.8224 27.0577V31.7636ZM18.8063 23.5283C18.1262 23.5283 17.4739 23.9002 16.9929 24.5621C16.512 25.224 16.2418 26.1217 16.2418 27.0577V31.7636C16.2418 32.6997 16.512 33.5974 16.9929 34.2593C17.4739 34.9212 18.1262 35.293 18.8063 35.293C19.4865 35.293 20.1387 34.9212 20.6197 34.2593C21.1006 33.5974 21.3708 32.6997 21.3708 31.7636V27.0577C21.3708 26.1217 21.1006 25.224 20.6197 24.5621C20.1387 23.9002 19.4865 23.5283 18.8063 23.5283ZM19.6611 31.7636C19.6611 32.0756 19.5711 32.3749 19.4108 32.5955C19.2505 32.8161 19.033 32.9401 18.8063 32.9401C18.5796 32.9401 18.3622 32.8161 18.2018 32.5955C18.0415 32.3749 17.9515 32.0756 17.9515 31.7636V27.0577C17.9515 26.7457 18.0415 26.4465 18.2018 26.2258C18.3622 26.0052 18.5796 25.8813 18.8063 25.8813C19.033 25.8813 19.2505 26.0052 19.4108 26.2258C19.5711 26.4465 19.6611 26.7457 19.6611 27.0577V31.7636ZM25.645 23.5283C24.9649 23.5283 24.3126 23.9002 23.8316 24.5621C23.3507 25.224 23.0805 26.1217 23.0805 27.0577V31.7636C23.0805 32.6997 23.3507 33.5974 23.8316 34.2593C24.3126 34.9212 24.9649 35.293 25.645 35.293C26.3252 35.293 26.9775 34.9212 27.4584 34.2593C27.9393 33.5974 28.2095 32.6997 28.2095 31.7636V27.0577C28.2095 26.1217 27.9393 25.224 27.4584 24.5621C26.9775 23.9002 26.3252 23.5283 25.645 23.5283ZM26.4999 31.7636C26.4999 32.0756 26.4098 32.3749 26.2495 32.5955C26.0892 32.8161 25.8717 32.9401 25.645 32.9401C25.4183 32.9401 25.2009 32.8161 25.0405 32.5955C24.8802 32.3749 24.7902 32.0756 24.7902 31.7636V27.0577C24.7902 26.7457 24.8802 26.4465 25.0405 26.2258C25.2009 26.0052 25.4183 25.8813 25.645 25.8813C25.8717 25.8813 26.0892 26.0052 26.2495 26.2258C26.4098 26.4465 26.4999 26.7457 26.4999 27.0577V31.7636ZM32.4837 23.5283C31.8036 23.5283 31.1513 23.9002 30.6703 24.5621C30.1894 25.224 29.9192 26.1217 29.9192 27.0577V31.7636C29.9192 32.6997 30.1894 33.5974 30.6703 34.2593C31.1513 34.9212 31.8036 35.293 32.4837 35.293C33.1639 35.293 33.8162 34.9212 34.2971 34.2593C34.778 33.5974 35.0482 32.6997 35.0482 31.7636V27.0577C35.0482 26.1217 34.778 25.224 34.2971 24.5621C33.8162 23.9002 33.1639 23.5283 32.4837 23.5283ZM33.3386 31.7636C33.3386 32.0756 33.2485 32.3749 33.0882 32.5955C32.9279 32.8161 32.7104 32.9401 32.4837 32.9401C32.257 32.9401 32.0396 32.8161 31.8793 32.5955C31.7189 32.3749 31.6289 32.0756 31.6289 31.7636V27.0577C31.6289 26.7457 31.7189 26.4465 31.8793 26.2258C32.0396 26.0052 32.257 25.8813 32.4837 25.8813C32.7104 25.8813 32.9279 26.0052 33.0882 26.2258C33.2485 26.4465 33.3386 26.7457 33.3386 27.0577V31.7636Z" fill="white"/>
<path d="M37.6126 18.8232H8.5481V21.1762H37.6126V18.8232Z" fill="white"/>
</svg>
