<svg width="50" height="50" viewBox="0 0 50 50" fill="none" xmlns="http://www.w3.org/2000/svg">
<rect width="50" height="50" rx="5" fill="#289F91"/>
<rect width="50" height="50" rx="5" fill="url(#paint0_linear_2220_422)" fill-opacity="0.2"/>
<path d="M38.7575 26.692C38.4138 26.6912 38.0748 26.787 37.7686 26.9714L31.0009 31.0039H30.0899C30.2743 30.6175 30.371 30.1814 30.3706 29.7378C30.3706 28.3047 29.3781 27.1389 28.1582 27.1389H21.1258C21.0401 27.1389 20.9555 27.162 20.8786 27.2064L16.0755 29.9749V29.8425C16.0755 28.9188 15.4196 28.1385 14.6433 28.1385H12.3885C11.6229 28.1385 11 28.9029 11 29.8424V38.3682C11 39.2832 11.6099 40 12.3885 40H14.6433C15.433 40 16.0755 39.2681 16.0755 38.3683V38.2674H21.4076C21.4413 38.2674 21.4748 38.2638 21.508 38.2568L32.7397 35.8567C32.7933 35.8452 32.8452 35.8246 32.8938 35.7956L39.7819 31.6793C40.875 31.0241 41.3141 29.442 40.7607 28.1525C40.3741 27.2516 39.6065 26.692 38.7575 26.692ZM14.9476 38.3683C14.9476 38.553 14.7897 38.6672 14.6433 38.6672H12.3885C12.2302 38.6672 12.1279 38.5499 12.1279 38.3683V29.8424C12.1279 29.6668 12.2349 29.4712 12.3885 29.4712H14.6433C14.7969 29.4712 14.9476 29.6551 14.9476 29.8424L14.9476 38.3683ZM39.2723 30.4903L32.4581 34.5624L21.357 36.9347H16.0755V31.4578L21.256 28.4717H28.1582C28.7563 28.4717 29.2428 29.0396 29.2428 29.7378C29.2428 30.4359 28.7563 31.0039 28.1582 31.0039H21.8841C21.5727 31.0039 21.3202 31.3023 21.3202 31.6703C21.3202 32.0383 21.5727 32.3367 21.8841 32.3367H31.135C31.2232 32.3367 31.3102 32.3122 31.3889 32.2653L38.2776 28.1607C38.4262 28.0711 38.5907 28.0244 38.7575 28.0247C39.1729 28.0247 39.5644 28.3115 39.7548 28.7552C40.0269 29.3893 39.8102 30.1679 39.2723 30.4903ZM19.9235 17.2385C19.9235 21.2299 22.6716 24.477 26.0494 24.477C29.4272 24.477 32.1752 21.2298 32.1752 17.2385C32.1752 13.2472 29.4271 10 26.0494 10C22.6716 10 19.9235 13.2471 19.9235 17.2385ZM31.0473 17.2385C31.0473 20.4949 28.8053 23.1442 26.0494 23.1442C23.2935 23.1442 21.0514 20.4949 21.0514 17.2385C21.0514 13.9821 23.2935 11.3328 26.0494 11.3328C28.8053 11.3328 31.0473 13.9821 31.0473 17.2385Z" fill="white"/>
<path d="M25.4893 12.6536V13.7828C24.5043 13.9903 23.9191 14.7509 23.9191 15.7419C23.9191 16.8135 24.5823 17.3667 25.6063 17.8045C26.3279 18.1157 26.6693 18.4498 26.6693 18.9684C26.6693 19.5215 26.2499 19.8788 25.6355 19.8788C25.0406 19.8788 24.4945 19.6367 24.1142 19.3718L23.8508 20.455C24.2019 20.7315 24.8163 20.939 25.4307 20.962V22.0798H26.2305V20.8929C27.3031 20.6855 27.8785 19.8211 27.8785 18.8417C27.8785 17.8161 27.3909 17.1938 26.2987 16.7098C25.4697 16.3181 25.1187 16.053 25.1187 15.5806C25.1187 15.1888 25.3625 14.7739 26.0451 14.7739C26.7082 14.7739 27.1373 15.039 27.3714 15.1658L27.6347 14.1057C27.3226 13.9212 26.9033 13.7484 26.2889 13.7253V12.6536H25.4893Z" fill="white"/>
<defs>
<linearGradient id="paint0_linear_2220_422" x1="0" y1="25" x2="19" y2="25" gradientUnits="userSpaceOnUse">
<stop stop-color="#91E0D7" stop-opacity="0"/>
<stop offset="1" stop-color="#A8EDE5"/>
</linearGradient>
</defs>
</svg>
