<svg width="50" height="50" viewBox="0 0 50 50" fill="none" xmlns="http://www.w3.org/2000/svg">
<rect width="50" height="50" rx="5" fill="#289F91"/>
<rect width="50" height="50" rx="5" fill="url(#paint0_linear_2220_421)" fill-opacity="0.2"/>
<path d="M35.4273 31.385L39.4416 26.6982C39.6946 26.4047 39.8694 26.0519 39.9498 25.6725C40.0303 25.2931 40.0138 24.8995 39.9018 24.5282L37.5865 16.7876C37.4899 16.466 37.2813 16.1899 36.9987 16.0095C36.7161 15.8291 36.3784 15.7565 36.0469 15.8048C35.7154 15.8531 35.4123 16.0192 35.1926 16.2728C34.973 16.5265 34.8514 16.8507 34.8501 17.1867C34.8501 17.2195 34.8511 17.2523 34.8534 17.2823L35.1761 22.0006C35.0186 21.987 34.86 22.0071 34.7108 22.0594C34.5616 22.1118 34.4251 22.1953 34.3105 22.3044L30.348 26.0937C29.9003 26.5231 29.5438 27.0387 29.2996 27.6097C29.0555 28.1806 28.9289 28.7951 28.9274 29.4164V33.0404C28.6792 33.1871 28.4733 33.3963 28.3302 33.6472C28.1871 33.8981 28.1116 34.182 28.1112 34.471V38.5605C28.1112 38.6771 28.1574 38.7889 28.2396 38.8713C28.3217 38.9537 28.4332 39 28.5494 39C28.6656 39 28.7771 38.9537 28.8593 38.8713C28.9414 38.7889 28.9876 38.6771 28.9876 38.5605V35.5283H34.8501V38.5605C34.8501 38.6771 34.8963 38.7889 34.9784 38.8713C35.0606 38.9537 35.1721 39 35.2883 39C35.4045 39 35.516 38.9537 35.5981 38.8713C35.6803 38.7889 35.7265 38.6771 35.7265 38.5605V34.471C35.7261 34.1889 35.6542 33.9115 35.5174 33.6649C35.3807 33.4183 35.1836 33.2107 34.9447 33.0616V32.69C34.945 32.2112 35.1162 31.7482 35.4273 31.385ZM34.85 34.6494H28.9876V34.471C28.9886 34.2622 29.0722 34.0622 29.22 33.9151C29.3678 33.768 29.5678 33.6856 29.776 33.6861H34.0616C34.2698 33.6856 34.4698 33.768 34.6176 33.9151C34.7654 34.0622 34.849 34.2622 34.85 34.471L34.85 34.6494ZM34.7624 30.8124C34.3148 31.335 34.0686 32.0011 34.0683 32.69V32.8074C34.0661 32.8074 34.0639 32.8072 34.0616 32.8072H29.8038V29.4164C29.8051 28.914 29.9075 28.4172 30.105 27.9555C30.3024 27.4938 30.5908 27.0769 30.9528 26.7297L34.9155 22.9403C34.9618 22.8963 35.0235 22.8721 35.0873 22.8729C35.1512 22.8737 35.2122 22.8994 35.2574 22.9446L35.2901 22.9779C35.3025 22.9904 35.3144 23.0031 35.326 23.016C35.3298 23.0207 35.3337 23.0252 35.3377 23.0298C35.5549 23.2762 35.6697 23.5967 35.6584 23.9254C35.6471 24.2542 35.5105 24.566 35.2769 24.7968L33.0783 26.9707C32.9977 27.0529 32.9526 27.1637 32.9527 27.279C32.9528 27.3944 32.9981 27.5051 33.0789 27.5872C33.1596 27.6693 33.2693 27.7163 33.3843 27.7181C33.4993 27.7198 33.6104 27.6761 33.6935 27.5965L35.8922 25.4226C36.2661 25.0529 36.4928 24.5593 36.5298 24.034C36.5668 23.5088 36.4117 22.9881 36.0934 22.5693L35.7275 17.2185C35.7268 17.2079 35.7264 17.1973 35.7265 17.1867C35.7279 17.0618 35.7738 16.9416 35.8559 16.8478C35.938 16.7539 36.0508 16.6926 36.174 16.6749C36.2972 16.6571 36.4227 16.6842 36.5278 16.7511C36.6329 16.8181 36.7106 16.9205 36.747 17.0399L39.0624 24.7807C39.1317 25.0108 39.1419 25.2547 39.092 25.4898C39.0421 25.7249 38.9337 25.9435 38.777 26.1253L34.7624 30.8124ZM21.0726 33.0404V29.332C21.0711 28.7108 20.9445 28.0962 20.7004 27.5253C20.4563 26.9543 20.0997 26.4387 19.6521 26.0093L15.6897 22.2201C15.575 22.111 15.4385 22.0275 15.2893 21.9751C15.1401 21.9228 14.9815 21.9028 14.824 21.9164L15.1462 17.2028C15.1487 17.1712 15.15 17.1383 15.15 17.1023C15.1486 16.7664 15.027 16.4422 14.8074 16.1887C14.5878 15.9352 14.2847 15.7691 13.9533 15.7207C13.6219 15.6724 13.2842 15.7449 13.0017 15.9252C12.7191 16.1054 12.5105 16.3814 12.4137 16.703L10.0982 24.4438C9.98624 24.815 9.96972 25.2086 10.0502 25.588C10.1306 25.9674 10.3054 26.3202 10.5583 26.6136L14.5727 31.3005C14.8838 31.6638 15.055 32.1268 15.0553 32.6056V33.0616C14.8165 33.2107 14.6194 33.4184 14.4827 33.6649C14.3459 33.9115 14.274 34.1889 14.2737 34.471V38.5605C14.2737 38.6771 14.3199 38.7889 14.402 38.8713C14.4842 38.9537 14.5957 39 14.7119 39C14.8281 39 14.9396 38.9537 15.0217 38.8713C15.1039 38.7889 15.1501 38.6771 15.1501 38.5605V35.5283H21.0124V38.5605C21.0124 38.6771 21.0586 38.7889 21.1408 38.8713C21.223 38.9537 21.3344 39 21.4506 39C21.5669 39 21.6783 38.9537 21.7605 38.8713C21.8427 38.7889 21.8888 38.6771 21.8888 38.5605V34.471C21.8885 34.182 21.813 33.8981 21.6699 33.6472C21.5267 33.3963 21.3209 33.1871 21.0726 33.0404ZM11.223 26.0408C11.0662 25.859 10.9579 25.6404 10.908 25.4054C10.8581 25.1703 10.8683 24.9264 10.9376 24.6964L13.2532 16.9551C13.2896 16.8357 13.3674 16.7333 13.4724 16.6664C13.5775 16.5995 13.703 16.5725 13.8263 16.5902C13.9495 16.608 14.0623 16.6694 14.1444 16.7633C14.2264 16.8572 14.2722 16.9774 14.2736 17.1023C14.2736 17.1125 14.2735 17.1226 14.2722 17.1379L13.9067 22.4844C13.5883 22.9033 13.4332 23.4241 13.4702 23.9494C13.5073 24.4748 13.734 24.9685 14.1079 25.3383L16.3065 27.5121C16.3474 27.5527 16.396 27.5847 16.4493 27.6064C16.5026 27.6281 16.5597 27.6391 16.6172 27.6387C16.6748 27.6382 16.7317 27.6265 16.7847 27.604C16.8377 27.5816 16.8858 27.5488 16.9262 27.5077C16.9666 27.4666 16.9985 27.418 17.0202 27.3645C17.0418 27.311 17.0527 27.2538 17.0523 27.1961C17.0519 27.1384 17.0402 27.0813 17.0178 27.0281C16.9954 26.975 16.9628 26.9268 16.9218 26.8862L14.7233 24.7125C14.4895 24.4814 14.3529 24.1692 14.3417 23.8402C14.3306 23.5111 14.4456 23.1904 14.6632 22.9439C14.6782 22.9268 14.6934 22.91 14.7128 22.8907L14.7417 22.861C14.787 22.8156 14.8482 22.7896 14.9122 22.7887C14.9763 22.7878 15.0382 22.8119 15.0848 22.856L19.0472 26.6452C19.4092 26.9924 19.6976 27.4093 19.8951 27.871C20.0925 28.3327 20.195 28.8296 20.1962 29.332V32.8072H15.9385C15.9362 32.8072 15.934 32.8073 15.9317 32.8074V32.6056C15.9314 31.9167 15.6852 31.2506 15.2376 30.7279L11.223 26.0408ZM21.0124 34.6494H15.1501V34.471C15.1511 34.2622 15.2347 34.0622 15.3825 33.9151C15.5303 33.768 15.7302 33.6856 15.9385 33.6861H20.224C20.4323 33.6856 20.6322 33.7679 20.7801 33.9151C20.9279 34.0622 21.0114 34.2622 21.0124 34.471V34.6494ZM26.4032 24.9837C27.7746 24.5611 28.8672 24.1222 29.0647 23.3026C29.0985 23.1678 29.1041 23.0274 29.0812 22.8904C29.0582 22.7533 29.0072 22.6224 28.9313 22.5061C28.6336 22.0398 27.9437 21.7321 27.0379 21.4807C28.5195 21.1315 29.6381 20.6998 29.8547 19.8677C29.8877 19.7457 29.8954 19.6181 29.8773 19.493C29.8592 19.3678 29.8156 19.2478 29.7494 19.1402C29.4748 18.6855 28.825 18.3685 27.5762 18.0802C27.5201 18.0673 27.462 18.0655 27.4053 18.0751C27.3485 18.0846 27.2942 18.1053 27.2454 18.1359C27.1469 18.1978 27.0769 18.2963 27.0508 18.4099C27.0247 18.5235 27.0447 18.6428 27.1064 18.7416C27.168 18.8404 27.2663 18.9106 27.3796 18.9367C28.6616 19.2328 28.9396 19.496 28.9997 19.5955C29.0052 19.6024 29.0088 19.6108 29.01 19.6196C29.0113 19.6285 29.0101 19.6375 29.0067 19.6457C28.9796 19.75 28.8116 20.0272 27.841 20.3473C27.1568 20.573 26.2734 20.7559 25.3962 20.9301V17.1299H29.639L29.6397 17.13L29.641 17.1299H32.2186C32.3472 17.1299 32.4732 17.0929 32.5815 17.0232C32.6898 16.9535 32.7758 16.8541 32.8294 16.7368C32.883 16.6195 32.9019 16.4892 32.8838 16.3615C32.8657 16.2337 32.8115 16.1139 32.7275 16.0161L29.8087 12.6206C29.4234 12.17 28.8974 11.8634 28.3162 11.7507C27.7351 11.638 27.133 11.7258 26.608 11.9999L25.3962 12.6285V11.8622C25.7291 11.7572 26.0135 11.5362 26.1979 11.2391C26.3824 10.942 26.4547 10.5885 26.4017 10.2425C26.3487 9.89662 26.174 9.58114 25.9092 9.35322C25.6444 9.1253 25.3069 9 24.958 9C24.609 9 24.2715 9.1253 24.0067 9.35322C23.7419 9.58114 23.5672 9.89662 23.5142 10.2425C23.4613 10.5885 23.5336 10.942 23.718 11.2391C23.9024 11.5362 24.1869 11.7572 24.5198 11.8622V12.6286L23.308 11.9999C22.7829 11.7258 22.1809 11.638 21.5997 11.7507C21.0186 11.8634 20.4926 12.17 20.1073 12.6206L17.1885 16.0161C17.1044 16.1139 17.0502 16.2337 17.0321 16.3615C17.014 16.4892 17.0329 16.6195 17.0865 16.7368C17.1401 16.8541 17.2262 16.9535 17.3344 17.0232C17.4427 17.0929 17.5687 17.1299 17.6973 17.1299H20.2749L20.2762 17.13L20.2769 17.1299H24.5198V20.9301C23.6426 20.7559 22.7591 20.573 22.0749 20.3473C21.1043 20.0271 20.9364 19.75 20.9092 19.6457C20.9058 19.6374 20.9046 19.6284 20.9059 19.6196C20.9071 19.6108 20.9107 19.6024 20.9162 19.5955C20.9763 19.496 21.2543 19.2328 22.5361 18.9368C22.5926 18.9243 22.6461 18.9007 22.6935 18.8674C22.7409 18.834 22.7812 18.7916 22.8122 18.7425C22.8431 18.6934 22.8641 18.6387 22.8738 18.5815C22.8835 18.5242 22.8818 18.4656 22.8688 18.409C22.8559 18.3525 22.8318 18.299 22.7981 18.2518C22.7644 18.2046 22.7217 18.1646 22.6725 18.134C22.6233 18.1034 22.5685 18.083 22.5113 18.0737C22.4542 18.0645 22.3958 18.0668 22.3395 18.0803C21.0909 18.3686 20.441 18.6856 20.1666 19.1402C20.1003 19.2478 20.0568 19.3679 20.0387 19.493C20.0205 19.6182 20.0282 19.7457 20.0612 19.8677C20.2779 20.6998 21.3964 21.1315 22.8781 21.4808C21.9722 21.7321 21.2824 22.0398 20.9846 22.5061C20.9088 22.6224 20.8577 22.7533 20.8348 22.8904C20.8118 23.0274 20.8174 23.1678 20.8512 23.3026C21.0487 24.1222 22.1414 24.5611 23.5127 24.9838C22.8552 25.2499 22.3554 25.5568 22.1299 25.9768C22.0628 26.0998 22.0213 26.2352 22.0079 26.3748C21.9944 26.5144 22.0093 26.6553 22.0516 26.7889C22.2549 27.4562 22.982 27.8751 23.8499 28.2553C22.9494 28.7096 22.251 29.2876 22.4559 30.2001C22.4814 30.3138 22.5509 30.4127 22.6492 30.4749C22.7474 30.5372 22.8663 30.5578 22.9797 30.5322C23.0931 30.5066 23.1917 30.4369 23.2538 30.3383C23.3159 30.2398 23.3364 30.1206 23.3109 30.0069C23.2219 29.6108 23.7331 29.27 24.5198 28.9098V30.1034C24.5198 30.22 24.5659 30.3318 24.6481 30.4142C24.7303 30.4966 24.8417 30.5429 24.958 30.5429C25.0742 30.5429 25.1856 30.4966 25.2678 30.4142C25.35 30.3318 25.3962 30.22 25.3962 30.1034V28.9098C26.1828 29.27 26.694 29.6107 26.6051 30.0069C26.5919 30.0634 26.5901 30.1219 26.5996 30.179C26.6092 30.2362 26.6299 30.291 26.6606 30.3401C26.6913 30.3892 26.7315 30.4317 26.7786 30.4652C26.8258 30.4987 26.8791 30.5225 26.9355 30.5353C26.9919 30.548 27.0503 30.5494 27.1072 30.5394C27.1642 30.5295 27.2186 30.5083 27.2674 30.4771C27.3161 30.446 27.3582 30.4054 27.3913 30.3579C27.4244 30.3103 27.4477 30.2567 27.46 30.2C27.665 29.2876 26.9665 28.7096 26.0661 28.2553C26.9339 27.8751 27.6611 27.4561 27.8644 26.789C27.9067 26.6553 27.9216 26.5144 27.9081 26.3749C27.8946 26.2353 27.8531 26.0999 27.786 25.9769C27.5605 25.5567 27.0607 25.2499 26.4032 24.9837ZM24.5198 27.5858C23.7788 27.2758 23.0054 26.9117 22.8897 26.5322C22.881 26.5097 22.8776 26.4856 22.8797 26.4615C22.8817 26.4375 22.8892 26.4143 22.9015 26.3936C23.0622 26.0942 23.7482 25.8102 24.5198 25.556V27.5858ZM24.5198 24.3683C23.8106 24.1589 23.078 23.9423 22.5295 23.7006C21.842 23.3977 21.7225 23.1769 21.703 23.0961C21.697 23.0766 21.6956 23.0559 21.6991 23.0357C21.7025 23.0156 21.7106 22.9965 21.7227 22.9801C21.981 22.5755 23.262 22.2609 24.5198 22.0017V24.3683ZM24.5198 16.2511H22.1783C22.2557 16.1808 22.3296 16.1068 22.4 16.0293C22.6731 15.7255 22.8887 15.3743 23.0362 14.993C23.0785 14.8845 23.0761 14.7635 23.0295 14.6567C22.9828 14.55 22.8958 14.4662 22.7876 14.4237C22.6793 14.3813 22.5587 14.3838 22.4523 14.4305C22.3458 14.4773 22.2622 14.5645 22.2199 14.6731C22.1109 14.9552 21.9516 15.2151 21.7497 15.44C21.245 16.0001 20.5991 16.188 20.2387 16.2511H18.1436L20.771 13.1946C21.0279 12.8941 21.3787 12.6896 21.7662 12.6145C22.1537 12.5393 22.5552 12.5979 22.9053 12.7806L24.5198 13.6181V16.2511ZM28.1932 22.98C28.2053 22.9964 28.2135 23.0155 28.2169 23.0357C28.2203 23.0559 28.2189 23.0765 28.2129 23.0961C28.1934 23.1769 28.0739 23.3977 27.3864 23.7006C26.8379 23.9423 26.1053 24.1588 25.3962 24.3683V22.0017C26.654 22.2609 27.9349 22.5754 28.1932 22.98ZM27.0106 12.7807C27.3607 12.5979 27.7622 12.5393 28.1497 12.6145C28.5372 12.6896 28.888 12.8941 29.1449 13.1946L31.7723 16.2511H29.6773C29.3168 16.188 28.6709 16.0001 28.1662 15.44C27.9643 15.2151 27.805 14.9552 27.696 14.673C27.6754 14.6188 27.6443 14.5692 27.6045 14.5271C27.5646 14.485 27.5169 14.4512 27.464 14.4277C27.4111 14.4042 27.3541 14.3915 27.2962 14.3902C27.2384 14.3889 27.1809 14.3991 27.127 14.4202C27.0731 14.4413 27.0239 14.473 26.9823 14.5133C26.9406 14.5535 26.9073 14.6017 26.8844 14.655C26.8614 14.7082 26.8491 14.7655 26.8484 14.8235C26.8476 14.8815 26.8582 14.9392 26.8798 14.993C27.0273 15.3744 27.2429 15.7255 27.516 16.0294C27.5863 16.1068 27.6602 16.1808 27.7376 16.2511H25.3962V13.6181L27.0106 12.7807ZM24.958 11.0507C24.8424 11.0507 24.7294 11.0163 24.6334 10.9519C24.5373 10.8876 24.4624 10.7961 24.4182 10.689C24.374 10.5819 24.3624 10.4641 24.3849 10.3504C24.4075 10.2368 24.4631 10.1324 24.5448 10.0504C24.6265 9.96849 24.7306 9.91269 24.844 9.89008C24.9573 9.86747 25.0748 9.87907 25.1816 9.92342C25.2883 9.96777 25.3796 10.0429 25.4438 10.1392C25.508 10.2356 25.5422 10.3489 25.5422 10.4648C25.542 10.6201 25.4804 10.769 25.3709 10.8789C25.2614 10.9887 25.1129 11.0505 24.958 11.0507ZM27.0262 26.5322C26.9106 26.9117 26.1371 27.2758 25.3962 27.5857V25.556C26.1677 25.8102 26.8537 26.0942 27.0144 26.3936C27.0267 26.4143 27.0342 26.4375 27.0362 26.4615C27.0383 26.4855 27.0348 26.5097 27.0262 26.5322H27.0262Z" fill="white"/>
<defs>
<linearGradient id="paint0_linear_2220_421" x1="0" y1="25" x2="19" y2="25" gradientUnits="userSpaceOnUse">
<stop stop-color="#91E0D7" stop-opacity="0"/>
<stop offset="1" stop-color="#A8EDE5"/>
</linearGradient>
</defs>
</svg>
