<svg width="18" height="18" viewBox="0 0 18 18" fill="none" xmlns="http://www.w3.org/2000/svg">
<path d="M12.9841 6.50361C13.7073 7.51291 14.1346 8.74661 14.1346 10.0789C14.1346 13.4799 11.3586 16.2466 7.94666 16.2466C4.53473 16.2466 1.75869 13.4796 1.75869 10.0789C1.75869 6.67809 4.53473 3.91113 7.94666 3.91113C9.28301 3.91113 10.521 4.33708 11.5336 5.05786L12.7898 3.80575C11.448 2.77412 9.76862 2.15845 7.94666 2.15845C3.56483 2.15845 0 5.71162 0 10.0791C0 14.4466 3.56483 17.9998 7.94666 17.9998C12.3285 17.9998 15.8933 14.4466 15.8933 10.0791C15.8933 8.26312 15.2756 6.58927 14.2406 5.25177L12.9841 6.50361Z" fill="#289F91"/>
<path d="M12.0571 7.4276L11.1283 8.35334C11.4096 8.86626 11.5696 9.45435 11.5696 10.079C11.5696 12.0702 9.94435 13.6902 7.94655 13.6902C5.94874 13.6902 4.32345 12.0702 4.32345 10.079C4.32345 8.08768 5.94874 6.4677 7.94655 6.4677C8.5732 6.4677 9.16321 6.62721 9.67782 6.90758L10.6069 5.98184C9.84074 5.48652 8.92778 5.198 7.94655 5.198C5.24194 5.198 3.04932 7.38345 3.04932 10.0792C3.04932 12.775 5.24194 14.9604 7.94655 14.9604C10.6511 14.9604 12.8438 12.775 12.8438 10.0792C12.8435 9.10118 12.554 8.19121 12.0571 7.4276Z" fill="#289F91"/>
<path d="M7.94638 12.1667C9.10332 12.1667 10.0412 11.2318 10.0412 10.0787C10.0412 8.92553 9.10332 7.99072 7.94638 7.99072C6.78944 7.99072 5.85156 8.92553 5.85156 10.0787C5.85156 11.2318 6.78944 12.1667 7.94638 12.1667Z" fill="#289F91"/>
<path d="M17.9999 1.83677L16.6011 1.41502L16.2554 0L13.6887 2.42169L13.9671 3.56159L7.68713 9.82077L8.20544 10.3371L14.5661 3.99726L15.4332 4.25845L17.9999 1.83677Z" fill="#289F91"/>
</svg>
