<svg width="30" height="30" viewBox="0 0 30 30" fill="none" xmlns="http://www.w3.org/2000/svg">
<path d="M21.6402 10.8398C22.8455 12.522 23.5577 14.5782 23.5577 16.7986C23.5577 22.467 18.931 27.0781 13.2444 27.0781C7.55789 27.0781 2.93115 22.4665 2.93115 16.7986C2.93115 11.1306 7.55789 6.51903 13.2444 6.51903C15.4717 6.51903 17.535 7.22895 19.2227 8.43025L21.3164 6.34341C19.0799 4.62402 16.281 3.5979 13.2444 3.5979C5.94139 3.5979 0 9.51986 0 16.799C0 24.0782 5.94139 30.0001 13.2444 30.0001C20.5475 30.0001 26.4889 24.0782 26.4889 16.799C26.4889 13.7724 25.4594 10.9826 23.7343 8.75345L21.6402 10.8398Z" fill="#B15A1F"/>
<path d="M20.0955 12.3791L18.5475 13.922C19.0163 14.7769 19.2831 15.757 19.2831 16.798C19.2831 20.1168 16.5742 22.8167 13.2446 22.8167C9.9149 22.8167 7.20607 20.1168 7.20607 16.798C7.20607 13.4792 9.9149 10.7793 13.2446 10.7793C14.289 10.7793 15.2723 11.0451 16.13 11.5124L17.6784 9.96949C16.4016 9.14396 14.88 8.66309 13.2446 8.66309C8.7369 8.66309 5.08252 12.3055 5.08252 16.7984C5.08252 21.2914 8.7369 24.9338 13.2446 24.9338C17.7522 24.9338 21.4066 21.2914 21.4066 16.7984C21.4062 15.1684 20.9237 13.6518 20.0955 12.3791Z" fill="#B15A1F"/>
<path d="M13.2441 20.2784C15.1723 20.2784 16.7354 18.7203 16.7354 16.7984C16.7354 14.8765 15.1723 13.3185 13.2441 13.3185C11.3158 13.3185 9.75269 14.8765 9.75269 16.7984C9.75269 18.7203 11.3158 20.2784 13.2441 20.2784Z" fill="#B15A1F"/>
<path d="M30.0001 3.06128L27.6687 2.35836L27.0926 0L22.8148 4.03615L23.2788 5.93598L12.8121 16.3679L13.676 17.2285L24.277 6.66209L25.7222 7.09742L30.0001 3.06128Z" fill="#B15A1F"/>
</svg>
