<svg width="30" height="25" viewBox="0 0 30 25" fill="none" xmlns="http://www.w3.org/2000/svg">
<path d="M17.3423 6.85059C19.7821 8.36803 21.49 11.8593 21.49 15.9253C21.49 19.9914 19.7821 23.4832 17.3423 25.0001C25.9599 23.6111 29.9999 15.9253 29.9999 15.9253C29.9999 15.9253 25.9599 8.23957 17.3423 6.85059Z" fill="#B15A1F"/>
<path d="M7.74692 15.9255C7.74692 11.8689 9.44662 8.38466 11.8771 6.86194C3.42427 8.28495 0 15.9255 0 15.9255C0 15.9255 3.42386 23.5661 11.8771 24.9891C9.44703 23.4664 7.74692 19.9822 7.74692 15.9255Z" fill="#B15A1F"/>
<path d="M14.6188 9.39124C12.11 9.39124 10.0759 12.3164 10.0759 15.9256C10.0759 19.5341 12.1096 22.4599 14.6188 22.4599C17.128 22.4599 19.1616 19.5347 19.1616 15.9256C19.1612 12.3164 17.1275 9.39124 14.6188 9.39124ZM14.6188 18.4789C13.6384 18.4789 12.8436 17.3357 12.8436 15.9256C12.8436 14.5155 13.6384 13.3723 14.6188 13.3723C15.5991 13.3723 16.3939 14.5155 16.3939 15.9256C16.3935 17.3357 15.5991 18.4789 14.6188 18.4789ZM17.0427 12.9517C16.6843 12.9517 16.3939 12.5335 16.3939 12.0185C16.3939 11.5029 16.6843 11.0852 17.0427 11.0852C17.4012 11.0852 17.6915 11.5029 17.6915 12.0185C17.6915 12.5335 17.4012 12.9517 17.0427 12.9517Z" fill="#B15A1F"/>
<path d="M6.3491 6.16478C6.90411 5.91021 7.48319 5.675 8.08999 5.46736L5.3288 1.49573C4.72648 1.70572 4.14333 1.93448 3.57812 2.17908L6.3491 6.16478Z" fill="#B15A1F"/>
<path d="M14.3851 0C14.1987 0 14.0152 0.00410624 13.8313 0.00762563V4.43971C14.0649 4.43209 14.2953 4.42034 14.5343 4.42034C14.8296 4.42034 15.1175 4.43267 15.4054 4.4444V0.0193505C15.0685 0.00820576 14.7292 0 14.3851 0Z" fill="#B15A1F"/>
<path d="M23.8394 1.59509L21.1309 5.49106C21.7373 5.69636 22.3196 5.92688 22.8803 6.17617L25.5909 2.27726C25.0241 2.03384 24.4397 1.80626 23.8394 1.59509Z" fill="#B15A1F"/>
</svg>
