<svg width="28" height="30" viewBox="0 0 28 30" fill="none" xmlns="http://www.w3.org/2000/svg">
<path d="M8.36386 17.6609L11.9901 29.9548L0 17.6609H8.36386Z" fill="#B15A1F"/>
<path d="M8.43288 15.9049H0L5.54306 10.8931C5.72585 10.7287 5.97242 10.6361 6.22994 10.6361H11.7625L8.43288 15.9049Z" fill="#B15A1F"/>
<path d="M17.891 15.905H9.69849L13.9997 10.6362L17.891 15.905Z" fill="#B15A1F"/>
<path d="M17.626 17.7061L14.0002 30L10.3745 17.7061H17.626Z" fill="#B15A1F"/>
<path d="M19.5672 15.905L16.2371 10.6362H21.7697C22.0272 10.6362 22.2742 10.7288 22.4565 10.8932L27.9996 15.905H19.5672Z" fill="#B15A1F"/>
<path d="M19.6367 17.7061H28.0001L16.01 30L19.6367 17.7061Z" fill="#B15A1F"/>
<path d="M14.0003 5.0071C13.4639 5.0071 13.0293 4.61374 13.0293 4.12913V0.87799C13.0293 0.392945 13.4644 0 14.0003 0C14.5368 0 14.9714 0.393376 14.9714 0.87799V4.12913C14.9714 4.61374 14.5368 5.0071 14.0003 5.0071Z" fill="#B15A1F"/>
<path d="M4.34598 6.82026L2.54812 4.00469C2.27965 3.58463 2.4391 3.04752 2.90368 2.80521C3.36826 2.5629 3.96233 2.70663 4.23032 3.12669L6.02819 5.94229C6.29666 6.36234 6.13719 6.89946 5.67261 7.14177C5.20993 7.38321 4.6154 7.24204 4.34598 6.82026Z" fill="#B15A1F"/>
<path d="M22.328 7.14177C21.8635 6.89946 21.7045 6.36234 21.9725 5.94229L23.7703 3.12669C24.0388 2.70663 24.6324 2.5629 25.097 2.80521C25.5615 3.04752 25.7205 3.58463 25.4525 4.00469L23.6547 6.82027C23.3857 7.24161 22.7912 7.38364 22.328 7.14177Z" fill="#B15A1F"/>
</svg>
