<svg width="50" height="50" viewBox="0 0 50 50" fill="none" xmlns="http://www.w3.org/2000/svg">
<rect width="50" height="50" rx="5" fill="#289F91"/>
<rect width="50" height="50" rx="5" fill="url(#paint0_linear_2198_6)" fill-opacity="0.2"/>
<path d="M40.3294 40H18.0497C17.6794 40 17.3794 39.6947 17.3794 39.3178V16.6404C17.3794 16.2635 17.6794 15.9583 18.0497 15.9583H40.3294C40.6997 15.9583 40.9997 16.2635 40.9997 16.6404V39.3131C40.9997 39.6947 40.6997 40 40.3294 40ZM18.72 38.6309H39.6591V17.3273H18.72V38.6309Z" fill="white"/>
<path d="M23.155 27.1249C22.9769 27.1249 22.8035 27.0534 22.6769 26.9198L20.23 24.3725C19.9722 24.1006 19.9769 23.6713 20.2394 23.4042C20.5066 23.1418 20.9285 23.1466 21.191 23.4137L23.1222 25.422L27.3691 20.2654C27.6081 19.9744 28.03 19.9362 28.316 20.1795C28.6019 20.4228 28.6394 20.8521 28.4003 21.1431L23.6706 26.8816C23.5488 27.0295 23.3706 27.1201 23.1831 27.1249C23.1691 27.1249 23.1644 27.1249 23.155 27.1249ZM37.6722 25.3647H29.2441C28.8738 25.3647 28.5738 25.0594 28.5738 24.6826C28.5738 24.3057 28.8738 24.0004 29.2441 24.0004H37.6722C38.0425 24.0004 38.3425 24.3057 38.3425 24.6826C38.3425 25.0594 38.0425 25.3647 37.6722 25.3647ZM23.155 35.9307C22.9769 35.9307 22.8035 35.8591 22.6769 35.7255L20.23 33.1783C19.9722 32.9064 19.9769 32.4771 20.2394 32.2099C20.5066 31.9476 20.9285 31.9523 21.191 32.2195L23.1222 34.2277L27.3691 29.0711C27.6081 28.7849 28.03 28.742 28.316 28.9853C28.6019 29.2286 28.6394 29.6579 28.4003 29.9489L23.6706 35.6874C23.5488 35.8353 23.3706 35.9259 23.1831 35.9307C23.1691 35.9307 23.1644 35.9307 23.155 35.9307ZM37.6722 34.1705H29.2441C28.8738 34.1705 28.5738 33.8652 28.5738 33.4883C28.5738 33.1115 28.8738 32.8062 29.2441 32.8062H37.6722C38.0425 32.8062 38.3425 33.1115 38.3425 33.4883C38.3425 33.8652 38.0425 34.1705 37.6722 34.1705Z" fill="white"/>
<path d="M15.7719 24.2581H11.6703C11.3 24.2581 11 23.9528 11 23.5759V10.6821C11 10.3053 11.3 10 11.6703 10H24.8797C25.25 10 25.55 10.3053 25.55 10.6821V14.3886C25.55 14.7654 25.25 15.0707 24.8797 15.0707C24.5094 15.0707 24.2094 14.7654 24.2094 14.3886V11.3643H12.3453V22.8938H15.7719C16.1422 22.8938 16.4422 23.1991 16.4422 23.5759C16.4422 23.9528 16.1422 24.2581 15.7719 24.2581Z" fill="white"/>
<defs>
<linearGradient id="paint0_linear_2198_6" x1="0" y1="25" x2="19" y2="25" gradientUnits="userSpaceOnUse">
<stop stop-color="#91E0D7" stop-opacity="0"/>
<stop offset="1" stop-color="#A8EDE5"/>
</linearGradient>
</defs>
</svg>
