<svg width="42" height="42" viewBox="0 0 42 42" fill="none" xmlns="http://www.w3.org/2000/svg">
<path d="M1 0.85H0.85V1V41V41.15H1H41H41.15V41V1V0.85H41H1ZM2.85068 39.6V2.50417H39.1493V39.6H2.85068Z" fill="white" stroke="white" stroke-width="0.3"/>
<path d="M7.25871 22.1899H34.7417C34.9756 22.1899 35.2108 22.1159 35.3908 21.9857C35.5712 21.8553 35.708 21.6582 35.708 21.4149V21.3629C35.708 21.1196 35.5712 20.9225 35.3908 20.7921C35.2108 20.6619 34.9756 20.5879 34.7417 20.5879H7.25871C6.73062 20.5879 6.29238 20.9396 6.29238 21.3629V21.4149C6.29238 21.6582 6.42919 21.8553 6.60959 21.9857C6.78959 22.1159 7.02479 22.1899 7.25871 22.1899Z" fill="white" stroke="white" stroke-width="0.3"/>
<path d="M7.19068 26.8774H34.7417C35.0048 26.8774 35.2432 26.8058 35.4111 26.6773C35.5777 26.5497 35.6809 26.358 35.6398 26.1385C35.6341 25.9315 35.5195 25.7538 35.3601 25.6318C35.1963 25.5063 34.9767 25.4316 34.7417 25.4316H7.19068C6.9557 25.4316 6.73611 25.5063 6.57228 25.6318C6.40878 25.757 6.29238 25.9407 6.29238 26.1545C6.29238 26.3684 6.40878 26.5521 6.57228 26.6773C6.73611 26.8027 6.9557 26.8774 7.19068 26.8774Z" fill="white" stroke="white" stroke-width="0.3"/>
<path d="M7.19068 31.5649H34.7417C35.0048 31.5649 35.2432 31.4933 35.4111 31.3648C35.5777 31.2372 35.6809 31.0455 35.6398 30.826C35.6341 30.619 35.5195 30.4413 35.3601 30.3193C35.1963 30.1938 34.9767 30.1191 34.7417 30.1191H7.19068C6.9557 30.1191 6.73611 30.1938 6.57228 30.3193C6.40878 30.4445 6.29238 30.6282 6.29238 30.842C6.29238 31.0559 6.40878 31.2396 6.57228 31.3648C6.73611 31.4902 6.9557 31.5649 7.19068 31.5649Z" fill="white" stroke="white" stroke-width="0.3"/>
<path d="M7.19068 36.2533H34.7417C35.0048 36.2533 35.2432 36.1817 35.4111 36.0531C35.5777 35.9256 35.6809 35.7338 35.6398 35.5143C35.6341 35.3073 35.5195 35.1297 35.3601 35.0076C35.1963 34.8822 34.9767 34.8075 34.7417 34.8075H7.19068C6.9557 34.8075 6.73611 34.8822 6.57228 35.0076C6.40878 35.1328 6.29238 35.3165 6.29238 35.5304C6.29238 35.7442 6.40878 35.9279 6.57228 36.0531C6.73611 36.1785 6.9557 36.2533 7.19068 36.2533Z" fill="white" stroke="white" stroke-width="0.3"/>
<path d="M13.64 11.4158C13.64 13.0091 14.487 14.4301 15.8251 15.4479C17.1629 16.4656 18.9982 17.0866 21.0009 17.0866C23.0036 17.0866 24.8389 16.4656 26.1768 15.4479C27.5148 14.4301 28.3618 13.0091 28.3618 11.4158C28.3618 9.82247 27.5148 8.40144 26.1768 7.38364C24.8389 6.36602 23.0036 5.74496 21.0009 5.74496C18.9982 5.74496 17.1629 6.36602 15.8251 7.38364C14.487 8.40144 13.64 9.82247 13.64 11.4158ZM15.0965 11.4158C15.0965 10.1965 15.7462 9.07835 16.8149 8.26015C17.8836 7.44193 19.3645 6.93037 21.0009 6.93037C22.6373 6.93037 24.1182 7.44193 25.1869 8.26015C26.2556 9.07835 26.9053 10.1965 26.9053 11.4158C26.9053 12.6351 26.2556 13.7532 25.1869 14.5714C24.1182 15.3897 22.6373 15.9012 21.0009 15.9012C19.3645 15.9012 17.8836 15.3897 16.8149 14.5714C15.7462 13.7532 15.0965 12.6351 15.0965 11.4158Z" fill="white" stroke="white" stroke-width="0.3"/>
<path d="M20.2518 13.4429H20.2796L20.3054 13.433L20.3099 13.4313C20.3748 13.4064 20.4509 13.3773 20.5194 13.3399C20.5875 13.3026 20.6593 13.2514 20.7117 13.1754L23.7584 9.59864C23.8724 9.50206 23.8958 9.36012 23.8553 9.23593C23.8163 9.11648 23.7211 9.01311 23.5966 8.94646C23.484 8.86696 23.3387 8.85793 23.2168 8.88125C23.0876 8.90598 22.9535 8.97222 22.8598 9.07982L22.8598 9.0798L22.8582 9.08166L20.2366 12.1928L19.5354 11.5664L19.5357 11.5661L19.5267 11.5592C19.4046 11.4658 19.2748 11.4136 19.1389 11.4049C19.004 11.3963 18.8751 11.4314 18.7551 11.4926L18.7429 11.4988L18.7321 11.5071C18.6135 11.5979 18.5273 11.709 18.5126 11.8444C18.4978 11.9805 18.5597 12.0989 18.6421 12.1935L18.6469 12.199L18.6522 12.204L19.8086 13.2977L19.8143 13.3031L19.8205 13.3078C19.9163 13.3812 20.0849 13.4429 20.2518 13.4429Z" fill="white" stroke="white" stroke-width="0.3"/>
</svg>
