<svg width="17" height="18" viewBox="0 0 17 18" fill="none" xmlns="http://www.w3.org/2000/svg">
<path d="M11.889 14.3445C11.889 14.5161 11.7352 14.6552 11.5456 14.6552H5.2775C5.08784 14.6552 4.93408 14.5161 4.93408 14.3445C4.93408 14.173 5.08784 14.0339 5.2775 14.0339H11.5456C11.7353 14.0339 11.889 14.173 11.889 14.3445ZM4.93408 7.96034C4.93408 8.13188 5.08784 8.27096 5.2775 8.27096H11.5456C11.7352 8.27096 11.889 8.13188 11.889 7.96034C11.889 7.7888 11.7352 7.64972 11.5456 7.64972H5.2775C5.08784 7.64972 4.93408 7.78876 4.93408 7.96034ZM5.2775 9.52022H11.5456C11.7352 9.52022 11.889 9.38114 11.889 9.2096C11.889 9.03805 11.7352 8.89897 11.5456 8.89897H5.2775C5.08784 8.89897 4.93408 9.03805 4.93408 9.2096C4.93408 9.38114 5.08784 9.52022 5.2775 9.52022ZM11.5456 10.8418H5.2775C5.08784 10.8418 4.93408 10.9809 4.93408 11.1524C4.93408 11.324 5.08784 11.4631 5.2775 11.4631H11.5456C11.7352 11.4631 11.889 11.324 11.889 11.1524C11.889 10.9809 11.7353 10.8418 11.5456 10.8418ZM11.5456 12.0911H5.2775C5.08784 12.0911 4.93408 12.2301 4.93408 12.4017C4.93408 12.5732 5.08784 12.7123 5.2775 12.7123H11.5456C11.7352 12.7123 11.889 12.5732 11.889 12.4017C11.889 12.2301 11.7353 12.0911 11.5456 12.0911ZM3.78833 4.38757V3.6142C3.78833 3.48571 3.87582 3.37047 4.00838 3.32431L4.36932 3.19862C4.42719 3.02599 4.50368 2.85914 4.59795 2.69987L4.44084 2.37993C4.38314 2.26247 4.41139 2.12506 4.51184 2.0342L5.11648 1.48735C5.21693 1.39645 5.36885 1.37098 5.49871 1.42309L5.85247 1.5652C6.02856 1.47997 6.21294 1.41078 6.40379 1.35848L6.54275 1.03193C6.59375 0.911994 6.72116 0.832901 6.86325 0.832901H7.71829C7.86038 0.832901 7.98774 0.912033 8.03878 1.03193L8.17774 1.35848C8.36856 1.41082 8.55297 1.47997 8.72906 1.56524L9.08287 1.42309C9.21277 1.37094 9.36461 1.39649 9.4651 1.48731L10.0697 2.03416C10.1702 2.12502 10.1984 2.26247 10.1407 2.37989L9.98367 2.69976C10.0779 2.85903 10.1544 3.02591 10.2123 3.19862L10.5732 3.32427C10.7058 3.37039 10.7932 3.48564 10.7932 3.61416V4.38753C10.7932 4.51606 10.7058 4.63126 10.5732 4.67743L10.2122 4.80311C10.1543 4.9757 10.0779 5.14251 9.98363 5.30174L10.1408 5.62176C10.1984 5.73918 10.1702 5.87663 10.0697 5.96749L9.46515 6.51434C9.36474 6.6052 9.21273 6.63075 9.08292 6.5786L8.72928 6.43653C8.55315 6.5218 8.36868 6.59099 8.17774 6.64333L8.03883 6.96976C7.98779 7.08966 7.86038 7.16879 7.71833 7.16879H6.86329C6.7212 7.16879 6.59384 7.08966 6.54279 6.96976L6.40384 6.64321C6.21307 6.59087 6.02865 6.52172 5.85256 6.43645L5.49875 6.5786C5.36885 6.63075 5.21701 6.6052 5.11652 6.51438L4.51188 5.96753C4.41143 5.87667 4.38318 5.73922 4.44088 5.6218L4.59795 5.30194C4.50368 5.14262 4.42719 4.97578 4.36932 4.80307L4.00842 4.67743C3.87578 4.6313 3.78833 4.51609 3.78833 4.38757ZM4.47518 4.17429L4.77846 4.2799C4.88415 4.31667 4.96297 4.39825 4.9892 4.49788C5.04715 4.71819 5.14326 4.92787 5.27488 5.12119C5.33425 5.20844 5.34228 5.31654 5.2963 5.41015L5.16426 5.67911L5.43543 5.92435L5.73292 5.80484C5.83642 5.76325 5.95593 5.77051 6.05234 5.82421C6.26608 5.94326 6.49789 6.0302 6.74121 6.08254C6.85136 6.10626 6.94155 6.17755 6.98225 6.27314L7.09905 6.54762H7.48253L7.59929 6.27326C7.63999 6.1777 7.73013 6.10638 7.84029 6.08265C8.08386 6.03023 8.31571 5.9433 8.52936 5.82429C8.62578 5.77051 8.74529 5.76329 8.84883 5.80488L9.14619 5.92435L9.41732 5.67907L9.28519 5.40996C9.23922 5.31634 9.24724 5.20824 9.30666 5.12104C9.43823 4.92771 9.53435 4.71808 9.59226 4.49792C9.61848 4.39829 9.6973 4.31671 9.80299 4.27994L10.1064 4.17429V3.82744L9.80312 3.72183C9.69743 3.68506 9.61861 3.60348 9.59238 3.50385C9.53443 3.28357 9.43832 3.07386 9.3067 2.88058C9.24733 2.79333 9.2393 2.68523 9.28528 2.59162L9.41732 2.32266L9.14615 2.07742L8.84866 2.19693C8.74512 2.23848 8.62565 2.23122 8.52923 2.17752C8.3155 2.05851 8.08373 1.97157 7.84033 1.91919C7.73018 1.89547 7.63999 1.82418 7.59933 1.72859L7.48253 1.45415H7.09905L6.98225 1.72859C6.94159 1.82418 6.85145 1.89547 6.74125 1.91919C6.49781 1.97161 6.26604 2.05851 6.05234 2.17752C5.95589 2.23122 5.83633 2.23848 5.73288 2.19693L5.43539 2.07742L5.16421 2.3227L5.2963 2.5917C5.34228 2.68535 5.33425 2.79345 5.27488 2.88066C5.14326 3.07398 5.04715 3.28361 4.98924 3.50381C4.96301 3.60344 4.88419 3.68498 4.77851 3.72179L4.47514 3.82744V4.17429H4.47518ZM5.45616 4.00089C5.45616 3.0859 6.27917 2.34149 7.29077 2.34149C8.3024 2.34149 9.12542 3.0859 9.12542 4.00089C9.12542 4.91587 8.3024 5.66028 7.29077 5.66028C6.27917 5.66028 5.45616 4.91587 5.45616 4.00089ZM6.14301 4.00089C6.14301 4.57333 6.65788 5.03903 7.29077 5.03903C7.92365 5.03903 8.43857 4.57333 8.43857 4.00089C8.43857 3.42844 7.92365 2.96274 7.29077 2.96274C6.65788 2.96274 6.14301 3.42844 6.14301 4.00089ZM1.7518 12.6688V10.8853C1.7518 10.7137 1.90556 10.5746 2.09522 10.5746H4.02517C4.21482 10.5746 4.36859 10.7137 4.36859 10.8853V12.6688C4.36859 12.8404 4.21482 12.9795 4.02517 12.9795H2.09522C1.90556 12.9795 1.7518 12.8404 1.7518 12.6688ZM2.43864 12.3582H3.68174V11.1959H2.43864V12.3582ZM2.09522 16.1716C1.90556 16.1716 1.7518 16.0325 1.7518 15.861V14.0774C1.7518 13.9059 1.90556 13.7668 2.09522 13.7668H4.02517C4.21482 13.7668 4.36859 13.9059 4.36859 14.0774V15.861C4.36859 16.0325 4.21482 16.1716 4.02517 16.1716H2.09522ZM2.43864 15.5503H3.68174V14.388H2.43864V15.5503ZM1.7518 9.47673V7.69316C1.7518 7.52162 1.90556 7.38254 2.09522 7.38254H4.02517C4.21482 7.38254 4.36859 7.52162 4.36859 7.69316V9.47673C4.36859 9.64828 4.21482 9.78736 4.02517 9.78736H2.09522C1.90556 9.78736 1.7518 9.64831 1.7518 9.47673ZM2.43864 9.16611H3.68174V8.00379H2.43864V9.16611ZM17 16.4702L16.9999 16.8186C16.9997 17.4701 16.4136 18 15.6934 18C15.6933 18 15.6932 18 15.693 18L5.90845 17.9973C5.84818 17.9973 5.78894 17.9829 5.73674 17.9556L4.33566 17.2234H0.71346C0.320027 17.2234 0 16.9339 0 16.5781V0.645362C0 0.289502 0.320069 0 0.71346 0H12.0575C12.2508 0 12.4253 0.0653865 12.562 0.189054L14.6397 2.06833C14.7765 2.19204 14.8487 2.3498 14.8487 2.52464V15.2879L15.6939 15.2881C16.0422 15.2882 16.37 15.4114 16.617 15.635C16.8641 15.8586 17.0001 16.1552 17 16.4702ZM6.25209 17.3761L14.2256 17.3783L14.2261 15.909L6.25256 15.9068L6.25209 17.3761ZM12.5542 1.06055V2.0754H13.6762L12.5542 1.06055ZM0.71346 16.6022H3.56665C3.57992 16.5064 3.64178 16.4207 3.73562 16.3717L5.7376 15.327C5.7898 15.2998 5.849 15.2855 5.90922 15.2855H5.90931L14.1618 15.2877V2.69665H12.3958C12.1044 2.69665 11.8673 2.48224 11.8673 2.21868V0.621288H0.71346C0.699293 0.621288 0.686844 0.632548 0.686844 0.645401V16.5781C0.686844 16.5909 0.699293 16.6022 0.71346 16.6022ZM4.59409 16.641L5.56529 17.1485L5.56563 16.134L4.59409 16.641ZM16.3132 16.47C16.3132 16.3209 16.2486 16.1804 16.1313 16.0742C16.0139 15.968 15.8585 15.9094 15.6938 15.9094L14.9129 15.9091L14.9124 17.3785L15.6932 17.3787H15.6934C16.035 17.3787 16.3129 17.1274 16.3131 16.8184L16.3132 16.47Z" fill="#289F91"/>
</svg>
