<svg width="40" height="40" viewBox="0 0 40 40" fill="none" xmlns="http://www.w3.org/2000/svg">
<path d="M2.4 35.7143H19.136V37.1429H2.4C1.76348 37.1429 1.15303 36.9171 0.702944 36.5152C0.252856 36.1134 0 35.5683 0 35V2.14286C0 1.57454 0.252856 1.02949 0.702944 0.627628C1.15303 0.225765 1.76348 0 2.4 0H28C28.6365 0 29.247 0.225765 29.6971 0.627628C30.1471 1.02949 30.4 1.57454 30.4 2.14286V12.8571H28.8V2.14286C28.8 1.95342 28.7157 1.77174 28.5657 1.63778C28.4157 1.50383 28.2122 1.42857 28 1.42857H2.4C2.18783 1.42857 1.98434 1.50383 1.83431 1.63778C1.68429 1.77174 1.6 1.95342 1.6 2.14286V35C1.6 35.1894 1.68429 35.3711 1.83431 35.5051C1.98434 35.639 2.18783 35.7143 2.4 35.7143ZM12.8 17.8571C12.8 18.0466 12.7157 18.2283 12.5657 18.3622C12.4157 18.4962 12.2122 18.5714 12 18.5714H5.6C5.38783 18.5714 5.18434 18.4962 5.03432 18.3622C4.88429 18.2283 4.8 18.0466 4.8 17.8571V13.5714C4.8 13.382 4.88429 13.2003 5.03432 13.0664C5.18434 12.9324 5.38783 12.8571 5.6 12.8571H12C12.2122 12.8571 12.4157 12.9324 12.5657 13.0664C12.7157 13.2003 12.8 13.382 12.8 13.5714V17.8571ZM11.2 14.2857H6.4V17.1429H11.2V14.2857ZM22.4 17.1429H16V18.5714H22.4V17.1429ZM22.4 12.8571H16V14.2857H22.4V12.8571ZM12.8 22.1429V26.4286C12.8 26.618 12.7157 26.7997 12.5657 26.9336C12.4157 27.0676 12.2122 27.1429 12 27.1429H5.6C5.38783 27.1429 5.18434 27.0676 5.03432 26.9336C4.88429 26.7997 4.8 26.618 4.8 26.4286V22.1429C4.8 21.9534 4.88429 21.7717 5.03432 21.6378C5.18434 21.5038 5.38783 21.4286 5.6 21.4286H12C12.2122 21.4286 12.4157 21.5038 12.5657 21.6378C12.7157 21.7717 12.8 21.9534 12.8 22.1429ZM11.2 22.8571H6.4V25.7143H11.2V22.8571ZM16 27.1429H22.4V25.7143H16V27.1429ZM22.4 21.4286H16V22.8571H22.4V21.4286ZM12.8 9.28571C12.8 9.47515 12.7157 9.65684 12.5657 9.79079C12.4157 9.92475 12.2122 10 12 10H5.6C5.38783 10 5.18434 9.92475 5.03432 9.79079C4.88429 9.65684 4.8 9.47515 4.8 9.28571V5C4.8 4.81056 4.88429 4.62888 5.03432 4.49492C5.18434 4.36097 5.38783 4.28571 5.6 4.28571H12C12.2122 4.28571 12.4157 4.36097 12.5657 4.49492C12.7157 4.62888 12.8 4.81056 12.8 5V9.28571ZM11.2 5.71429H6.4V8.57143H11.2V5.71429ZM25.6 8.57143H16V10H25.6V8.57143ZM25.6 4.28571H16V5.71429H25.6V4.28571ZM31.2 36.4286H35.2V35H31.2V36.4286ZM40 38.5714V40H19.2V38.5714H20.8V32.8571C20.8 31.9099 21.2214 31.0015 21.9716 30.3318C22.7217 29.662 23.7391 29.2857 24.8 29.2857H26.176C26.4476 29.2857 26.708 29.1894 26.9001 29.0179C27.0921 28.8465 27.2 28.6139 27.2 28.3714V27.3714C26.2431 26.9662 25.4345 26.3269 24.8681 25.5279C24.3017 24.7288 24.0007 23.8028 24 22.8571V19.2857C24 17.9596 24.59 16.6879 25.6402 15.7502C26.6904 14.8125 28.1148 14.2857 29.6 14.2857C31.0852 14.2857 32.5096 14.8125 33.5598 15.7502C34.61 16.6879 35.2 17.9596 35.2 19.2857V22.8571C35.1993 23.8028 34.8983 24.7288 34.3319 25.5279C33.7655 26.3269 32.9569 26.9662 32 27.3714V28.3714C32 28.6139 32.1079 28.8465 32.2999 29.0179C32.492 29.1894 32.7524 29.2857 33.024 29.2857H34.4C35.4609 29.2857 36.4783 29.662 37.2284 30.3318C37.9786 31.0015 38.4 31.9099 38.4 32.8571V38.5714H40ZM31.944 16.4286C31.8282 17.1681 31.5304 17.8755 31.072 18.5C31.8573 18.6602 32.6781 18.6105 33.432 18.3571C33.1929 17.5832 32.6687 16.9038 31.944 16.4286ZM25.6 19.2071C25.8627 19.2589 26.1309 19.2852 26.4 19.2857C27.4471 19.2859 28.4526 18.9194 29.2005 18.265C29.9484 17.6106 30.3791 16.7205 30.4 15.7857C30.1364 15.7396 29.8686 15.7157 29.6 15.7143C28.5542 15.7141 27.5499 16.0795 26.8022 16.7324C26.0546 17.3853 25.623 18.2736 25.6 19.2071ZM29.6 26.4286C30.1253 26.4286 30.6454 26.3362 31.1307 26.1567C31.616 25.9772 32.057 25.7142 32.4284 25.3825C32.7999 25.0509 33.0945 24.6572 33.2955 24.2239C33.4965 23.7906 33.6 23.3262 33.6 22.8571V19.7857C32.3765 20.1198 31.0606 20.0617 29.88 19.6214C28.895 20.3318 27.6662 20.7177 26.4 20.7143C26.1321 20.7133 25.8647 20.6942 25.6 20.6571V22.8571C25.6 23.3262 25.7035 23.7906 25.9045 24.2239C26.1055 24.6572 26.4001 25.0509 26.7716 25.3825C27.143 25.7142 27.584 25.9772 28.0693 26.1567C28.5546 26.3362 29.0747 26.4286 29.6 26.4286ZM28.8 27.8571V28.3714C28.7991 28.6848 28.7279 28.9948 28.5905 29.2831C28.4531 29.5714 28.2523 29.8322 28 30.05V30.7143C28 31.0932 28.1686 31.4565 28.4686 31.7244C28.7687 31.9923 29.1757 32.1429 29.6 32.1429C30.0243 32.1429 30.4313 31.9923 30.7314 31.7244C31.0314 31.4565 31.2 31.0932 31.2 30.7143V30.05C30.9477 29.8322 30.7469 29.5714 30.6095 29.2831C30.4721 28.9948 30.4009 28.6848 30.4 28.3714V27.8571H28.8ZM36.8 38.5714V32.8571C36.8 32.2888 36.5471 31.7438 36.0971 31.3419C35.647 30.9401 35.0365 30.7143 34.4 30.7143H33.024C32.9494 30.7182 32.8746 30.7182 32.8 30.7143C32.8 31.472 32.4629 32.1988 31.8627 32.7346C31.2626 33.2704 30.4487 33.5714 29.6 33.5714C28.7513 33.5714 27.9374 33.2704 27.3373 32.7346C26.7371 32.1988 26.4 31.472 26.4 30.7143C26.3254 30.7182 26.2506 30.7182 26.176 30.7143H24.8C24.1635 30.7143 23.553 30.9401 23.1029 31.3419C22.6529 31.7438 22.4 32.2888 22.4 32.8571V38.5714H36.8Z" fill="white"/>
<rect x="6.42871" y="5.71442" width="5" height="2.85714" fill="white"/>
<rect x="6.42871" y="14.2856" width="5" height="2.85714" fill="white"/>
<rect x="6.42871" y="22.8568" width="5" height="2.85714" fill="white"/>
</svg>
