<svg width="50" height="50" viewBox="0 0 50 50" fill="none" xmlns="http://www.w3.org/2000/svg">
<rect width="50" height="50" rx="5" fill="#289F91"/>
<rect width="50" height="50" rx="5" fill="url(#paint0_linear_2220_423)" fill-opacity="0.2"/>
<path d="M26.9778 20.2956C26.9778 20.167 26.9307 20.0437 26.8468 19.9527C26.7629 19.8618 26.6491 19.8107 26.5304 19.8107H22.8052C22.6866 19.8107 22.5728 19.8618 22.4889 19.9527C22.405 20.0437 22.3579 20.167 22.3579 20.2956C22.3579 20.4243 22.405 20.5476 22.4889 20.6385C22.5728 20.7295 22.6866 20.7806 22.8052 20.7806H24.108C24.3271 20.7809 24.5414 20.8502 24.725 20.9798C24.9086 21.1095 25.0535 21.2941 25.1423 21.5112H22.8052C22.6866 21.5112 22.5728 21.5623 22.4889 21.6532C22.405 21.7442 22.3579 21.8675 22.3579 21.9961C22.3579 22.1247 22.405 22.2481 22.4889 22.339C22.5728 22.43 22.6866 22.4811 22.8052 22.4811H25.1423C25.0535 22.6982 24.9086 22.8828 24.725 23.0124C24.5414 23.1421 24.3271 23.2113 24.108 23.2117H22.8022H22.7724H22.7575C22.7483 23.2125 22.7391 23.214 22.7301 23.2162H22.714L22.6877 23.2233L22.6716 23.2285C22.6625 23.2314 22.6535 23.2348 22.6448 23.2388C22.6401 23.2404 22.6355 23.2423 22.6311 23.2447C22.6215 23.2489 22.6121 23.2536 22.603 23.2589L22.5917 23.2647L22.5684 23.2802C22.5636 23.2831 22.559 23.2863 22.5547 23.2899C22.5485 23.2942 22.5425 23.299 22.5368 23.3041L22.5189 23.3184L22.5058 23.3319L22.4861 23.352H22.4831L22.4742 23.363L22.4569 23.385L22.4449 23.4024C22.44 23.4091 22.4355 23.416 22.4312 23.4231C22.427 23.4296 22.4235 23.4367 22.4199 23.4432L22.4092 23.4638C22.4056 23.471 22.4026 23.4781 22.3996 23.4852L22.3907 23.5072L22.3835 23.5292L22.3763 23.5518L22.371 23.5744C22.371 23.5822 22.3674 23.5899 22.3662 23.5977L22.3626 23.6223C22.3626 23.63 22.3626 23.6371 22.3626 23.6449C22.3626 23.6526 22.3626 23.663 22.3626 23.6727C22.3626 23.6824 22.3626 23.683 22.3626 23.6882V23.7005C22.3626 23.7095 22.3626 23.7192 22.3626 23.7289C22.3626 23.7386 22.3626 23.7425 22.3626 23.749L22.3662 23.7736C22.3662 23.7807 22.3662 23.7884 22.3698 23.7962C22.3734 23.8039 22.3698 23.8091 22.3746 23.8162C22.3793 23.8233 22.3781 23.8337 22.3805 23.8421C22.3829 23.8505 22.3847 23.8537 22.3865 23.8602L22.3954 23.8861L22.4044 23.9061C22.408 23.9132 22.4109 23.921 22.4145 23.9281L22.4253 23.9475L22.4372 23.9688L22.4485 23.985L22.464 24.007L22.4754 24.0205L22.4945 24.0425L25.3135 26.9857C25.3966 27.0732 25.5079 27.1219 25.6237 27.1215C25.7129 27.1214 25.8 27.0925 25.8739 27.0384C25.9478 26.9843 26.005 26.9075 26.0384 26.8179C26.0717 26.7282 26.0796 26.6299 26.061 26.5353C26.0423 26.4408 25.9981 26.3545 25.9339 26.2874L23.9141 24.1783H24.108C24.5657 24.1791 25.0102 24.0117 25.3689 23.7035C25.7276 23.3952 25.9793 22.9643 26.083 22.4811H26.5352C26.6538 22.4811 26.7676 22.43 26.8515 22.339C26.9354 22.2481 26.9826 22.1247 26.9826 21.9961C26.9826 21.8675 26.9354 21.7442 26.8515 21.6532C26.7676 21.5623 26.6538 21.5112 26.5352 21.5112H26.083C26.028 21.2503 25.9291 21.0026 25.7913 20.7806H26.5352C26.653 20.7792 26.7656 20.7275 26.8484 20.6367C26.9313 20.5459 26.9778 20.4234 26.9778 20.2956ZM39.0445 30.5218V29.552C39.0442 29.1662 38.9027 28.7964 38.651 28.5237C38.3994 28.2509 38.0582 28.0975 37.7024 28.0972H37.178C37.2292 27.9415 37.2552 27.7775 37.255 27.6123V26.6424C37.2547 26.2567 37.1132 25.8868 36.8615 25.6141C36.6099 25.3413 36.2687 25.188 35.9128 25.1876H34.7198C35.0296 23.8884 35.1865 22.5518 35.1869 21.2099V14.9414C35.1868 14.824 35.1475 14.7106 35.0762 14.6223C35.0049 14.5339 34.9065 14.4766 34.7992 14.461C32.8751 14.1813 31.0109 13.5398 29.2904 12.5652C27.6935 11.6618 26.2429 10.4825 24.9956 9.07373C24.9544 9.02759 24.9052 8.9907 24.8509 8.96518C24.7965 8.93966 24.7381 8.92601 24.6789 8.92502C24.6187 8.92306 24.5587 8.93443 24.5027 8.95845C24.4467 8.98246 24.3958 9.01861 24.3532 9.06468C23.2754 10.2198 22.0675 11.2228 20.758 12.0499C18.8352 13.2614 16.7233 14.0794 14.5275 14.4629C14.4228 14.4815 14.3276 14.5398 14.2588 14.6274C14.1901 14.7151 14.1524 14.8263 14.1523 14.9414V21.2099C14.1527 22.791 14.3703 24.3632 14.7977 25.8749C14.7121 25.9107 14.6199 25.9243 14.5285 25.9146C14.4372 25.9048 14.3492 25.8719 14.2716 25.8187C14.0982 25.6982 13.9035 25.6182 13.7 25.5839C13.4965 25.5496 13.2886 25.5617 13.0896 25.6195C12.8907 25.6772 12.705 25.7794 12.5445 25.9193C12.384 26.0593 12.2523 26.234 12.1576 26.4323C12.1064 26.5403 12.0276 26.63 11.9306 26.6908C11.8336 26.7516 11.7225 26.7808 11.6106 26.7749C11.4048 26.7644 11.1992 26.8006 11.007 26.8812C10.8148 26.9618 10.6402 27.0851 10.4945 27.243C10.3488 27.401 10.2351 27.5902 10.1607 27.7985C10.0864 28.0068 10.053 28.2297 10.0627 28.4528C10.0678 28.574 10.0407 28.6943 9.98468 28.7994C9.92865 28.9045 9.846 28.99 9.74654 29.0457C9.56358 29.1484 9.40239 29.2913 9.27327 29.4653C9.14415 29.6393 9.04994 29.8406 8.99667 30.0563C8.94339 30.272 8.93222 30.4974 8.96387 30.7181C8.99551 30.9387 9.06928 31.1498 9.18046 31.3378C9.24061 31.4401 9.27257 31.5589 9.27257 31.6802C9.27257 31.8015 9.24061 31.9202 9.18046 32.0225C9.06929 32.2105 8.99553 32.4215 8.96389 32.6421C8.93225 32.8627 8.94343 33.0881 8.9967 33.3037C9.04998 33.5194 9.14419 33.7206 9.2733 33.8946C9.40242 34.0686 9.5636 34.2114 9.74654 34.314C9.846 34.3699 9.92863 34.4555 9.98465 34.5607C10.0407 34.6658 10.0678 34.7862 10.0627 34.9075C10.0531 35.1309 10.0867 35.354 10.1614 35.5624C10.236 35.7709 10.3499 35.9602 10.4959 36.1181C10.6419 36.2761 10.8168 36.3992 11.0092 36.4797C11.2017 36.5602 11.4076 36.5962 11.6136 36.5854C11.7255 36.5795 11.8366 36.6088 11.9336 36.6695C12.0306 36.7303 12.1094 36.82 12.1606 36.9281C12.2553 37.126 12.387 37.3004 12.5472 37.4401C12.7075 37.5798 12.8929 37.6818 13.0916 37.7395C13.2903 37.7972 13.4979 37.8094 13.7011 37.7754C13.9044 37.7413 14.0989 37.6617 14.2722 37.5417C14.3667 37.4764 14.4764 37.4417 14.5884 37.4417C14.7004 37.4417 14.8101 37.4764 14.9045 37.5417C15.0778 37.6617 15.2723 37.7413 15.4756 37.7754C15.6789 37.8094 15.8865 37.7972 16.0851 37.7395C16.2838 37.6818 16.4692 37.5798 16.6295 37.4401C16.7898 37.3004 16.9215 37.126 17.0161 36.9281C17.0677 36.8202 17.1466 36.7306 17.2437 36.6699C17.3407 36.6091 17.4518 36.5798 17.5637 36.5854C17.7695 36.5956 17.975 36.5592 18.1671 36.4785C18.3591 36.3978 18.5336 36.2745 18.6792 36.1167C18.8249 35.9588 18.9386 35.7697 19.013 35.5615C19.0875 35.3533 19.1211 35.1306 19.1117 34.9075C19.1066 34.7862 19.1337 34.6658 19.1897 34.5607C19.2457 34.4555 19.3284 34.3699 19.4278 34.314C19.5527 34.2438 19.6676 34.1545 19.769 34.0489C19.9647 34.237 20.1633 34.422 20.3655 34.5998C21.6275 35.7127 23.006 36.6606 24.4725 37.424C24.5331 37.4559 24.5996 37.4725 24.6669 37.4725C24.7343 37.4725 24.8008 37.4559 24.8614 37.424C26.2002 36.7262 27.4664 35.8755 28.6385 34.8862H28.6826C28.6317 35.0419 28.6057 35.2059 28.6056 35.3711V36.341C28.6061 36.7267 28.7477 37.0964 28.9993 37.3691C29.2509 37.6418 29.592 37.7953 29.9478 37.7958H37.7024C38.0582 37.7954 38.3994 37.642 38.651 37.3693C38.9027 37.0965 39.0442 36.7267 39.0445 36.341V35.3711C39.0442 34.9854 38.9027 34.6156 38.651 34.3428C38.3994 34.0701 38.0582 33.9167 37.7024 33.9163H37.178C37.2292 33.7607 37.2552 33.5966 37.255 33.4314V32.4615C37.2552 32.2963 37.2292 32.1323 37.178 31.9766H37.7024C38.0582 31.9763 38.3994 31.8229 38.651 31.5501C38.9027 31.2774 39.0442 30.9076 39.0445 30.5218ZM35.9128 26.1575C36.0315 26.1575 36.1453 26.2086 36.2292 26.2995C36.3131 26.3904 36.3602 26.5138 36.3602 26.6424V27.6123C36.3602 27.7409 36.3131 27.8642 36.2292 27.9552C36.1453 28.0461 36.0315 28.0972 35.9128 28.0972H28.1583C28.0397 28.097 27.926 28.0459 27.8421 27.955C27.7582 27.8641 27.711 27.7408 27.7109 27.6123V26.6424C27.711 26.5138 27.7582 26.3906 27.8421 26.2997C27.926 26.2088 28.0397 26.1576 28.1583 26.1575H35.9128ZM26.8161 26.6424V27.5114C25.9587 28.009 24.9765 28.1953 24.0141 28.0428C23.0517 27.8903 22.1599 27.4072 21.4697 26.6644C20.8387 25.9811 20.4093 25.11 20.2359 24.1616C20.0624 23.2133 20.1528 22.2305 20.4956 21.338C20.8383 20.4454 21.418 19.6834 22.161 19.1486C22.904 18.6137 23.7768 18.3302 24.6687 18.3339C25.2627 18.3319 25.8512 18.4572 26.4003 18.7027C26.9494 18.9481 27.4484 19.3089 27.8684 19.7642C28.5126 20.4591 28.9474 21.3494 29.1153 22.3176C29.2832 23.2858 29.1765 24.2865 28.8091 25.1876H28.1583C27.8025 25.1881 27.4614 25.3416 27.2098 25.6143C26.9582 25.887 26.8166 26.2567 26.8161 26.6424ZM15.0477 15.3494C17.2179 14.923 19.3031 14.0901 21.2096 12.8879C22.4547 12.1015 23.6129 11.1635 24.6616 10.0921C25.9047 11.425 27.325 12.5484 28.8753 13.4252C30.5709 14.3856 32.4001 15.0391 34.2903 15.3597V21.2093C34.29 22.5536 34.1222 23.8918 33.7917 25.1876H32.8969C33.2517 23.8967 33.4325 22.5569 33.4338 21.2099V16.5274C33.4338 16.4168 33.3989 16.3094 33.3349 16.2232C33.2709 16.137 33.1816 16.0771 33.0818 16.0535C31.4793 15.6751 29.9305 15.0663 28.4768 14.2431C27.2075 13.5247 26.0197 12.6483 24.9377 11.6316C24.8574 11.5563 24.755 11.5143 24.6488 11.5133C24.5426 11.5122 24.4395 11.5521 24.3579 11.6258C23.5095 12.3936 22.603 13.0827 21.648 13.6857C19.9657 14.7467 18.1483 15.5332 16.2544 16.0199C16.1565 16.0453 16.0693 16.1056 16.0069 16.1912C15.9445 16.2768 15.9104 16.3827 15.9102 16.4919V21.2118C15.9103 22.8308 16.1697 24.4375 16.6767 25.9603C16.507 25.8006 16.3062 25.6848 16.0892 25.6215C15.946 25.5798 15.7977 25.5619 15.6496 25.5684C15.2514 24.1558 15.0486 22.687 15.0477 21.2099V15.3494ZM19.2429 32.5482C19.2867 32.6225 19.3157 32.7058 19.3281 32.793C19.3405 32.8801 19.3361 32.9691 19.315 33.0542C19.294 33.1394 19.2568 33.2188 19.2059 33.2876C19.155 33.3563 19.0914 33.4128 19.0192 33.4534C18.7678 33.5947 18.559 33.811 18.4174 34.0768C18.2757 34.3426 18.2072 34.6468 18.2199 34.9534C18.2238 35.0417 18.2107 35.1298 18.1813 35.2122C18.1519 35.2947 18.107 35.3695 18.0494 35.432C17.9917 35.4944 17.9227 35.5432 17.8466 35.575C17.7706 35.6068 17.6893 35.6211 17.6079 35.6168C17.325 35.6034 17.0445 35.6778 16.7994 35.8313C16.5542 35.9848 16.3546 36.211 16.224 36.4832C16.1865 36.5615 16.1344 36.6304 16.071 36.6856C16.0076 36.7408 15.9343 36.7811 15.8557 36.8039C15.7772 36.8267 15.6951 36.8315 15.6147 36.8181C15.5343 36.8046 15.4574 36.7731 15.3889 36.7257C15.1502 36.5606 14.873 36.4729 14.5899 36.4729C14.3067 36.4729 14.0295 36.5606 13.7908 36.7257C13.7223 36.7731 13.6454 36.8046 13.565 36.8181C13.4846 36.8315 13.4026 36.8267 13.324 36.8039C13.2455 36.7811 13.1721 36.7408 13.1087 36.6856C13.0453 36.6304 12.9932 36.5615 12.9557 36.4832C12.8254 36.2107 12.6259 35.9843 12.3806 35.8308C12.1354 35.6772 11.8548 35.603 11.5718 35.6168C11.49 35.6216 11.4081 35.6076 11.3316 35.5758C11.255 35.544 11.1855 35.4952 11.1275 35.4324C11.0695 35.3696 11.0243 35.2942 10.9949 35.2113C10.9655 35.1283 10.9525 35.0396 10.9568 34.9509C10.9689 34.6444 10.9 34.3406 10.7582 34.0752C10.6164 33.8098 10.4076 33.5939 10.1563 33.4527C10.084 33.4122 10.0203 33.3558 9.9693 33.2872C9.91826 33.2185 9.88099 33.139 9.85989 33.0538C9.83878 32.9686 9.8343 32.8796 9.84672 32.7924C9.85915 32.7053 9.88821 32.6219 9.93205 32.5475C10.0846 32.2889 10.1656 31.9884 10.1656 31.6815C10.1656 31.3745 10.0846 31.074 9.93205 30.8154C9.8878 30.741 9.85841 30.6574 9.84577 30.5699C9.83312 30.4825 9.8375 30.3931 9.85863 30.3076C9.87975 30.2221 9.91716 30.1423 9.96843 30.0735C10.0197 30.0046 10.0837 29.9481 10.1563 29.9076C10.4076 29.7661 10.6164 29.5498 10.758 29.284C10.8996 29.0183 10.9682 28.7142 10.9557 28.4075C10.9517 28.3193 10.9649 28.2311 10.9943 28.1487C11.0236 28.0663 11.0686 27.9915 11.1262 27.929C11.1838 27.8665 11.2529 27.8178 11.3289 27.786C11.4049 27.7542 11.4863 27.7399 11.5677 27.7442C11.8506 27.7578 12.1311 27.6835 12.3763 27.53C12.6215 27.3765 12.8211 27.1502 12.9516 26.8778C12.9891 26.7995 13.0412 26.7306 13.1045 26.6754C13.1679 26.6202 13.2412 26.5799 13.3198 26.557C13.3983 26.5342 13.4804 26.5293 13.5607 26.5426C13.6411 26.556 13.7181 26.5873 13.7867 26.6346C14.0253 26.8 14.3025 26.8878 14.5857 26.8878C14.8689 26.8878 15.1461 26.8 15.3847 26.6346C15.4185 26.6111 15.4545 26.5914 15.4921 26.5758H15.4963C15.6107 26.5283 15.7361 26.522 15.8542 26.5577C15.9331 26.5804 16.0068 26.6209 16.0704 26.6766C16.1339 26.7323 16.1858 26.802 16.2228 26.881C16.3531 27.1535 16.5527 27.3799 16.7979 27.5334C17.0431 27.687 17.3238 27.7612 17.6067 27.7474C17.6881 27.7431 17.7694 27.7574 17.8455 27.7892C17.9215 27.8211 17.9905 27.8698 18.0482 27.9322C18.1058 27.9947 18.1507 28.0696 18.1801 28.152C18.2095 28.2344 18.2226 28.3225 18.2187 28.4108C18.206 28.7174 18.2745 29.0216 18.4162 29.2874C18.5578 29.5532 18.7666 29.7695 19.018 29.9108C19.0902 29.9515 19.1538 30.0079 19.2047 30.0767C19.2556 30.1454 19.2928 30.2249 19.3138 30.31C19.3349 30.3952 19.3393 30.4841 19.3269 30.5712C19.3145 30.6584 19.2855 30.7417 19.2417 30.816C19.0899 31.0746 19.0094 31.3748 19.0095 31.6812C19.0096 31.9877 19.0903 32.2878 19.2423 32.5463L19.2429 32.5482ZM19.4296 29.0476C19.3303 28.9918 19.2478 28.9062 19.1919 28.8012C19.136 28.6961 19.109 28.5759 19.1141 28.4547C19.1303 28.0794 19.0244 27.7098 18.8148 27.4105C18.6053 27.1112 18.3054 26.9011 17.9676 26.817C17.2035 25.0643 16.8057 23.1504 16.8026 21.2118V16.8707C18.6586 16.3572 20.4399 15.5669 22.0954 14.5224C22.985 13.9608 23.8347 13.3277 24.6371 12.6286C25.6938 13.5821 26.8412 14.411 28.0598 15.1011C29.4763 15.9028 30.979 16.511 32.5336 16.9115V21.2073C32.5332 22.5583 32.3394 23.901 31.9592 25.1876H29.7706C29.9794 24.5547 30.0863 23.8877 30.0868 23.2156C30.0916 22.0517 29.7776 20.9124 29.1844 19.9422C28.5913 18.972 27.7458 18.2145 26.7551 17.7656C25.7643 17.3168 24.673 17.197 23.6193 17.4212C22.5657 17.6454 21.5971 18.2036 20.8365 19.0251C20.0758 19.8466 19.5573 20.8944 19.3466 22.0357C19.1359 23.177 19.2425 24.3604 19.653 25.4359C20.0634 26.5114 20.7592 27.4306 21.6521 28.0771C22.5451 28.7235 23.5949 29.0681 24.6687 29.067C25.5012 29.0681 26.3227 28.8615 27.0696 28.4631C27.1938 28.6503 27.3573 28.8027 27.5466 28.9077C27.7359 29.0127 27.9456 29.0674 28.1583 29.067H28.6826C28.6317 29.2228 28.6057 29.3868 28.6056 29.552V30.5218C28.6057 30.687 28.6317 30.851 28.6826 31.0068H28.1583C27.8025 31.0073 27.4614 31.1607 27.2098 31.4334C26.9582 31.7061 26.8166 32.0759 26.8161 32.4615V32.7913C26.1345 33.3516 25.4169 33.8585 24.6687 34.3082C22.9472 33.2736 21.4553 31.9934 20.2289 30.5044C20.2351 30.2044 20.1634 29.9086 20.0219 29.6507C19.8805 29.3928 19.675 29.1832 19.429 29.0457L19.4296 29.0476ZM24.6693 36.4496C23.3376 35.7383 22.0841 34.8669 20.9322 33.8517C20.6858 33.6338 20.4431 33.4062 20.2063 33.1734C20.2733 32.7751 20.1992 32.3641 19.9987 32.0225C19.9191 31.8871 19.8899 31.7239 19.917 31.566C21.2399 33.0593 22.7731 34.3155 24.4593 35.2877C24.5246 35.3259 24.5976 35.3459 24.6717 35.3459C24.7458 35.3459 24.8188 35.3259 24.8841 35.2877C25.5815 34.881 26.2549 34.4275 26.9002 33.9299C27.002 34.228 27.1904 34.4822 27.4371 34.6541C26.56 35.3312 25.6343 35.931 24.6687 36.4477L24.6693 36.4496ZM28.1583 33.9163C28.0397 33.9162 27.926 33.865 27.8421 33.7741C27.7582 33.6832 27.711 33.56 27.7109 33.4314V32.4615C27.711 32.333 27.7582 32.2097 27.8421 32.1188C27.926 32.0279 28.0397 31.9768 28.1583 31.9766H35.9128C36.0315 31.9766 36.1453 32.0277 36.2292 32.1187C36.3131 32.2096 36.3602 32.3329 36.3602 32.4615V33.4314C36.3602 33.56 36.3131 33.6834 36.2292 33.7743C36.1453 33.8652 36.0315 33.9163 35.9128 33.9163H28.1583ZM37.7024 34.8862C37.821 34.8862 37.9348 34.9373 38.0187 35.0282C38.1026 35.1192 38.1497 35.2425 38.1497 35.3711V36.341C38.1497 36.4696 38.1026 36.5929 38.0187 36.6839C37.9348 36.7748 37.821 36.8259 37.7024 36.8259H29.9478C29.8292 36.8257 29.7155 36.7746 29.6316 36.6837C29.5477 36.5928 29.5006 36.4695 29.5004 36.341V35.3711C29.5006 35.2426 29.5477 35.1193 29.6316 35.0284C29.7155 34.9375 29.8292 34.8864 29.9478 34.8862H37.7024ZM29.9478 31.0068C29.8292 31.0066 29.7155 30.9554 29.6316 30.8645C29.5477 30.7736 29.5006 30.6504 29.5004 30.5218V29.552C29.5006 29.4234 29.5477 29.3002 29.6316 29.2093C29.7155 29.1184 29.8292 29.0672 29.9478 29.067H37.7024C37.821 29.067 37.9348 29.1181 38.0187 29.2091C38.1026 29.3 38.1497 29.4234 38.1497 29.552V30.5218C38.1497 30.6504 38.1026 30.7738 38.0187 30.8647C37.9348 30.9557 37.821 31.0068 37.7024 31.0068H29.9478ZM16.3242 29.8539L13.9036 32.4777L12.8519 31.3372C12.768 31.2462 12.6542 31.1951 12.5355 31.1951C12.4168 31.1951 12.303 31.2462 12.2191 31.3372C12.1351 31.4281 12.088 31.5515 12.088 31.6802C12.088 31.8088 12.1351 31.9322 12.2191 32.0232L13.5874 33.5064C13.6715 33.5971 13.7853 33.648 13.9039 33.648C14.0225 33.648 14.1363 33.5971 14.2203 33.5064L16.9565 30.5399C17.038 30.4485 17.0832 30.326 17.0822 30.1989C17.0813 30.0718 17.0343 29.9501 16.9513 29.8601C16.8684 29.7702 16.7562 29.7191 16.6389 29.718C16.5216 29.7168 16.4086 29.7656 16.3242 29.8539Z" fill="white"/>
<defs>
<linearGradient id="paint0_linear_2220_423" x1="0" y1="25" x2="19" y2="25" gradientUnits="userSpaceOnUse">
<stop stop-color="#91E0D7" stop-opacity="0"/>
<stop offset="1" stop-color="#A8EDE5"/>
</linearGradient>
</defs>
</svg>
