<svg width="50" height="50" viewBox="0 0 50 50" fill="none" xmlns="http://www.w3.org/2000/svg">
<rect width="50" height="50" rx="5" fill="#289F91"/>
<rect width="50" height="50" rx="5" fill="url(#paint0_linear_2220_425)" fill-opacity="0.2"/>
<path d="M27.0315 18.4997C27.0315 18.3711 26.9844 18.2478 26.9005 18.1568C26.8166 18.0659 26.7028 18.0148 26.5841 18.0148H22.8589C22.7403 18.0148 22.6265 18.0659 22.5426 18.1568C22.4587 18.2478 22.4116 18.3711 22.4116 18.4997C22.4116 18.6284 22.4587 18.7517 22.5426 18.8426C22.6265 18.9336 22.7403 18.9847 22.8589 18.9847H24.1617C24.3808 18.985 24.5951 19.0543 24.7787 19.1839C24.9623 19.3136 25.1073 19.4982 25.196 19.7153H22.8589C22.7403 19.7153 22.6265 19.7664 22.5426 19.8573C22.4587 19.9483 22.4116 20.0716 22.4116 20.2002C22.4116 20.3288 22.4587 20.4522 22.5426 20.5431C22.6265 20.6341 22.7403 20.6852 22.8589 20.6852H25.196C25.1073 20.9023 24.9623 21.0869 24.7787 21.2165C24.5951 21.3462 24.3808 21.4154 24.1617 21.4158H22.856H22.8261H22.8112C22.802 21.4166 22.7928 21.4181 22.7838 21.4203H22.7677L22.7414 21.4274L22.7253 21.4326C22.7162 21.4355 22.7072 21.4389 22.6985 21.4429C22.6938 21.4445 22.6892 21.4464 22.6848 21.4488C22.6752 21.453 22.6658 21.4577 22.6567 21.463L22.6454 21.4688L22.6221 21.4843C22.6173 21.4872 22.6128 21.4904 22.6084 21.494C22.6022 21.4983 22.5962 21.5031 22.5905 21.5082L22.5726 21.5225L22.5595 21.536L22.5398 21.5561H22.5368L22.5279 21.5671L22.5106 21.5891L22.4987 21.6065C22.4937 21.6132 22.4892 21.6201 22.4849 21.6272C22.4808 21.6337 22.4772 21.6408 22.4736 21.6473L22.4629 21.668C22.4593 21.6751 22.4563 21.6822 22.4533 21.6893L22.4444 21.7113L22.4372 21.7333L22.4301 21.7559L22.4247 21.7785C22.4247 21.7863 22.4211 21.794 22.4199 21.8018L22.4163 21.8264C22.4163 21.8341 22.4163 21.8412 22.4163 21.849C22.4163 21.8568 22.4163 21.8671 22.4163 21.8768C22.4163 21.8865 22.4163 21.8871 22.4163 21.8923V21.9046C22.4163 21.9136 22.4163 21.9233 22.4163 21.933C22.4163 21.9427 22.4163 21.9466 22.4163 21.9531L22.4199 21.9777C22.4199 21.9848 22.4199 21.9925 22.4235 22.0003C22.4271 22.008 22.4235 22.0132 22.4283 22.0203C22.433 22.0274 22.4318 22.0378 22.4342 22.0462C22.4366 22.0546 22.4384 22.0578 22.4402 22.0643L22.4491 22.0902L22.4581 22.1102C22.4617 22.1173 22.4647 22.1251 22.4682 22.1322L22.479 22.1516L22.4909 22.1729L22.5022 22.1891L22.5177 22.2111L22.5291 22.2247L22.5482 22.2466L25.3672 25.1898C25.4503 25.2773 25.5616 25.326 25.6774 25.3256C25.7666 25.3255 25.8537 25.2966 25.9276 25.2425C26.0015 25.1884 26.0587 25.1116 26.0921 25.022C26.1254 24.9323 26.1333 24.834 26.1147 24.7394C26.0961 24.6449 26.0518 24.5586 25.9876 24.4915L23.9678 22.3824H24.1617C24.6194 22.3832 25.0639 22.2158 25.4226 21.9076C25.7813 21.5993 26.033 21.1684 26.1367 20.6852H26.5889C26.7075 20.6852 26.8213 20.6341 26.9052 20.5431C26.9891 20.4522 27.0363 20.3288 27.0363 20.2002C27.0363 20.0716 26.9891 19.9483 26.9052 19.8573C26.8213 19.7664 26.7075 19.7153 26.5889 19.7153H26.1367C26.0817 19.4544 25.9828 19.2067 25.845 18.9847H26.5889C26.7067 18.9833 26.8193 18.9316 26.9022 18.8408C26.985 18.75 27.0315 18.6275 27.0315 18.4997ZM39.0982 28.7259V27.7561C39.0979 27.3703 38.9564 27.0005 38.7047 26.7278C38.4531 26.455 38.1119 26.3016 37.7561 26.3013H37.2317C37.2829 26.1456 37.309 25.9816 37.3087 25.8164V24.8465C37.3084 24.4608 37.1669 24.0909 36.9152 23.8182C36.6636 23.5454 36.3224 23.3921 35.9665 23.3917H34.7735C35.0833 22.0925 35.2402 20.7559 35.2406 19.414V13.1455C35.2406 13.0281 35.2012 12.9147 35.1299 12.8264C35.0586 12.738 34.9602 12.6807 34.8529 12.6651C32.9288 12.3854 31.0646 11.7439 29.3441 10.7693C27.7472 9.86586 26.2966 8.6866 25.0493 7.27783C25.0081 7.23169 24.959 7.1948 24.9046 7.16928C24.8502 7.14376 24.7918 7.13012 24.7326 7.12912C24.6724 7.12716 24.6124 7.13853 24.5564 7.16255C24.5004 7.18656 24.4495 7.22271 24.4069 7.26878C23.3291 8.42385 22.1212 9.42686 20.8117 10.254C18.8889 11.4655 16.777 12.2835 14.5812 12.667C14.4765 12.6856 14.3813 12.7439 14.3125 12.8315C14.2438 12.9192 14.2061 13.0304 14.206 13.1455V19.414C14.2064 20.9951 14.424 22.5673 14.8515 24.079C14.7658 24.1148 14.6736 24.1284 14.5822 24.1187C14.4909 24.1089 14.4029 24.076 14.3253 24.0228C14.1519 23.9023 13.9572 23.8223 13.7537 23.788C13.5502 23.7537 13.3423 23.7658 13.1433 23.8236C12.9444 23.8813 12.7587 23.9835 12.5982 24.1234C12.4377 24.2634 12.306 24.4381 12.2113 24.6364C12.1601 24.7444 12.0813 24.8341 11.9843 24.8949C11.8873 24.9557 11.7762 24.9849 11.6643 24.979C11.4585 24.9685 11.2529 25.0047 11.0607 25.0853C10.8685 25.1659 10.6939 25.2892 10.5482 25.4471C10.4025 25.6051 10.2888 25.7943 10.2145 26.0026C10.1401 26.2109 10.1067 26.4338 10.1164 26.6569C10.1215 26.7781 10.0944 26.8984 10.0384 27.0035C9.98236 27.1086 9.89972 27.1941 9.80025 27.2498C9.61729 27.3525 9.4561 27.4954 9.32698 27.6694C9.19786 27.8434 9.10365 28.0447 9.05038 28.2604C8.9971 28.4761 8.98593 28.7015 9.01758 28.9222C9.04922 29.1428 9.12299 29.3539 9.23417 29.5419C9.29432 29.6442 9.32628 29.763 9.32628 29.8843C9.32628 30.0056 9.29432 30.1243 9.23417 30.2266C9.123 30.4146 9.04924 30.6256 9.0176 30.8462C8.98596 31.0668 8.99714 31.2922 9.05041 31.5078C9.10369 31.7235 9.1979 31.9247 9.32701 32.0987C9.45613 32.2727 9.61731 32.4155 9.80025 32.5181C9.89972 32.574 9.98234 32.6596 10.0384 32.7648C10.0944 32.8699 10.1215 32.9903 10.1164 33.1116C10.1069 33.335 10.1405 33.5581 10.2151 33.7665C10.2897 33.975 10.4036 34.1643 10.5496 34.3222C10.6956 34.4802 10.8705 34.6033 11.0629 34.6838C11.2554 34.7643 11.4613 34.8003 11.6673 34.7895C11.7792 34.7836 11.8903 34.8129 11.9873 34.8736C12.0843 34.9344 12.1631 35.0242 12.2143 35.1322C12.309 35.3301 12.4407 35.5045 12.601 35.6442C12.7613 35.7839 12.9466 35.8859 13.1453 35.9436C13.344 36.0013 13.5516 36.0135 13.7549 35.9795C13.9581 35.9454 14.1526 35.8658 14.3259 35.7458C14.4204 35.6805 14.5301 35.6458 14.6421 35.6458C14.7541 35.6458 14.8638 35.6805 14.9582 35.7458C15.1315 35.8658 15.326 35.9454 15.5293 35.9795C15.7326 36.0135 15.9402 36.0013 16.1388 35.9436C16.3375 35.8859 16.5229 35.7839 16.6832 35.6442C16.8435 35.5045 16.9752 35.3301 17.0699 35.1322C17.1214 35.0243 17.2003 34.9347 17.2974 34.874C17.3944 34.8132 17.5055 34.7839 17.6174 34.7895C17.8232 34.7997 18.0287 34.7633 18.2208 34.6826C18.4129 34.6019 18.5873 34.4786 18.7329 34.3208C18.8786 34.1629 18.9923 33.9738 19.0668 33.7656C19.1412 33.5574 19.1748 33.3347 19.1654 33.1116C19.1603 32.9903 19.1874 32.8699 19.2434 32.7648C19.2994 32.6596 19.3821 32.574 19.4815 32.5181C19.6064 32.4479 19.7213 32.3586 19.8227 32.253C20.0184 32.4411 20.217 32.6261 20.4192 32.8039C21.6812 33.9168 23.0597 34.8647 24.5262 35.6281C24.5868 35.66 24.6533 35.6766 24.7206 35.6766C24.788 35.6766 24.8545 35.66 24.9151 35.6281C26.2539 34.9303 27.5201 34.0796 28.6922 33.0903H28.7363C28.6854 33.246 28.6594 33.41 28.6594 33.5752V34.5451C28.6598 34.9308 28.8014 35.3005 29.053 35.5732C29.3046 35.8459 29.6457 35.9994 30.0015 35.9999H37.7561C38.1119 35.9995 38.4531 35.8461 38.7047 35.5734C38.9564 35.3006 39.0979 34.9308 39.0982 34.5451V33.5752C39.0979 33.1895 38.9564 32.8197 38.7047 32.5469C38.4531 32.2742 38.1119 32.1208 37.7561 32.1204H37.2317C37.2829 31.9648 37.309 31.8007 37.3087 31.6355V30.6657C37.309 30.5004 37.2829 30.3364 37.2317 30.1807H37.7561C38.1119 30.1804 38.4531 30.027 38.7047 29.7542C38.9564 29.4815 39.0979 29.1117 39.0982 28.7259ZM35.9665 24.3616C36.0852 24.3616 36.199 24.4127 36.2829 24.5036C36.3668 24.5945 36.4139 24.7179 36.4139 24.8465V25.8164C36.4139 25.945 36.3668 26.0683 36.2829 26.1593C36.199 26.2502 36.0852 26.3013 35.9665 26.3013H28.212C28.0934 26.3011 27.9797 26.25 27.8958 26.1591C27.8119 26.0682 27.7648 25.9449 27.7646 25.8164V24.8465C27.7648 24.7179 27.8119 24.5947 27.8958 24.5038C27.9797 24.4129 28.0934 24.3617 28.212 24.3616H35.9665ZM26.8698 24.8465V25.7155C26.0124 26.2131 25.0302 26.3994 24.0678 26.2469C23.1055 26.0944 22.2136 25.6113 21.5234 24.8685C20.8924 24.1852 20.463 23.3141 20.2896 22.3657C20.1161 21.4174 20.2065 20.4346 20.5493 19.5421C20.892 18.6495 21.4717 17.8875 22.2147 17.3527C22.9577 16.8178 23.8305 16.5343 24.7224 16.538C25.3164 16.536 25.9049 16.6613 26.454 16.9068C27.0032 17.1522 27.5021 17.513 27.9221 17.9683C28.5663 18.6632 29.0011 19.5535 29.169 20.5217C29.337 21.4899 29.2302 22.4906 28.8628 23.3917H28.212C27.8562 23.3922 27.5151 23.5457 27.2635 23.8184C27.0119 24.0911 26.8703 24.4608 26.8698 24.8465ZM15.1014 13.5535C17.2717 13.1271 19.3568 12.2942 21.2633 11.092C22.5084 10.3056 23.6666 9.36756 24.7153 8.29619C25.9584 9.62906 27.3787 10.7526 28.929 11.6293C30.6247 12.5897 32.4538 13.2432 34.3441 13.5638V19.4134C34.3437 20.7578 34.176 22.0959 33.8454 23.3917H32.9506C33.3054 22.1008 33.4862 20.761 33.4875 19.414V14.7315C33.4875 14.6209 33.4526 14.5135 33.3886 14.4273C33.3246 14.3411 33.2353 14.2812 33.1355 14.2576C31.533 13.8792 29.9842 13.2704 28.5305 12.4472C27.2612 11.7288 26.0734 10.8524 24.9914 9.83568C24.9111 9.76037 24.8087 9.71844 24.7025 9.71737C24.5963 9.71631 24.4932 9.75617 24.4116 9.82986C23.5632 10.5977 22.6567 11.2868 21.7017 11.8898C20.0194 12.9508 18.202 13.7373 16.3081 14.224C16.2102 14.2494 16.123 14.3097 16.0606 14.3953C15.9982 14.4809 15.9641 14.5868 15.9639 14.696V19.4159C15.964 21.0349 16.2234 22.6416 16.7304 24.1644C16.5608 24.0047 16.3599 23.8889 16.1429 23.8256C15.9997 23.7839 15.8514 23.766 15.7033 23.7725C15.3051 22.3599 15.1023 20.8911 15.1014 19.414V13.5535ZM19.2966 30.7523C19.3404 30.8266 19.3694 30.91 19.3818 30.9971C19.3942 31.0842 19.3898 31.1732 19.3687 31.2583C19.3477 31.3435 19.3105 31.4229 19.2596 31.4917C19.2087 31.5604 19.1451 31.6169 19.0729 31.6575C18.8215 31.7988 18.6127 32.0151 18.4711 32.2809C18.3294 32.5467 18.2609 32.8509 18.2736 33.1575C18.2775 33.2458 18.2644 33.3339 18.235 33.4163C18.2056 33.4988 18.1607 33.5736 18.1031 33.6361C18.0454 33.6985 17.9764 33.7473 17.9004 33.7791C17.8243 33.8109 17.743 33.8252 17.6616 33.8209C17.3787 33.8075 17.0983 33.8819 16.8531 34.0354C16.6079 34.1889 16.4083 34.4151 16.2777 34.6873C16.2402 34.7656 16.1881 34.8345 16.1247 34.8897C16.0613 34.9449 15.988 34.9852 15.9094 35.008C15.8309 35.0308 15.7488 35.0356 15.6684 35.0222C15.588 35.0087 15.5111 34.9772 15.4426 34.9298C15.2039 34.7647 14.9267 34.677 14.6436 34.677C14.3604 34.677 14.0832 34.7647 13.8446 34.9298C13.776 34.9772 13.6991 35.0087 13.6187 35.0222C13.5384 35.0356 13.4563 35.0308 13.3777 35.008C13.2992 34.9852 13.2258 34.9449 13.1624 34.8897C13.099 34.8345 13.0469 34.7656 13.0094 34.6873C12.8791 34.4148 12.6796 34.1884 12.4343 34.0349C12.1891 33.8813 11.9085 33.8071 11.6256 33.8209C11.5437 33.8257 11.4618 33.8117 11.3853 33.7799C11.3087 33.7481 11.2392 33.6993 11.1812 33.6365C11.1232 33.5737 11.078 33.4983 11.0486 33.4154C11.0192 33.3324 11.0063 33.2437 11.0106 33.155C11.0226 32.8485 10.9537 32.5447 10.8119 32.2793C10.6701 32.0139 10.4613 31.798 10.21 31.6568C10.1378 31.6163 10.0741 31.5599 10.023 31.4913C9.97197 31.4226 9.93471 31.3431 9.9136 31.2579C9.89249 31.1727 9.88801 31.0837 9.90043 30.9965C9.91286 30.9094 9.94192 30.826 9.98576 30.7516C10.1383 30.493 10.2193 30.1925 10.2193 29.8856C10.2193 29.5786 10.1383 29.2781 9.98576 29.0195C9.94152 28.9451 9.91212 28.8615 9.89948 28.774C9.88683 28.6866 9.89121 28.5972 9.91234 28.5117C9.93346 28.4262 9.97087 28.3464 10.0221 28.2776C10.0734 28.2087 10.1374 28.1522 10.21 28.1117C10.4613 27.9702 10.6701 27.7539 10.8117 27.4881C10.9533 27.2224 11.0219 26.9183 11.0094 26.6116C11.0054 26.5234 11.0186 26.4352 11.048 26.3528C11.0773 26.2704 11.1223 26.1956 11.1799 26.1331C11.2375 26.0706 11.3066 26.0219 11.3826 25.9901C11.4586 25.9583 11.54 25.944 11.6214 25.9483C11.9043 25.9619 12.1848 25.8876 12.43 25.7341C12.6752 25.5806 12.8748 25.3543 13.0053 25.0819C13.0428 25.0036 13.0949 24.9347 13.1583 24.8795C13.2216 24.8243 13.2949 24.784 13.3735 24.7611C13.452 24.7383 13.5341 24.7334 13.6145 24.7467C13.6948 24.7601 13.7718 24.7914 13.8404 24.8387C14.079 25.0041 14.3562 25.0919 14.6394 25.0919C14.9226 25.0919 15.1998 25.0041 15.4384 24.8387C15.4722 24.8152 15.5082 24.7955 15.5458 24.7799H15.55C15.6644 24.7324 15.7899 24.7261 15.9079 24.7618C15.9869 24.7845 16.0605 24.825 16.1241 24.8807C16.1876 24.9364 16.2395 25.0061 16.2765 25.0851C16.4068 25.3576 16.6064 25.584 16.8516 25.7375C17.0968 25.8911 17.3775 25.9653 17.6604 25.9515C17.7418 25.9472 17.8231 25.9615 17.8992 25.9933C17.9752 26.0252 18.0442 26.0739 18.1019 26.1363C18.1595 26.1988 18.2044 26.2737 18.2338 26.3561C18.2632 26.4385 18.2763 26.5266 18.2724 26.6149C18.2597 26.9215 18.3283 27.2257 18.4699 27.4915C18.6115 27.7573 18.8204 27.9736 19.0717 28.1149C19.1439 28.1556 19.2075 28.212 19.2584 28.2808C19.3093 28.3495 19.3465 28.429 19.3676 28.5141C19.3886 28.5993 19.3931 28.6882 19.3806 28.7753C19.3682 28.8625 19.3392 28.9458 19.2954 29.0201C19.1436 29.2787 19.0631 29.5789 19.0632 29.8853C19.0633 30.1918 19.1441 30.4919 19.296 30.7504L19.2966 30.7523ZM19.4833 27.2517C19.384 27.1959 19.3015 27.1103 19.2456 27.0053C19.1897 26.9002 19.1627 26.78 19.1678 26.6588C19.184 26.2835 19.0781 25.9139 18.8685 25.6146C18.659 25.3153 18.3591 25.1052 18.0213 25.0211C17.2572 23.2684 16.8594 21.3545 16.8563 19.4159V15.0749C18.7123 14.5613 20.4936 13.771 22.1491 12.7265C23.0388 12.1649 23.8884 11.5318 24.6908 10.8327C25.7475 11.7862 26.8949 12.6151 28.1136 13.3052C29.53 14.1069 31.0327 14.7151 32.5873 15.1156V19.4114C32.5869 20.7624 32.3932 22.1051 32.0129 23.3917H29.8243C30.0331 22.7588 30.14 22.0918 30.1405 21.4197C30.1453 20.2558 29.8313 19.1165 29.2382 18.1463C28.645 17.1761 27.7995 16.4186 26.8088 15.9698C25.818 15.5209 24.7267 15.4011 23.673 15.6253C22.6194 15.8495 21.6508 16.4077 20.8902 17.2292C20.1295 18.0507 19.611 19.0985 19.4003 20.2398C19.1896 21.3811 19.2962 22.5645 19.7067 23.64C20.1171 24.7155 20.8129 25.6347 21.7058 26.2812C22.5988 26.9276 23.6486 27.2722 24.7224 27.2711C25.5549 27.2722 26.3764 27.0656 27.1234 26.6672C27.2475 26.8544 27.411 27.0068 27.6003 27.1118C27.7896 27.2168 27.9993 27.2715 28.212 27.2711H28.7363C28.6854 27.4269 28.6594 27.5909 28.6594 27.7561V28.7259C28.6594 28.8911 28.6854 29.0551 28.7363 29.2109H28.212C27.8562 29.2114 27.5151 29.3648 27.2635 29.6375C27.0119 29.9102 26.8703 30.28 26.8698 30.6657V30.9954C26.1882 31.5557 25.4706 32.0626 24.7224 32.5123C23.0009 31.4777 21.5091 30.1975 20.2826 28.7085C20.2888 28.4085 20.2171 28.1127 20.0756 27.8548C19.9342 27.5969 19.7288 27.3873 19.4827 27.2498L19.4833 27.2517ZM24.723 34.6537C23.3914 33.9424 22.1378 33.071 20.9859 32.0558C20.7396 31.8379 20.4968 31.6103 20.26 31.3775C20.327 30.9792 20.2529 30.5682 20.0524 30.2266C19.9728 30.0912 19.9436 29.928 19.9707 29.7701C21.2936 31.2634 22.8268 32.5196 24.5131 33.4918C24.5783 33.53 24.6513 33.55 24.7254 33.55C24.7996 33.55 24.8725 33.53 24.9378 33.4918C25.6352 33.0851 26.3086 32.6316 26.954 32.134C27.0557 32.4321 27.2441 32.6863 27.4908 32.8582C26.6137 33.5353 25.688 34.1351 24.7224 34.6518L24.723 34.6537ZM28.212 32.1204C28.0934 32.1203 27.9797 32.0691 27.8958 31.9782C27.8119 31.8873 27.7648 31.7641 27.7646 31.6355V30.6657C27.7648 30.5371 27.8119 30.4138 27.8958 30.3229C27.9797 30.232 28.0934 30.1809 28.212 30.1807H35.9665C36.0852 30.1807 36.199 30.2318 36.2829 30.3228C36.3668 30.4137 36.4139 30.537 36.4139 30.6657V31.6355C36.4139 31.7641 36.3668 31.8875 36.2829 31.9784C36.199 32.0693 36.0852 32.1204 35.9665 32.1204H28.212ZM37.7561 33.0903C37.8747 33.0903 37.9885 33.1414 38.0724 33.2323C38.1563 33.3233 38.2034 33.4466 38.2034 33.5752V34.5451C38.2034 34.6737 38.1563 34.797 38.0724 34.888C37.9885 34.9789 37.8747 35.03 37.7561 35.03H30.0015C29.8829 35.0298 29.7692 34.9787 29.6853 34.8878C29.6015 34.7969 29.5543 34.6736 29.5541 34.5451V33.5752C29.5543 33.4467 29.6015 33.3234 29.6853 33.2325C29.7692 33.1416 29.8829 33.0905 30.0015 33.0903H37.7561ZM30.0015 29.2109C29.8829 29.2107 29.7692 29.1595 29.6853 29.0686C29.6015 28.9777 29.5543 28.8545 29.5541 28.7259V27.7561C29.5543 27.6275 29.6015 27.5043 29.6853 27.4134C29.7692 27.3225 29.8829 27.2713 30.0015 27.2711H37.7561C37.8747 27.2711 37.9885 27.3222 38.0724 27.4132C38.1563 27.5041 38.2034 27.6275 38.2034 27.7561V28.7259C38.2034 28.8545 38.1563 28.9779 38.0724 29.0688C37.9885 29.1598 37.8747 29.2109 37.7561 29.2109H30.0015ZM16.3779 28.058L13.9573 30.6818L12.9057 29.5413C12.8217 29.4503 12.7079 29.3992 12.5892 29.3992C12.4705 29.3992 12.3567 29.4503 12.2728 29.5413C12.1888 29.6322 12.1417 29.7556 12.1417 29.8843C12.1417 30.0129 12.1888 30.1363 12.2728 30.2273L13.6411 31.7105C13.7252 31.8012 13.839 31.8521 13.9576 31.8521C14.0762 31.8521 14.19 31.8012 14.274 31.7105L17.0102 28.744C17.0917 28.6526 17.1369 28.5301 17.1359 28.403C17.135 28.2759 17.088 28.1542 17.0051 28.0643C16.9221 27.9743 16.81 27.9232 16.6927 27.9221C16.5754 27.9209 16.4623 27.9697 16.3779 28.058Z" fill="white"/>
<defs>
<linearGradient id="paint0_linear_2220_425" x1="0" y1="25" x2="19" y2="25" gradientUnits="userSpaceOnUse">
<stop stop-color="#91E0D7" stop-opacity="0"/>
<stop offset="1" stop-color="#A8EDE5"/>
</linearGradient>
</defs>
</svg>
