<svg width="50" height="50" viewBox="0 0 50 50" fill="none" xmlns="http://www.w3.org/2000/svg">
<rect width="50" height="50" rx="5" fill="#289F91"/>
<rect width="50" height="50" rx="5" fill="url(#paint0_linear_2220_426)" fill-opacity="0.2"/>
<path d="M33.617 12.6211V10.4023C33.6173 10.0507 33.5496 9.70331 33.4186 9.38472C33.2877 9.06614 33.0967 8.78412 32.8593 8.55862C32.6218 8.33312 32.3436 8.16965 32.0444 8.07976C31.7452 7.98987 31.4322 7.97576 31.1277 8.03844L13.2553 11.7292C11.5957 12.0773 10 13.5855 10 15.5216" stroke="white" stroke-width="2" stroke-linecap="round" stroke-linejoin="round"/>
<path d="M38.0851 21.3224V15.5215C38.0851 14.7523 37.8161 14.0146 37.3373 13.4706C36.8585 12.9267 36.2091 12.6211 35.5319 12.6211H12.5532C11.876 12.6211 11.2266 12.9267 10.7478 13.4706C10.269 14.0146 10 14.7523 10 15.5215V35.0995C10 35.8688 10.269 36.6065 10.7478 37.1504C11.2266 37.6944 11.876 38 12.5532 38H35.5319C36.2091 38 36.8585 37.6944 37.3373 37.1504C37.8161 36.6065 38.0851 35.8688 38.0851 35.0995V29.2986" stroke="white" stroke-width="2" stroke-linecap="round" stroke-linejoin="round"/>
<path d="M31.0638 29.2985H38.7234C39.062 29.2985 39.3867 29.1457 39.6261 28.8737C39.8655 28.6018 40 28.2329 40 27.8483V22.7725C40 22.3879 39.8655 22.019 39.6261 21.747C39.3867 21.4751 39.062 21.3223 38.7234 21.3223H31.0638L29.1489 25.3104L31.0638 29.2985Z" stroke="white" stroke-width="2" stroke-linecap="round" stroke-linejoin="round"/>
<path d="M33.6169 26.7605C34.322 26.7605 34.8935 26.1112 34.8935 25.3102C34.8935 24.5093 34.322 23.86 33.6169 23.86C32.9119 23.86 32.3403 24.5093 32.3403 25.3102C32.3403 26.1112 32.9119 26.7605 33.6169 26.7605Z" fill="white"/>
<defs>
<linearGradient id="paint0_linear_2220_426" x1="0" y1="25" x2="19" y2="25" gradientUnits="userSpaceOnUse">
<stop stop-color="#91E0D7" stop-opacity="0"/>
<stop offset="1" stop-color="#A8EDE5"/>
</linearGradient>
</defs>
</svg>
