<svg width="16" height="15" viewBox="0 0 16 15" fill="none" xmlns="http://www.w3.org/2000/svg">
<path d="M15.802 7.10633L14.09 5.86634C13.7799 5.64169 13.3511 5.87045 13.3511 6.25995V7.01836H5.13113C4.87226 7.01836 4.66235 7.23398 4.66235 7.49997C4.66235 7.76597 4.87226 7.98156 5.13113 7.98156H13.3511V8.73993C13.3511 9.13201 13.7821 9.35649 14.09 9.13355L15.8019 7.89356C16.0634 7.70433 16.0686 7.29986 15.802 7.10633Z" fill="#289F91"/>
<path d="M13.4522 10.5923C13.2282 10.4592 12.9414 10.5378 12.8117 10.7681C11.7106 12.7238 9.65226 14.0368 7.3001 14.0368C3.79179 14.0368 0.937532 11.1044 0.937532 7.5C0.937532 3.89562 3.79179 0.963205 7.3001 0.963205C9.65382 0.963205 11.7112 2.27739 12.8117 4.23186C12.9413 4.46212 13.2282 4.54068 13.4522 4.40761C13.6763 4.27443 13.7529 3.9798 13.6233 3.74957C12.3568 1.5003 9.99154 0 7.3001 0C3.26532 0 0 3.35438 0 7.5C0 11.6453 3.26497 15 7.3001 15C9.9927 15 12.3574 13.4986 13.6233 11.2504C13.7529 11.0201 13.6763 10.7255 13.4522 10.5923Z" fill="#289F91"/>
</svg>
