<svg width="50" height="50" viewBox="0 0 50 50" fill="none" xmlns="http://www.w3.org/2000/svg">
<rect width="50" height="50" rx="5" fill="#289F91"/>
<rect width="50" height="50" rx="5" fill="url(#paint0_linear_2198_5)" fill-opacity="0.2"/>
<path d="M37.5 12.5H35.8333V12.0833C35.8333 11.5308 35.6138 11.0009 35.2231 10.6102C34.8324 10.2195 34.3025 10 33.75 10C33.1975 10 32.6676 10.2195 32.2769 10.6102C31.8862 11.0009 31.6667 11.5308 31.6667 12.0833V12.5H30V12.0833C30 11.5308 29.7805 11.0009 29.3898 10.6102C28.9991 10.2195 28.4692 10 27.9167 10C27.3641 10 26.8342 10.2195 26.4435 10.6102C26.0528 11.0009 25.8333 11.5308 25.8333 12.0833V12.5H24.1667V12.0833C24.1667 11.5308 23.9472 11.0009 23.5565 10.6102C23.1658 10.2195 22.6359 10 22.0833 10C21.5308 10 21.0009 10.2195 20.6102 10.6102C20.2195 11.0009 20 11.5308 20 12.0833V12.5H18.3333V12.0833C18.3333 11.5308 18.1138 11.0009 17.7231 10.6102C17.3324 10.2195 16.8025 10 16.25 10C15.6975 10 15.1676 10.2195 14.7769 10.6102C14.3862 11.0009 14.1667 11.5308 14.1667 12.0833V12.5H12.5C11.837 12.5 11.2011 12.7634 10.7322 13.2322C10.2634 13.7011 10 14.337 10 15V16.6667C10.0014 17.1825 10.1624 17.6852 10.4608 18.1059C10.7592 18.5266 11.1804 18.8447 11.6667 19.0167V36.6667C11.6667 37.5507 12.0179 38.3986 12.643 39.0237C13.2681 39.6488 14.1159 40 15 40H35C35.8841 40 36.7319 39.6488 37.357 39.0237C37.9821 38.3986 38.3333 37.5507 38.3333 36.6667V19.0167C38.8196 18.8447 39.2408 18.5266 39.5392 18.1059C39.8376 17.6852 39.9986 17.1825 40 16.6667V15C40 14.337 39.7366 13.7011 39.2678 13.2322C38.7989 12.7634 38.163 12.5 37.5 12.5ZM33.3333 12.0833C33.3333 11.9728 33.3772 11.8668 33.4554 11.7887C33.5335 11.7106 33.6395 11.6667 33.75 11.6667C33.8605 11.6667 33.9665 11.7106 34.0446 11.7887C34.1228 11.8668 34.1667 11.9728 34.1667 12.0833V14.5833C34.1667 14.6938 34.1228 14.7998 34.0446 14.878C33.9665 14.9561 33.8605 15 33.75 15C33.6395 15 33.5335 14.9561 33.4554 14.878C33.3772 14.7998 33.3333 14.6938 33.3333 14.5833V12.0833ZM27.5 12.0833C27.5 11.9728 27.5439 11.8668 27.622 11.7887C27.7002 11.7106 27.8062 11.6667 27.9167 11.6667C28.0272 11.6667 28.1332 11.7106 28.2113 11.7887C28.2894 11.8668 28.3333 11.9728 28.3333 12.0833V14.5833C28.3333 14.6938 28.2894 14.7998 28.2113 14.878C28.1332 14.9561 28.0272 15 27.9167 15C27.8062 15 27.7002 14.9561 27.622 14.878C27.5439 14.7998 27.5 14.6938 27.5 14.5833V12.0833ZM21.6667 12.0833C21.6667 11.9728 21.7106 11.8668 21.7887 11.7887C21.8668 11.7106 21.9728 11.6667 22.0833 11.6667C22.1938 11.6667 22.2998 11.7106 22.378 11.7887C22.4561 11.8668 22.5 11.9728 22.5 12.0833V14.5833C22.5 14.6938 22.4561 14.7998 22.378 14.878C22.2998 14.9561 22.1938 15 22.0833 15C21.9728 15 21.8668 14.9561 21.7887 14.878C21.7106 14.7998 21.6667 14.6938 21.6667 14.5833V12.0833ZM15.8333 12.0833C15.8333 11.9728 15.8772 11.8668 15.9554 11.7887C16.0335 11.7106 16.1395 11.6667 16.25 11.6667C16.3605 11.6667 16.4665 11.7106 16.5446 11.7887C16.6228 11.8668 16.6667 11.9728 16.6667 12.0833V14.5833C16.6667 14.6938 16.6228 14.7998 16.5446 14.878C16.4665 14.9561 16.3605 15 16.25 15C16.1395 15 16.0335 14.9561 15.9554 14.878C15.8772 14.7998 15.8333 14.6938 15.8333 14.5833V12.0833ZM36.6667 36.6667C36.6667 37.1087 36.4911 37.5326 36.1785 37.8452C35.866 38.1577 35.442 38.3333 35 38.3333H15C14.558 38.3333 14.134 38.1577 13.8215 37.8452C13.5089 37.5326 13.3333 37.1087 13.3333 36.6667V19.1667H36.6667V36.6667ZM38.3333 16.6667C38.3333 16.8877 38.2455 17.0996 38.0893 17.2559C37.933 17.4122 37.721 17.5 37.5 17.5H12.5C12.279 17.5 12.067 17.4122 11.9107 17.2559C11.7545 17.0996 11.6667 16.8877 11.6667 16.6667V15C11.6667 14.779 11.7545 14.567 11.9107 14.4107C12.067 14.2545 12.279 14.1667 12.5 14.1667H14.1667V14.5833C14.1667 15.1359 14.3862 15.6658 14.7769 16.0565C15.1676 16.4472 15.6975 16.6667 16.25 16.6667C16.8025 16.6667 17.3324 16.4472 17.7231 16.0565C18.1138 15.6658 18.3333 15.1359 18.3333 14.5833V14.1667H20V14.5833C20 15.1359 20.2195 15.6658 20.6102 16.0565C21.0009 16.4472 21.5308 16.6667 22.0833 16.6667C22.6359 16.6667 23.1658 16.4472 23.5565 16.0565C23.9472 15.6658 24.1667 15.1359 24.1667 14.5833V14.1667H25.8333V14.5833C25.8333 15.1359 26.0528 15.6658 26.4435 16.0565C26.8342 16.4472 27.3641 16.6667 27.9167 16.6667C28.4692 16.6667 28.9991 16.4472 29.3898 16.0565C29.7805 15.6658 30 15.1359 30 14.5833V14.1667H31.6667V14.5833C31.6667 15.1359 31.8862 15.6658 32.2769 16.0565C32.6676 16.4472 33.1975 16.6667 33.75 16.6667C34.3025 16.6667 34.8324 16.4472 35.2231 16.0565C35.6138 15.6658 35.8333 15.1359 35.8333 14.5833V14.1667H37.5C37.721 14.1667 37.933 14.2545 38.0893 14.4107C38.2455 14.567 38.3333 14.779 38.3333 15V16.6667Z" fill="white"/>
<path d="M38.3334 15.0001V16.6667C38.3334 16.8878 38.2456 17.0997 38.0893 17.256C37.9331 17.4123 37.7211 17.5001 37.5001 17.5001H12.5001C12.2791 17.5001 12.0671 17.4123 11.9108 17.256C11.7545 17.0997 11.6667 16.8878 11.6667 16.6667V15.0001C11.6667 14.7791 11.7545 14.5671 11.9108 14.4108C12.0671 14.2545 12.2791 14.1667 12.5001 14.1667H14.1667V14.5834C14.1667 15.1359 14.3862 15.6659 14.7769 16.0566C15.1676 16.4473 15.6975 16.6667 16.2501 16.6667C16.8026 16.6667 17.3325 16.4473 17.7232 16.0566C18.1139 15.6659 18.3334 15.1359 18.3334 14.5834V14.1667H20.0001V14.5834C20.0001 15.1359 20.2196 15.6659 20.6103 16.0566C21.001 16.4473 21.5309 16.6667 22.0834 16.6667C22.6359 16.6667 23.1659 16.4473 23.5566 16.0566C23.9473 15.6659 24.1667 15.1359 24.1667 14.5834V14.1667H25.8334V14.5834C25.8334 15.1359 26.0529 15.6659 26.4436 16.0566C26.8343 16.4473 27.3642 16.6667 27.9167 16.6667C28.4693 16.6667 28.9992 16.4473 29.3899 16.0566C29.7806 15.6659 30.0001 15.1359 30.0001 14.5834V14.1667H31.6667V14.5834C31.6667 15.1359 31.8862 15.6659 32.2769 16.0566C32.6676 16.4473 33.1975 16.6667 33.7501 16.6667C34.3026 16.6667 34.8325 16.4473 35.2232 16.0566C35.6139 15.6659 35.8334 15.1359 35.8334 14.5834V14.1667H37.5001C37.7211 14.1667 37.9331 14.2545 38.0893 14.4108C38.2456 14.5671 38.3334 14.7791 38.3334 15.0001Z" fill="#E6E3E3"/>
<defs>
<linearGradient id="paint0_linear_2198_5" x1="0" y1="25" x2="19" y2="25" gradientUnits="userSpaceOnUse">
<stop stop-color="#91E0D7" stop-opacity="0"/>
<stop offset="1" stop-color="#A8EDE5"/>
</linearGradient>
</defs>
</svg>
