<svg width="50" height="50" viewBox="0 0 50 50" fill="none" xmlns="http://www.w3.org/2000/svg">
<rect width="50" height="50" rx="5" fill="#289F91"/>
<rect width="50" height="50" rx="5" fill="url(#paint0_linear_2220_419)" fill-opacity="0.2"/>
<path fill-rule="evenodd" clip-rule="evenodd" d="M16.2201 15.9831C16.0727 15.9831 15.9314 16.0406 15.8272 16.1429C15.723 16.2453 15.6645 16.3841 15.6645 16.5289V18.533C15.6645 18.6778 15.723 18.8166 15.8272 18.9189C15.9314 19.0213 16.0727 19.0788 16.2201 19.0788C16.3674 19.0788 16.5087 19.0213 16.6129 18.9189C16.7171 18.8166 16.7757 18.6778 16.7757 18.533V17.0746H17.8868V18.533C17.8868 18.6778 17.9453 18.8166 18.0495 18.9189C18.1537 19.0213 18.295 19.0788 18.4424 19.0788C18.5897 19.0788 18.731 19.0213 18.8352 18.9189C18.9394 18.8166 18.998 18.6778 18.998 18.533V16.5289C18.998 16.3841 18.9394 16.2453 18.8352 16.1429C18.731 16.0406 18.5897 15.9831 18.4424 15.9831H16.2201ZM14.2211 27.9905C13.1744 27.9905 12.3311 28.855 12.3311 29.8877V37.3737C12.3311 37.5185 12.3896 37.6573 12.4938 37.7597C12.598 37.862 12.7393 37.9195 12.8866 37.9195C13.034 37.9195 13.1753 37.862 13.2795 37.7597C13.3837 37.6573 13.4422 37.5185 13.4422 37.3737V29.8866C13.4422 29.4205 13.79 29.081 14.2211 29.081H20.4436C20.8736 29.081 21.2203 29.4205 21.2203 29.8866V37.3727C21.2203 37.5174 21.2788 37.6562 21.383 37.7586C21.4872 37.8609 21.6285 37.9184 21.7758 37.9184C21.9232 37.9184 22.0645 37.8609 22.1687 37.7586C22.2729 37.6562 22.3314 37.5174 22.3314 37.3727V29.8866C22.3314 28.8539 21.4903 27.9894 20.4425 27.9894H14.2211V27.9905ZM15.2478 21.441C14.2567 21.441 13.4422 22.2411 13.4422 23.2148V25.2528C13.4422 25.3975 13.5007 25.5364 13.6049 25.6387C13.7091 25.7411 13.8504 25.7986 13.9978 25.7986C14.1451 25.7986 14.2864 25.7411 14.3906 25.6387C14.4948 25.5364 14.5534 25.3975 14.5534 25.2528V23.2148C14.5534 22.8273 14.8534 22.5326 15.2478 22.5326H19.4146C19.8091 22.5326 20.1091 22.8273 20.1091 23.2148V25.2528C20.1091 25.3975 20.1676 25.5364 20.2718 25.6387C20.376 25.7411 20.5173 25.7986 20.6647 25.7986C20.812 25.7986 20.9533 25.7411 21.0575 25.6387C21.1617 25.5364 21.2203 25.3975 21.2203 25.2528V23.2148C21.2203 22.2411 20.4058 21.441 19.4146 21.441H15.2478Z" fill="white"/>
<path d="M28.443 23.6241C28.2956 23.6241 28.1543 23.6816 28.0502 23.7839C27.946 23.8863 27.8874 24.0251 27.8874 24.1699V26.353C27.8874 26.4978 27.946 26.6366 28.0502 26.739C28.1543 26.8413 28.2956 26.8988 28.443 26.8988C28.5903 26.8988 28.7317 26.8413 28.8359 26.739C28.94 26.6366 28.9986 26.4978 28.9986 26.353V24.7156H32.332V26.353C32.332 26.4978 32.3906 26.6366 32.4948 26.739C32.5989 26.8413 32.7402 26.8988 32.8876 26.8988C33.0349 26.8988 33.1763 26.8413 33.2805 26.739C33.3846 26.6366 33.4432 26.4978 33.4432 26.353V24.1699C33.4432 24.0251 33.3846 23.8863 33.2805 23.7839C33.1763 23.6816 33.0349 23.6241 32.8876 23.6241H28.443ZM28.2997 10.0022L28.2219 10.0087L27.8941 10.0557L28.0541 11.1363L28.3541 11.0938L29.613 11.0916L30.1097 11.1625L30.2653 10.0819L29.7386 10.0065L29.6608 10L28.2997 10.0022ZM25.5485 10.5829L25.474 10.6102L24.5651 11.0152L25.0251 12.0085L25.8929 11.621L27.0341 11.2903L26.7229 10.2434L25.5485 10.5829ZM31.1231 11.3372L32.0898 11.6166L33.1232 12.0773L33.5843 11.0839L32.5209 10.608L32.4476 10.5829L31.4364 10.2904L31.1231 11.3372ZM23.0895 11.8786L23.0261 11.9234L22.0172 12.7693L21.9628 12.8239L21.7194 13.0914L22.5528 13.814L22.7661 13.5782L23.7228 12.7759L24.134 12.5205L23.5384 11.5992L23.0895 11.8786ZM34.0032 12.6078L34.2788 12.7781L35.2232 13.5717L35.5544 13.9384L36.3877 13.2158L36.0344 12.8207L35.9788 12.7683L34.9732 11.9256L34.9121 11.8819L34.5999 11.6865L34.0032 12.6078ZM20.2827 14.9896L21.2116 15.5867L21.8828 14.5825L20.9539 13.9854L20.2827 14.9896ZM36.2077 14.7211L36.7488 15.5245L37.2411 16.5582L38.2478 16.0932L37.7367 15.0257L37.6967 14.9569L37.1344 14.1196L36.2077 14.7211ZM37.5578 17.5221L37.6667 17.8692L37.8578 19.0896L37.8622 19.5175L38.9734 19.5066L38.9689 19.0372L38.9623 18.9608L38.7578 17.6607L38.7411 17.5843L38.6211 17.2023L37.5578 17.5221ZM37.7122 21.5239L37.4144 22.5903L38.4845 22.8796L38.7923 21.7771L38.81 21.7029L38.9445 20.6713L37.8422 20.5327L37.7122 21.5239ZM36.8855 23.8304L36.2322 24.8783L35.9255 25.2385L36.7811 25.9371L37.1089 25.5496L37.1533 25.4841L37.8556 24.3663L37.8889 24.2954L38.0378 23.9603L37.02 23.528L36.8855 23.8304Z" fill="white"/>
<path fill-rule="evenodd" clip-rule="evenodd" d="M13.7356 12.7083V13.7999H20.927V12.7083H13.7356Z" fill="white"/>
<path fill-rule="evenodd" clip-rule="evenodd" d="M14.4146 10.5208C13.8391 10.5208 13.4424 11.0241 13.4424 11.5404V18.5887C13.4424 18.7335 13.5009 18.8723 13.6051 18.9747C13.7093 19.077 13.8506 19.1345 13.998 19.1345C14.1453 19.1345 14.2866 19.077 14.3908 18.9747C14.495 18.8723 14.5535 18.7335 14.5535 18.5887V11.6124H20.1093V18.5876C20.1093 18.7324 20.1678 18.8712 20.272 18.9736C20.3762 19.0759 20.5175 19.1334 20.6649 19.1334C20.8122 19.1334 20.9535 19.0759 21.0577 18.9736C21.1619 18.8712 21.2204 18.7324 21.2204 18.5876V11.5404C21.2204 11.0241 20.8238 10.5208 20.2482 10.5208H14.4146Z" fill="white"/>
<path d="M25.1295 25.8073C24.9822 25.8073 24.8409 25.8648 24.7367 25.9671C24.6325 26.0695 24.574 26.2083 24.574 26.3531C24.574 26.4978 24.6325 26.6367 24.7367 26.739C24.8409 26.8414 24.9822 26.8989 25.1295 26.8989H37.8878V35.6315H25.1295C24.9822 35.6315 24.8409 35.689 24.7367 35.7914C24.6325 35.8938 24.574 36.0326 24.574 36.1773C24.574 36.3221 24.6325 36.4609 24.7367 36.5633C24.8409 36.6656 24.9822 36.7231 25.1295 36.7231H38.4433C38.5907 36.7231 38.732 36.6656 38.8362 36.5633C38.9404 36.4609 38.9989 36.3221 38.9989 36.1773V26.3531C38.9989 26.2083 38.9404 26.0695 38.8362 25.9671C38.732 25.8648 38.5907 25.8073 38.4433 25.8073H25.1295Z" fill="white"/>
<path d="M38.4343 27.9819C38.3613 27.983 38.2893 27.9982 38.2224 28.0267C38.1554 28.0552 38.0948 28.0964 38.044 28.1479C37.9933 28.1994 37.9533 28.2602 37.9265 28.3268C37.8996 28.3935 37.8864 28.4647 37.8876 28.5364C37.8876 29.4533 37.1543 30.1738 36.2209 30.1738H31.8563C31.7089 30.1738 31.5676 30.2313 31.4635 30.3336C31.3593 30.436 31.3007 30.5748 31.3007 30.7195C31.3007 30.8643 31.3593 31.0031 31.4635 31.1055C31.5676 31.2078 31.7089 31.2653 31.8563 31.2653H36.222C37.7509 31.2653 38.9999 30.0384 38.9999 28.5364C39.0011 28.4632 38.9873 28.3906 38.9594 28.3228C38.9314 28.255 38.8899 28.1934 38.8372 28.1416C38.7846 28.0899 38.7219 28.0491 38.6528 28.0217C38.5838 27.9942 38.5099 27.9807 38.4354 27.9819H38.4343ZM25.1105 30.1738C24.9632 30.1738 24.8219 30.2313 24.7177 30.3336C24.6135 30.436 24.5549 30.5748 24.5549 30.7195C24.5549 30.8643 24.6135 31.0031 24.7177 31.1055C24.8219 31.2078 24.9632 31.2653 25.1105 31.2653H29.4318C29.5791 31.2653 29.7204 31.2078 29.8246 31.1055C29.9288 31.0031 29.9874 30.8643 29.9874 30.7195C29.9874 30.5748 29.9288 30.436 29.8246 30.3336C29.7204 30.2313 29.5791 30.1738 29.4318 30.1738H25.1105Z" fill="white"/>
<path fill-rule="evenodd" clip-rule="evenodd" d="M12.4724 37.0144C11.6391 37.0144 10.9446 37.6868 10.9446 38.5076C10.9446 39.3274 11.638 39.9998 12.4724 39.9998C13.3058 39.9998 14.0003 39.3274 14.0003 38.5076C14.0003 37.6868 13.3069 37.0144 12.4724 37.0144ZM12.4724 38.1059C12.7113 38.1059 12.8891 38.2828 12.8891 38.5076C12.8891 38.7325 12.7113 38.9083 12.4724 38.9083C12.418 38.9099 12.3638 38.9007 12.3131 38.8812C12.2624 38.8618 12.2162 38.8325 12.1773 38.7951C12.1384 38.7577 12.1076 38.7129 12.0867 38.6635C12.0658 38.6142 12.0553 38.5611 12.0558 38.5076C12.0558 38.2828 12.2335 38.1059 12.4724 38.1059ZM22.1905 37.0144C21.3572 37.0144 20.6627 37.6868 20.6627 38.5076C20.6627 39.3274 21.3561 39.9998 22.1905 39.9998C23.0239 39.9998 23.7184 39.3274 23.7184 38.5076C23.7184 37.6868 23.025 37.0144 22.1905 37.0144ZM22.1905 38.1059C22.4294 38.1059 22.6072 38.2828 22.6072 38.5076C22.6072 38.7325 22.4294 38.9083 22.1905 38.9083C22.1361 38.9099 22.0819 38.9007 22.0312 38.8812C21.9805 38.8618 21.9343 38.8325 21.8954 38.7951C21.8565 38.7577 21.8257 38.7129 21.8048 38.6635C21.7839 38.6142 21.7734 38.5611 21.7739 38.5076C21.7739 38.2828 21.9516 38.1059 22.1905 38.1059ZM9.55566 24.7155V25.8071H25.1073V24.7155H9.55566Z" fill="white"/>
<path fill-rule="evenodd" clip-rule="evenodd" d="M11.1112 18.0905C9.97336 18.0905 9 18.955 9 20.0564V36.1431C9 37.2445 9.97336 38.1058 11.1112 38.1058H23.5516C24.6894 38.1058 25.6628 37.2434 25.6628 36.1431V20.0564C25.6628 18.955 24.6894 18.0916 23.5516 18.0916H11.1101L11.1112 18.0905ZM11.1112 19.1821H23.5516C24.1361 19.1821 24.5516 19.586 24.5516 20.0564V36.1431C24.5516 36.6136 24.1361 37.0142 23.5516 37.0142H11.1101C10.5256 37.0142 10.11 36.6136 10.11 36.1431V20.0564C10.11 19.586 10.5256 19.1832 11.1101 19.1832L11.1112 19.1821Z" fill="white"/>
<path fill-rule="evenodd" clip-rule="evenodd" d="M12.4724 30.1738V31.2654H22.1905V30.1738H12.4724Z" fill="white"/>
<path fill-rule="evenodd" clip-rule="evenodd" d="M18.998 30.4648V32.3566H20.1092V30.4648H18.998Z" fill="white"/>
<path d="M29.5539 29.082C29.4065 29.082 29.2652 29.1395 29.161 29.2419C29.0568 29.3442 28.9983 29.4831 28.9983 29.6278V31.811C28.9983 31.9557 29.0568 32.0946 29.161 32.1969C29.2652 32.2993 29.4065 32.3568 29.5539 32.3568H31.7762C31.9235 32.3568 32.0648 32.2993 32.169 32.1969C32.2732 32.0946 32.3317 31.9557 32.3317 31.811V29.6278C32.3317 29.4831 32.2732 29.3442 32.169 29.2419C32.0648 29.1395 31.9235 29.082 31.7762 29.082H29.5539ZM30.1094 30.1736H31.2206V31.2652H30.1094V30.1736Z" fill="white"/>
<defs>
<linearGradient id="paint0_linear_2220_419" x1="0" y1="25" x2="19" y2="25" gradientUnits="userSpaceOnUse">
<stop stop-color="#91E0D7" stop-opacity="0"/>
<stop offset="1" stop-color="#A8EDE5"/>
</linearGradient>
</defs>
</svg>
