<svg width="42" height="42" viewBox="0 0 42 42" fill="none" xmlns="http://www.w3.org/2000/svg">
<path d="M35.0662 12.9254H6.93274C5.56065 12.9254 4.40918 13.9556 4.40918 15.2664V35.516C4.40918 36.8268 5.56065 37.8571 6.93274 37.8571H35.0662C36.4378 37.8571 37.5898 36.8273 37.5898 35.5227V15.2664C37.5898 13.9556 36.4383 12.9254 35.0662 12.9254ZM36.283 35.5227C36.283 36.1058 35.7567 36.6151 35.0662 36.6151H6.93274C6.24396 36.6151 5.71593 36.1006 5.71593 35.516V15.2664C5.71593 14.6818 6.24396 14.1673 6.93274 14.1673H35.0662C35.755 14.1673 36.283 14.6818 36.283 15.2664V35.5227Z" fill="white" stroke="white" stroke-width="0.5"/>
<path d="M28.3116 19.7881L28.3111 19.7883L24.7463 21.1421L22.1966 17.4599C22.1964 17.4596 22.1962 17.4594 22.196 17.4591C21.9283 17.0653 21.6211 16.7185 21.2882 16.4335C20.2227 15.4967 19.0359 15.203 17.8766 15.6325L17.8766 15.6324L17.8742 15.6334L17.3095 15.8492L17.3089 15.8494C16.9339 15.9938 16.6286 16.2783 16.4835 16.6536C16.3379 17.0302 16.3749 17.4427 16.5919 17.7924C16.592 17.7926 16.5922 17.7929 16.5923 17.7931L19.815 23.051L12.2523 26.345L12.0754 25.9511C12.0753 25.9509 12.0752 25.9507 12.0751 25.9505C11.7069 25.121 10.6873 24.7525 9.81625 25.076L9.81551 25.0763C8.93674 25.4059 8.49733 26.3551 8.86764 27.1984L8.86764 27.1984L8.86837 27.2001L11.0242 32.0154C11.0243 32.0156 11.0244 32.0159 11.0245 32.0161C11.3927 32.8455 12.4123 33.214 13.2833 32.8905L13.2841 32.8902C14.1628 32.5606 14.6023 31.6114 14.2319 30.7681L14.232 30.7681L14.2311 30.7662L14.0666 30.3998L21.9626 27.8397L23.7002 33.6822C23.7003 33.6827 23.7005 33.6832 23.7006 33.6837C23.8103 34.0684 24.0903 34.3792 24.4662 34.549C24.6743 34.6482 24.895 34.6869 25.1141 34.6869C25.296 34.6869 25.4867 34.6552 25.6625 34.5906L25.6625 34.5906L25.6655 34.5895L26.2293 34.3739C26.2295 34.3739 26.2297 34.3738 26.2299 34.3737C26.8069 34.1555 27.2559 33.8165 27.5631 33.3459C27.8688 32.8776 28.0216 32.2983 28.041 31.6184C28.0564 31.1423 28.0022 30.6484 27.8879 30.1575L27.8878 30.157L26.9112 26.0061L30.4979 24.647L30.4986 24.6468C31.2083 24.3754 31.7691 23.8646 32.0549 23.189C32.3394 22.5232 32.3238 21.7864 31.9982 21.1335C31.3771 19.8289 29.7218 19.2562 28.3116 19.7881ZM30.8396 22.6893L30.839 22.6907C30.6929 23.0377 30.3971 23.3106 30.0039 23.4651C30.0035 23.4652 30.0031 23.4654 30.0027 23.4655L25.59 25.1442L25.3852 25.2221L25.4356 25.4353L26.609 30.4066L26.6095 30.4088C26.7071 30.8064 26.7482 31.1946 26.7345 31.5607L26.7344 31.5628C26.7205 32.0364 26.6305 32.3832 26.4733 32.6391C26.3192 32.8901 26.0871 33.0757 25.7448 33.2046L25.7436 33.205L25.1818 33.4198C25.1815 33.4199 25.1811 33.4201 25.1807 33.4202C25.1377 33.4357 25.0881 33.4356 25.0325 33.4125C24.9927 33.3935 24.9747 33.3686 24.9667 33.3393L24.9668 33.3392L24.965 33.3332L22.9114 26.4664L22.8381 26.2213L22.5947 26.3003L12.5764 29.5515L12.3116 29.6375L12.4254 29.8915L13.026 31.232C13.1046 31.4168 13.0187 31.6326 12.8011 31.7135C12.5628 31.8021 12.3085 31.6892 12.2297 31.51L12.229 31.5084L10.0736 26.6941C9.99502 26.5092 10.0809 26.2934 10.2985 26.2125C10.5368 26.1239 10.7911 26.2369 10.8699 26.4161L10.8704 26.4172L11.4718 27.7663L11.5727 27.9927L11.7999 27.8938L21.4075 23.7116L21.6713 23.5968L21.5209 23.3517L17.7218 17.1594L17.7211 17.1582C17.7063 17.1344 17.7015 17.1006 17.7144 17.0651C17.7221 17.044 17.7406 17.0179 17.7931 16.9986L17.7931 16.9987L17.796 16.9975L18.3593 16.7823C18.3595 16.7822 18.3597 16.7821 18.36 16.782C19.0031 16.5411 19.6632 16.6889 20.4013 17.3424L20.4013 17.3424L20.4031 17.344C20.6492 17.5578 20.8848 17.8247 21.1018 18.1401L21.1023 18.1408L24.1313 22.5118L24.2424 22.6722L24.425 22.6033L28.8027 20.951C28.8028 20.9509 28.803 20.9509 28.8031 20.9508C29.6046 20.6514 30.4985 20.9809 30.8148 21.6346C30.9749 21.969 30.9866 22.3456 30.8396 22.6893Z" fill="white" stroke="white" stroke-width="0.5"/>
<path d="M38.037 3.96079H34.1139V2.3828C34.1139 1.44035 33.2076 0.75 32.1918 0.75C31.1759 0.75 30.2696 1.44035 30.2696 2.3828V3.96079H11.701V2.3828C11.701 1.44035 10.7947 0.75 9.77888 0.75C8.76302 0.75 7.85671 1.44035 7.85671 2.3828V3.96079H3.96296C2.2095 3.96079 0.75 5.27435 0.75 6.93592V38.2749C0.75 39.9364 2.2095 41.25 3.96296 41.25H38.037C39.7905 41.25 41.25 39.9364 41.25 38.2749V6.93592C41.25 5.27435 39.7905 3.96079 38.037 3.96079ZM31.5764 2.3828C31.5764 2.30582 31.6188 2.21361 31.7293 2.13161C31.8393 2.04998 32.0023 1.99199 32.1918 1.99199C32.3813 1.99199 32.5443 2.04998 32.6543 2.13161C32.7647 2.21361 32.8072 2.30582 32.8072 2.3828V7.12479C32.8072 7.20177 32.7647 7.29398 32.6543 7.37598C32.5443 7.4576 32.3813 7.5156 32.1918 7.5156C32.0023 7.5156 31.8393 7.4576 31.7293 7.37598C31.6188 7.29398 31.5764 7.20177 31.5764 7.12479V2.3828ZM9.16346 2.3828C9.16346 2.30582 9.20592 2.21361 9.3164 2.13161C9.42637 2.04998 9.58938 1.99199 9.77888 1.99199C9.96838 1.99199 10.1314 2.04998 10.2414 2.13161C10.3518 2.21361 10.3943 2.30582 10.3943 2.3828V7.12479C10.3943 7.20177 10.3518 7.29398 10.2414 7.37598C10.1314 7.4576 9.96838 7.5156 9.77888 7.5156C9.58938 7.5156 9.42637 7.4576 9.3164 7.37598C9.20592 7.29398 9.16346 7.20177 9.16346 7.12479V2.3828ZM39.9433 38.2749C39.9433 39.2103 39.1072 40.008 38.037 40.008H3.96296C2.89281 40.008 2.05675 39.2103 2.05675 38.2749V6.93592C2.05675 6.00052 2.89281 5.20278 3.96296 5.20278H7.85671V7.12479C7.85671 8.06724 8.76302 8.75759 9.77888 8.75759C10.7947 8.75759 11.701 8.06723 11.701 7.12479V5.20278H30.2696V7.12479C30.2696 8.06723 31.1759 8.75759 32.1918 8.75759C33.2076 8.75759 34.1139 8.06723 34.1139 7.12479V5.20278H38.037C39.1072 5.20278 39.9433 6.00052 39.9433 6.93592V38.2749Z" fill="white" stroke="white" stroke-width="0.5"/>
</svg>
