<svg width="18" height="18" viewBox="0 0 18 18" fill="none" xmlns="http://www.w3.org/2000/svg">
<path d="M5.3767 10.597L7.70781 17.9734L0 10.597H5.3767Z" fill="#289F91"/>
<path d="M5.42107 9.54258H0L3.56336 6.53549C3.68086 6.43685 3.83936 6.38132 4.00491 6.38132H7.56154L5.42107 9.54258Z" fill="#289F91"/>
<path d="M11.5012 9.54338H6.23462L8.99962 6.38211L11.5012 9.54338Z" fill="#289F91"/>
<path d="M11.3308 10.6236L8.99999 17.9999L6.66919 10.6236H11.3308Z" fill="#289F91"/>
<path d="M12.5788 9.54338L10.438 6.38211H13.9946C14.1602 6.38211 14.319 6.43764 14.4362 6.53629L17.9995 9.54338H12.5788Z" fill="#289F91"/>
<path d="M12.6236 10.6236H18.0001L10.2922 17.9999L12.6236 10.6236Z" fill="#289F91"/>
<path d="M9.00022 3.00426C8.65536 3.00426 8.37598 2.76824 8.37598 2.47748V0.526794C8.37598 0.235767 8.65566 0 9.00022 0C9.34508 0 9.62446 0.236025 9.62446 0.526794V2.47748C9.62446 2.76824 9.34508 3.00426 9.00022 3.00426Z" fill="#289F91"/>
<path d="M2.79353 4.09218L1.63778 2.40283C1.4652 2.1508 1.5677 1.82853 1.86635 1.68314C2.16501 1.53776 2.5469 1.624 2.71918 1.87603L3.87494 3.56539C4.04752 3.81742 3.94501 4.13969 3.64636 4.28508C3.34892 4.42995 2.96673 4.34524 2.79353 4.09218Z" fill="#289F91"/>
<path d="M14.3535 4.28508C14.0549 4.13969 13.9527 3.81742 14.1249 3.56539L15.2807 1.87603C15.4533 1.624 15.8349 1.53776 16.1335 1.68314C16.4322 1.82853 16.5344 2.1508 16.3621 2.40283L15.2064 4.09218C15.0335 4.34498 14.6513 4.4302 14.3535 4.28508Z" fill="#289F91"/>
</svg>
