<svg width="36" height="36" viewBox="0 0 36 36" fill="none" xmlns="http://www.w3.org/2000/svg">
<circle cx="18" cy="18" r="18" fill="#68B2F9"/>
<path fill-rule="evenodd" clip-rule="evenodd" d="M20 16.5C20 17.935 19.105 19.0962 18 19.0962C16.895 19.0962 16 17.9337 16 16.5012C16 15.0662 16.895 13.905 18 13.905C19.105 13.905 20 15.0663 20 16.5ZM18 21.405C15.011 21.405 12.195 19.5588 10.399 16.5012C12.195 13.4425 15.011 11.595 18 11.595C20.989 11.595 23.805 13.4425 25.601 16.5012C23.805 19.5588 20.989 21.405 18 21.405ZM18 9C13.724 9 9.999 12.0213 8 16.5C9.999 20.98 13.724 24 18 24C22.276 24 26.001 20.98 28 16.5C26.001 12.0213 22.276 9 18 9Z" fill="white"/>
</svg>
