<svg width="19" height="12" viewBox="0 0 19 12" fill="none" xmlns="http://www.w3.org/2000/svg">
<path d="M9.5 12C4.32826 12 0.259832 6.51952 0.096844 6.29542C0.0338511 6.20915 0 6.10589 0 6C0 5.89411 0.0338511 5.79085 0.096844 5.70458C0.26819 5.47029 4.33453 0 9.5 0C14.6655 0 18.7402 5.48047 18.9032 5.70458C18.9662 5.79085 19 5.89411 19 6C19 6.10589 18.9662 6.20915 18.9032 6.29542C18.7402 6.51952 14.6717 12 9.5 12ZM1.17298 5.98981C2.07778 7.10424 5.51515 10.9813 9.5 10.9813C13.4848 10.9813 16.9222 7.11036 17.827 5.98981C16.9222 4.87538 13.4848 0.998302 9.5 0.998302C5.51515 0.998302 2.07778 4.87538 1.17298 5.98981ZM9.5 9.24958C8.83875 9.24958 8.19235 9.05839 7.64254 8.70021C7.09273 8.34202 6.6642 7.83291 6.41115 7.23727C6.1581 6.64163 6.09189 5.9862 6.2209 5.35387C6.3499 4.72153 6.66832 4.1407 7.1359 3.68481C7.60347 3.22893 8.1992 2.91846 8.84775 2.79269C9.49629 2.66691 10.1685 2.73146 10.7794 2.97819C11.3904 3.22491 11.9125 3.64272 12.2799 4.17879C12.6473 4.71485 12.8433 5.34509 12.8433 5.98981C12.8433 6.85436 12.4911 7.68349 11.8641 8.29481C11.2371 8.90614 10.3867 9.24958 9.5 9.24958ZM9.5 3.74873C9.04539 3.74873 8.60099 3.88016 8.223 4.12642C7.845 4.37267 7.55039 4.72268 7.37642 5.13219C7.20245 5.54169 7.15693 5.9923 7.24562 6.42703C7.33431 6.86176 7.55322 7.26108 7.87468 7.5745C8.19614 7.88792 8.6057 8.10137 9.05158 8.18784C9.49745 8.27431 9.95961 8.22993 10.3796 8.06031C10.7996 7.89068 11.1586 7.60344 11.4112 7.23489C11.6637 6.86635 11.7986 6.43306 11.7986 5.98981C11.7986 5.39544 11.5564 4.82541 11.1253 4.40513C10.6943 3.98484 10.1096 3.74873 9.5 3.74873Z" fill="black"/>
</svg>
