<svg width="21" height="16" viewBox="0 0 21 16" fill="none" xmlns="http://www.w3.org/2000/svg">
<path d="M12.1396 4.38477C13.8475 5.35592 15.043 7.59028 15.043 10.1925C15.043 12.7948 13.8475 15.0295 12.1396 16.0003C18.172 15.1113 21 10.1925 21 10.1925C21 10.1925 18.172 5.2737 12.1396 4.38477Z" fill="#289F91"/>
<path d="M5.42289 10.192C5.42289 7.5958 6.61269 5.36595 8.31403 4.39142C2.39701 5.30213 0 10.192 0 10.192C0 10.192 2.39673 15.082 8.31403 15.9927C6.61298 15.0181 5.42289 12.7883 5.42289 10.192Z" fill="#289F91"/>
<path d="M10.2334 6.01074C8.47728 6.01074 7.05341 7.88285 7.05341 10.1927C7.05341 12.5021 8.47699 14.3746 10.2334 14.3746C11.9899 14.3746 13.4135 12.5025 13.4135 10.1927C13.4132 7.88285 11.9896 6.01074 10.2334 6.01074ZM10.2334 11.8268C9.54718 11.8268 8.99082 11.0951 8.99082 10.1927C8.99082 9.29021 9.54718 8.55856 10.2334 8.55856C10.9197 8.55856 11.476 9.29021 11.476 10.1927C11.4758 11.0951 10.9197 11.8268 10.2334 11.8268ZM11.9302 8.2894C11.6793 8.2894 11.476 8.02174 11.476 7.69214C11.476 7.36217 11.6793 7.09489 11.9302 7.09489C12.1811 7.09489 12.3844 7.36217 12.3844 7.69214C12.3844 8.02174 12.1811 8.2894 11.9302 8.2894Z" fill="#289F91"/>
<path d="M4.44457 3.94518C4.83308 3.78226 5.23844 3.63173 5.6632 3.49884L3.73035 0.957031C3.30872 1.09142 2.90052 1.23783 2.50487 1.39437L4.44457 3.94518Z" fill="#289F91"/>
<path d="M10.0694 0C9.93898 0 9.81052 0.00262796 9.68178 0.00488033V2.84137C9.84535 2.83649 10.0066 2.82898 10.1739 2.82898C10.3806 2.82898 10.5821 2.83687 10.7837 2.84438V0.0123841C10.5479 0.00525161 10.3104 0 10.0694 0Z" fill="#289F91"/>
<path d="M16.6876 1.02051L14.7916 3.51389C15.2161 3.64528 15.6237 3.79281 16.0162 3.95235L17.9137 1.45709C17.5169 1.3013 17.1078 1.15565 16.6876 1.02051Z" fill="#289F91"/>
</svg>
