<svg width="43" height="45" viewBox="0 0 43 45" fill="none" xmlns="http://www.w3.org/2000/svg">
<path d="M3.90909 0C1.76037 0 0 1.84224 0 4.09091V10.2273H1.95455H41.0455V30.6818C41.0455 31.8327 40.1906 32.7273 39.0909 32.7273H24.4165C24.4256 32.5523 24.4318 32.3771 24.4318 32.2019C24.4318 28.4735 22.3901 25.1299 19.282 23.5147C20.0563 22.5412 20.5227 21.2914 20.5227 19.9332C20.5227 16.8437 18.107 14.3182 15.1535 14.3182C12.1999 14.3182 9.78227 16.8437 9.78227 19.9332C9.78227 21.2915 10.2502 22.5412 11.0249 23.5147C7.91694 25.1302 5.87318 28.4736 5.87318 32.2019C5.87318 32.3772 5.87915 32.5524 5.88845 32.7273H3.90909C2.80937 32.7273 1.95455 31.8327 1.95455 30.6818V12.2727H0V30.6818C0 32.9305 1.76037 34.7727 3.90909 34.7727H39.0909C41.2396 34.7727 43 32.9305 43 30.6818V4.09091C43 1.84224 41.2396 0 39.0909 0H3.90909ZM3.90909 2.04545H39.0909C40.1906 2.04545 41.0455 2.94004 41.0455 4.09091V8.18182H1.95455V4.09091C1.95455 2.94004 2.80937 2.04545 3.90909 2.04545ZM15.1535 16.3636C17.0518 16.3636 18.5682 17.9502 18.5682 19.9332C18.5682 21.9162 17.0518 23.5028 15.1535 23.5028C13.2552 23.5028 11.7368 21.9162 11.7368 19.9332C11.7368 17.9502 13.2552 16.3636 15.1535 16.3636ZM12.7733 24.9629C13.4918 25.3374 14.3 25.5482 15.1535 25.5482C16.0069 25.5482 16.8153 25.3374 17.5336 24.9629C20.481 26.0198 22.4773 28.9134 22.4773 32.2019C22.4773 32.3773 22.4699 32.5523 22.4582 32.7273H7.84681C7.83515 32.5524 7.82773 32.3774 7.82773 32.2019C7.82773 28.9128 9.82565 26.0194 12.7733 24.9629Z" fill="white"/>
<path d="M9.77273 36.8183C7.96291 36.8183 6.43156 38.1294 5.99343 39.8864H0V41.9319H5.99343C6.43156 43.689 7.96291 45.0001 9.77273 45.0001C11.5831 45.0001 13.1182 43.6898 13.5558 41.9319H43V39.8864H13.5558C13.1182 38.1286 11.5831 36.8183 9.77273 36.8183ZM9.77273 38.8637C10.8638 38.8637 11.7273 39.7674 11.7273 40.9092C11.7273 42.051 10.8638 42.9546 9.77273 42.9546C8.68169 42.9546 7.81818 42.051 7.81818 40.9092C7.81818 39.7674 8.68169 38.8637 9.77273 38.8637Z" fill="white"/>
<path d="M28.8161 14.4464C28.6672 14.3597 28.4993 14.3153 28.329 14.3175C28.1587 14.3196 27.9918 14.3683 27.8451 14.4588C27.6983 14.5492 27.5766 14.6782 27.4921 14.833C27.4077 14.9878 27.3633 15.163 27.3635 15.3413V25.5686C27.3633 25.7468 27.4077 25.922 27.4921 26.0768C27.5766 26.2316 27.6983 26.3606 27.8451 26.4511C27.9918 26.5415 28.1587 26.5902 28.329 26.5924C28.4993 26.5946 28.6672 26.5501 28.8161 26.4635L37.6115 21.3498C37.7643 21.2614 37.8916 21.1317 37.9802 20.9743C38.0688 20.817 38.1156 20.6376 38.1156 20.4549C38.1156 20.2723 38.0688 20.0929 37.9802 19.9355C37.8916 19.7782 37.7643 19.6485 37.6115 19.56L28.8161 14.4464ZM29.3181 17.0811L35.1225 20.4549L29.3181 23.8307V17.0811Z" fill="white"/>
<path d="M37.1365 4.09131V6.13676H39.091V4.09131H37.1365Z" fill="white"/>
<path d="M33.2273 4.09131V6.13676H35.1818V4.09131H33.2273Z" fill="white"/>
<path d="M29.3184 4.09131V6.13676H31.2729V4.09131H29.3184Z" fill="white"/>
<path d="M25.4092 4.09131V6.13676H27.3637V4.09131H25.4092Z" fill="white"/>
</svg>
