<svg width="50" height="50" viewBox="0 0 50 50" fill="none" xmlns="http://www.w3.org/2000/svg">
<path d="M40.0747 37.5398L41.933 42.9253" stroke="white" stroke-width="1.5" stroke-miterlimit="10" stroke-linecap="round" stroke-linejoin="round"/>
<path d="M44.8481 42.9253V37.5398" stroke="white" stroke-width="1.5" stroke-miterlimit="10" stroke-linecap="round" stroke-linejoin="round"/>
<path d="M9.9252 37.5398L8.06689 42.9253" stroke="white" stroke-width="1.5" stroke-miterlimit="10" stroke-linecap="round" stroke-linejoin="round"/>
<path d="M5.15186 42.9253V37.5398" stroke="white" stroke-width="1.5" stroke-miterlimit="10" stroke-linecap="round" stroke-linejoin="round"/>
<path d="M8.84863 20.1062V31.8574" stroke="white" stroke-width="1.5" stroke-miterlimit="10" stroke-linecap="round" stroke-linejoin="round"/>
<mask id="mask0_472_170308" style="mask-type:luminance" maskUnits="userSpaceOnUse" x="0" y="0" width="50" height="50">
<path d="M0 0H50V50H0V0Z" fill="white"/>
</mask>
<g mask="url(#mask0_472_170308)">
<path d="M12.6197 34.3722H5.07705C4.95635 34.3722 4.8584 34.2744 4.8584 34.1536V33.4304C4.8584 32.5621 5.5625 31.8579 6.43086 31.8579H11.2659C12.1343 31.8579 12.8384 32.5621 12.8384 33.4304V34.1536C12.8384 34.2744 12.7404 34.3722 12.6197 34.3722Z" stroke="white" stroke-width="1.5" stroke-miterlimit="10" stroke-linecap="round" stroke-linejoin="round"/>
<path d="M15.126 12.0902L10.0791 17.1381H10.0781" stroke="white" stroke-width="1.5" stroke-miterlimit="10" stroke-linecap="round" stroke-linejoin="round"/>
<path d="M7.61816 19.5978V19.5988L3.74707 23.4689" stroke="white" stroke-width="1.5" stroke-miterlimit="10" stroke-linecap="round" stroke-linejoin="round"/>
<path d="M19.4082 19.0336V16.8138" stroke="white" stroke-width="1.5" stroke-miterlimit="10" stroke-linecap="round" stroke-linejoin="round"/>
<path d="M19.4102 10.0853C19.4512 9.31283 20.0908 8.69857 20.873 8.69857H44.7881C45.5967 8.69857 46.2529 9.35482 46.2529 10.1634V26.0814C46.2529 26.89 45.5967 27.5462 44.7881 27.5462H20.873C20.0645 27.5462 19.4082 26.89 19.4082 26.0814V21.9632" stroke="white" stroke-width="1.5" stroke-miterlimit="10" stroke-linecap="round" stroke-linejoin="round"/>
<path d="M19.4082 22.7988C19.4082 23.6078 20.064 24.2636 20.873 24.2636H44.7878C45.5969 24.2636 46.2526 23.6078 46.2526 22.7988" stroke="white" stroke-width="1.5" stroke-miterlimit="10" stroke-linecap="round" stroke-linejoin="round"/>
<path d="M29.1833 31.8592L31.0417 27.5459H34.6191L36.4774 31.8592H29.1833Z" stroke="white" stroke-width="1.5" stroke-miterlimit="10" stroke-linecap="round" stroke-linejoin="round"/>
<path d="M37.7026 31.8579H27.9586C27.0498 31.8579 26.313 32.5947 26.313 33.5036V33.8256C26.313 34.1275 26.5577 34.3722 26.8596 34.3722H38.8017C39.1035 34.3722 39.3482 34.1275 39.3482 33.8256V33.5036C39.3482 32.5947 38.6115 31.8579 37.7026 31.8579Z" stroke="white" stroke-width="1.5" stroke-miterlimit="10" stroke-linecap="round" stroke-linejoin="round"/>
<path d="M18.0561 37.5422H48.291C48.8304 37.5422 49.2676 37.105 49.2676 36.5656V35.3486C49.2676 34.8093 48.8304 34.3721 48.291 34.3721H1.70898C1.16963 34.3721 0.732422 34.8093 0.732422 35.3486V36.5656C0.732422 37.105 1.16963 37.5422 1.70898 37.5422H15.1264" stroke="white" stroke-width="1.5" stroke-miterlimit="10" stroke-linecap="round" stroke-linejoin="round"/>
<path d="M16.9436 8.78562L15.3439 9.70915C14.9476 9.93806 14.7475 10.3994 14.8515 10.8453L16.3723 17.3657C16.4952 17.8927 17.0921 18.1514 17.5606 17.8808L22.9121 14.7912C23.3808 14.5207 23.4551 13.8744 23.0602 13.5045L18.1737 8.92722C17.8395 8.61423 17.34 8.55671 16.9436 8.78562Z" stroke="white" stroke-width="1.5" stroke-miterlimit="10" stroke-linecap="round" stroke-linejoin="round"/>
<path d="M16.1438 9.24631L14.8867 7.06896" stroke="white" stroke-width="1.5" stroke-miterlimit="10" stroke-linecap="round" stroke-linejoin="round"/>
<path d="M8.84873 16.6273C7.88779 16.6273 7.10889 17.4063 7.10889 18.3672C7.10889 19.3282 7.88779 20.1071 8.84873 20.1071C9.80967 20.1071 10.5887 19.3282 10.5887 18.3672C10.5887 17.4063 9.80967 16.6273 8.84873 16.6273Z" stroke="white" stroke-width="1.5" stroke-miterlimit="10" stroke-linecap="round" stroke-linejoin="round"/>
</g>
</svg>
