<svg width="23" height="20" viewBox="0 0 23 20" fill="none" xmlns="http://www.w3.org/2000/svg">
<path d="M1.57983 0C0.707322 0 0 0.628214 0 1.40314V18.2408C0 19.0157 0.707322 19.644 1.57983 19.644H20.5378C21.4103 19.644 22.1176 19.0157 22.1176 18.2408V1.40314C22.1176 0.628214 21.4103 0 20.5378 0H1.57983Z" fill="#289F91" fill-opacity="0.97"/>
<path fill-rule="evenodd" clip-rule="evenodd" d="M5.72868 4.15291C6.34563 3.60495 7.34594 3.60495 7.9629 4.15291L11.0587 6.90245L14.1544 4.15291C14.7714 3.60495 15.7717 3.60495 16.3887 4.15291C17.0056 4.70086 17.0056 5.58929 16.3887 6.13725L12.6385 9.46806V14.4993C12.6385 15.2743 11.9312 15.9025 11.0587 15.9025C10.1862 15.9025 9.47884 15.2743 9.47884 14.4993V9.46806L5.72868 6.13725C5.11172 5.58929 5.11172 4.70086 5.72868 4.15291Z" fill="white"/>
<path fill-rule="evenodd" clip-rule="evenodd" d="M11.0588 0V19.644H1.57983C0.707322 19.644 0 19.0157 0 18.2408V1.40314C0 0.628214 0.707322 0 1.57983 0H11.0588Z" fill="#289F91"/>
<path fill-rule="evenodd" clip-rule="evenodd" d="M11.0587 6.90245V15.9025C10.1862 15.9025 9.47884 15.2743 9.47884 14.4993V9.46806L5.72868 6.13725C5.11172 5.58929 5.11172 4.70086 5.72868 4.15291C6.34563 3.60495 7.34594 3.60495 7.9629 4.15291L11.0587 6.90245Z" fill="white"/>
</svg>
