<svg width="23" height="20" viewBox="0 0 23 20" fill="none" xmlns="http://www.w3.org/2000/svg">
<path d="M22.9947 7.04863C23.0464 5.198 22.7193 3.36122 22.0439 1.70884C21.5857 1.03083 20.9497 0.573275 20.2469 0.415913C17.3398 0.0894815 14.4206 -0.0443119 11.502 0.0151056C8.59392 -0.0470087 5.68528 0.0824673 2.78837 0.402984C2.21563 0.53191 1.6856 0.864354 1.26297 1.35975C0.322649 2.43288 0.21817 4.26884 0.11369 5.82035C-0.0378968 8.60992 -0.0378968 11.4089 0.11369 14.1985C0.143916 15.0718 0.248985 15.9386 0.427129 16.7844C0.553105 17.4374 0.80798 18.0415 1.16893 18.5427C1.59444 19.0644 2.13682 19.4157 2.72568 19.5512C4.97817 19.8953 7.24778 20.0379 9.51685 19.9779C13.1736 20.0425 16.3811 19.9779 20.1738 19.6159C20.7771 19.4887 21.3347 19.1369 21.7723 18.6074C22.0648 18.2453 22.2833 17.802 22.4096 17.3145C22.7833 15.8956 22.9668 14.4107 22.9529 12.9185C22.9947 12.1945 22.9947 7.82438 22.9947 7.04863ZM9.14072 13.6943V5.69105L15.3259 9.71206C13.5915 10.9016 11.3034 12.2462 9.14072 13.6943Z" fill="#289F91"/>
</svg>
